{"glyphs":{"0":{"ha":618,"x_min":40,"x_max":533,"o":"m 385 -7 q 222 1 299 -4 q 60 31 144 7 q 47 126 53 78 q 40 219 40 174 q 40 316 40 257 q 41 444 40 375 q 46 585 42 513 q 58 722 50 658 q 81 835 67 786 q 115 907 94 885 q 179 917 147 913 q 243 921 211 921 q 312 922 276 921 q 382 918 347 922 q 449 902 417 914 q 507 867 481 890 q 531 675 528 772 q 533 482 533 578 q 533 381 533 444 q 525 249 532 317 q 503 124 518 182 q 458 42 488 67 q 422 15 442 26 q 385 -7 403 4 m 232 654 q 213 643 222 649 q 194 631 203 638 q 173 597 181 621 q 162 547 165 574 q 158 493 158 519 q 157 451 157 467 q 158 376 157 413 q 171 301 160 339 q 233 276 197 278 q 303 274 269 274 q 335 276 318 274 q 367 281 351 278 q 390 328 382 294 q 401 403 397 363 q 404 482 404 443 q 404 542 404 521 q 401 589 404 565 q 394 636 397 613 q 313 650 351 647 q 232 654 275 653 z "},"1":{"ha":539,"x_min":54,"x_max":490,"o":"m 89 821 q 144 850 114 833 q 203 881 175 867 q 253 906 231 896 q 283 915 275 915 q 333 915 311 915 q 375 911 354 914 q 383 818 383 865 q 383 767 383 794 q 379 683 382 739 q 372 531 376 626 q 361 278 368 436 q 367 263 361 275 q 375 246 372 250 l 478 228 q 485 182 483 208 q 489 128 488 156 q 490 73 490 100 q 490 26 490 46 q 488 17 490 22 q 485 8 486 13 q 274 7 383 10 q 63 4 164 4 q 56 72 56 38 q 57 139 57 107 q 56 185 57 158 q 64 228 54 211 q 110 230 90 228 q 147 235 131 232 q 178 244 164 239 q 208 257 193 250 q 222 320 218 282 q 225 398 225 358 q 224 472 225 438 q 222 522 222 506 q 224 578 222 550 q 233 635 225 607 l 222 649 q 160 619 196 629 q 100 590 125 610 l 81 593 q 68 677 74 633 q 61 790 63 721 l 89 821 z "},"2":{"ha":607,"x_min":49,"x_max":557,"o":"m 415 282 q 422 329 418 308 q 433 350 426 350 q 456 351 443 350 q 482 351 469 351 q 505 351 494 351 q 519 351 515 351 l 532 279 q 535 172 532 222 q 538 63 538 121 q 536 40 538 51 q 525 19 535 29 q 482 10 503 15 q 438 3 461 4 q 408 13 422 10 q 379 15 393 15 q 342 13 360 15 q 311 10 325 10 q 200 10 250 10 q 94 11 150 10 q 79 51 85 19 q 70 119 74 82 q 66 194 67 157 q 65 250 65 231 q 73 298 65 269 q 100 344 81 326 q 157 397 124 368 q 213 444 190 425 q 269 487 239 467 q 326 529 300 507 q 369 577 353 551 q 382 638 385 603 q 334 685 363 675 q 268 696 306 696 q 249 692 260 696 q 231 685 238 688 q 206 648 215 667 q 186 608 196 629 q 124 598 160 597 q 60 592 89 599 q 50 616 51 603 q 49 642 49 629 q 53 727 49 685 q 56 813 57 769 q 102 872 78 849 q 154 907 126 894 q 215 924 182 919 q 285 928 247 928 l 381 929 q 475 918 440 931 q 528 879 510 906 q 551 812 546 853 q 557 715 557 771 q 556 667 557 694 q 550 610 554 639 q 538 555 546 581 q 517 513 529 529 q 439 470 485 493 q 349 419 393 447 q 267 358 304 392 q 214 286 229 325 l 226 269 q 267 267 242 268 q 319 267 293 267 q 369 269 347 267 q 404 275 390 272 l 415 282 z "},"3":{"ha":607,"x_min":49,"x_max":557,"o":"m 251 510 q 288 530 264 519 q 335 556 311 540 q 376 597 358 572 q 393 661 393 622 q 383 664 393 663 q 358 666 374 665 q 322 667 342 667 q 283 667 303 667 q 223 663 247 667 q 188 656 199 658 q 170 653 185 654 q 138 652 156 653 q 105 651 121 651 q 83 651 89 651 l 71 654 q 68 762 71 711 q 65 871 65 813 q 67 893 65 882 q 78 914 68 904 q 121 924 100 918 q 165 931 142 929 q 201 919 183 922 q 235 918 219 917 q 265 922 251 919 q 292 924 279 924 q 403 924 353 924 q 508 922 453 924 q 524 883 518 914 q 532 814 529 851 q 536 740 535 776 q 538 683 538 703 q 530 635 538 664 q 503 589 522 607 q 472 566 490 578 q 435 542 453 554 q 403 516 417 529 q 390 489 390 503 l 390 481 q 416 465 400 472 q 449 451 432 458 q 485 436 467 443 q 517 421 503 429 q 538 378 529 404 q 550 324 546 353 q 556 267 554 294 q 557 218 557 239 q 551 121 557 161 q 528 54 546 81 q 475 15 510 28 q 381 4 440 3 l 285 6 q 215 10 247 6 q 154 26 182 14 q 102 62 126 39 q 56 121 78 85 q 53 206 57 164 q 49 292 49 249 q 50 317 49 304 q 60 342 51 331 q 124 335 89 335 q 186 325 160 336 q 206 285 196 304 q 231 249 215 267 q 249 242 238 246 q 268 238 260 238 q 334 248 306 238 q 382 296 363 258 q 374 347 382 328 q 354 378 367 367 q 324 392 342 389 q 289 396 307 396 q 270 399 281 396 q 251 417 260 401 l 251 510 z "},"4":{"ha":629,"x_min":25,"x_max":599,"o":"m 408 631 q 460 630 431 628 q 526 640 489 632 l 544 622 q 536 551 539 594 q 531 458 533 507 q 541 453 531 456 q 565 449 551 451 q 588 443 578 446 q 599 439 599 440 q 598 384 599 413 q 597 331 597 356 l 553 336 l 526 314 l 526 265 l 539 247 q 564 242 553 247 q 576 11 565 126 q 554 3 563 4 q 531 3 546 3 q 490 3 519 3 q 427 6 460 4 q 367 11 394 8 q 331 18 339 14 q 349 239 349 125 l 358 246 l 392 244 l 400 251 q 406 292 406 268 q 399 317 406 304 q 376 339 393 329 q 268 344 319 344 q 174 344 217 344 q 99 347 132 344 q 44 360 65 349 q 36 443 25 401 q 68 534 47 485 q 110 641 89 583 q 132 771 131 699 q 158 849 147 811 q 172 919 168 888 q 232 920 211 919 q 270 922 253 921 q 308 924 288 922 q 368 925 329 925 q 372 916 369 921 q 374 907 374 911 q 374 857 374 886 q 372 798 374 828 q 368 740 371 768 q 361 692 365 711 l 326 674 q 289 652 304 675 q 263 594 274 629 q 247 521 253 560 q 240 453 242 482 q 262 446 247 449 q 294 442 276 443 q 331 440 311 440 q 365 440 350 440 q 378 453 372 444 q 383 469 383 463 l 385 574 l 408 631 z "},"5":{"ha":607,"x_min":49,"x_max":557,"o":"m 351 510 q 393 503 369 507 q 440 494 417 500 q 484 480 464 488 q 517 463 504 472 q 538 412 529 443 q 550 346 546 381 q 556 277 554 311 q 557 218 557 243 q 551 121 557 161 q 528 54 546 81 q 475 15 510 28 q 381 4 440 3 l 285 6 q 215 10 247 6 q 154 26 182 14 q 102 62 126 39 q 56 121 78 85 q 53 206 57 164 q 49 292 49 249 q 50 317 49 304 q 60 342 51 331 q 124 335 89 335 q 186 325 160 336 q 206 285 196 304 q 231 249 215 267 q 249 242 238 246 q 268 238 260 238 q 334 248 306 238 q 382 296 363 258 q 376 349 382 324 q 358 389 369 374 q 260 414 318 404 q 136 424 203 424 q 117 426 128 424 q 99 444 107 429 q 97 513 101 482 q 85 571 92 543 q 72 626 78 599 q 65 683 65 653 q 66 740 65 703 q 70 814 67 776 q 79 883 74 851 q 94 922 85 914 q 200 924 150 924 q 311 924 250 924 q 338 919 324 924 q 370 917 353 914 q 406 936 388 919 q 443 997 424 953 q 488 990 467 996 q 531 981 508 985 q 537 958 535 972 q 539 926 539 943 q 538 894 539 910 q 538 871 538 879 q 535 762 538 813 q 532 654 532 711 l 519 651 q 498 651 514 651 q 465 652 482 651 q 433 653 447 653 q 415 656 418 654 q 380 663 404 658 q 319 667 356 667 q 254 665 285 667 q 224 661 224 664 q 226 583 224 615 q 240 526 229 550 l 254 511 q 315 515 289 518 q 351 510 340 513 z "},"6":{"ha":590,"x_min":42,"x_max":539,"o":"m 157 939 q 273 930 214 939 q 386 921 332 921 q 435 924 413 921 q 485 917 457 928 q 491 881 490 899 q 492 843 492 863 q 492 761 492 803 q 485 683 492 719 l 472 675 q 448 674 460 675 q 424 672 436 672 q 413 673 419 672 q 396 674 407 674 q 366 676 385 675 q 317 679 347 678 q 255 669 279 679 q 217 643 231 658 q 197 609 203 628 q 192 574 192 590 q 192 556 192 567 q 193 533 192 544 q 195 511 194 521 q 199 497 196 501 q 225 486 208 486 q 262 490 242 486 q 304 500 282 494 q 349 506 326 506 q 392 507 368 506 q 439 508 415 508 q 484 502 463 507 q 522 483 506 497 q 535 430 532 457 q 538 375 538 403 q 538 289 538 339 q 534 188 539 239 q 515 92 529 138 q 471 19 500 46 q 431 18 460 21 q 369 11 403 15 q 302 3 335 7 q 250 0 269 0 q 189 3 222 0 q 126 16 156 6 q 78 48 97 26 q 58 108 58 69 q 56 233 58 168 q 51 363 54 297 q 47 494 49 429 q 44 618 44 560 q 43 675 44 642 q 43 744 42 708 q 49 815 44 779 q 67 877 54 850 q 101 922 79 904 q 157 939 122 939 m 358 349 q 348 387 358 372 q 321 406 338 401 q 285 407 304 411 q 249 390 265 403 q 239 343 243 369 q 236 294 235 317 q 247 256 238 271 q 281 240 257 240 q 321 251 304 240 q 354 279 338 263 q 357 314 356 296 q 358 349 358 332 z "},"7":{"ha":493,"x_min":28,"x_max":490,"o":"m 89 915 q 281 924 183 921 q 472 928 378 926 l 490 903 l 486 756 q 475 699 478 729 q 470 637 472 668 q 465 574 468 606 q 453 513 461 542 q 402 360 422 433 q 364 224 382 288 q 324 105 346 160 q 269 6 303 50 l 160 6 l 132 3 l 117 18 q 127 36 119 19 q 144 76 135 53 q 165 125 154 99 q 185 175 175 151 q 201 215 194 199 q 211 233 208 231 q 270 361 246 299 q 310 477 294 424 q 334 570 326 531 q 342 629 342 610 l 342 663 q 328 674 338 671 q 310 678 319 678 q 262 677 289 678 q 208 674 235 676 q 156 667 181 672 q 118 654 132 663 l 118 557 q 103 549 114 553 q 82 542 93 546 q 60 538 71 539 q 43 536 49 536 l 31 538 q 28 599 29 567 q 28 661 28 632 q 28 715 28 685 q 31 775 29 744 q 36 836 33 806 q 44 892 39 867 l 89 915 z "},"8":{"ha":683,"x_min":58,"x_max":628,"o":"m 299 693 q 255 674 267 688 q 243 651 243 661 q 246 612 243 632 q 257 576 249 592 q 280 551 265 561 q 318 542 294 542 q 369 545 344 542 q 412 560 393 549 q 442 590 431 571 q 453 642 453 610 q 425 670 443 660 q 385 686 407 681 q 341 692 364 692 q 299 693 318 693 m 451 922 q 546 910 511 922 q 599 872 581 897 q 622 805 617 846 q 628 708 628 764 q 626 660 628 688 q 620 603 625 632 q 608 548 615 574 q 588 506 600 522 q 558 476 575 489 q 531 446 540 463 l 531 438 q 536 425 531 431 q 549 414 542 419 q 563 403 556 408 q 574 393 569 399 q 590 361 583 381 q 601 321 597 342 q 607 280 606 300 q 608 243 608 260 q 606 197 608 226 q 598 135 604 167 q 581 78 592 104 q 551 46 569 53 q 497 26 529 33 q 431 13 465 18 q 365 6 397 8 q 310 4 332 4 l 235 4 q 140 17 175 4 q 88 55 106 29 q 64 121 69 81 q 58 218 58 161 q 60 267 58 239 q 65 324 61 294 q 78 378 69 353 q 99 421 86 404 q 128 451 111 438 q 156 481 146 464 l 156 489 q 150 501 156 494 q 138 513 144 507 q 124 523 131 518 q 113 533 117 528 q 96 565 103 546 q 85 606 89 585 q 79 647 81 626 q 78 683 78 667 q 80 730 78 700 q 88 791 82 760 q 106 848 94 822 q 135 881 117 874 q 190 901 157 893 q 256 913 222 908 q 321 920 289 918 q 376 922 353 922 l 451 922 m 388 244 q 419 252 403 244 q 446 271 435 260 q 449 306 447 288 q 450 340 451 324 q 443 369 449 358 q 427 385 438 379 q 402 392 417 390 q 368 396 388 394 q 317 392 342 396 q 274 378 293 389 q 244 347 256 367 q 233 296 233 328 q 261 267 243 276 q 301 251 279 257 q 345 245 322 246 q 388 244 368 244 z "},"9":{"ha":590,"x_min":46,"x_max":542,"o":"m 525 831 q 527 706 525 771 q 532 576 529 642 q 537 444 535 510 q 539 321 539 379 q 540 264 539 297 q 540 195 542 231 q 534 124 539 160 q 517 62 529 89 q 483 17 504 35 q 426 0 461 0 q 310 9 369 0 q 197 18 251 18 q 149 15 171 18 q 99 22 126 11 q 92 58 93 40 q 92 96 92 76 q 92 178 92 136 q 99 256 92 219 l 111 264 q 135 265 124 264 q 160 267 147 267 q 170 266 164 267 q 188 265 176 265 q 217 263 199 264 q 267 260 236 261 q 308 270 292 260 q 333 296 324 281 q 347 330 343 311 q 350 365 350 349 q 350 383 350 372 q 349 406 350 394 q 346 428 347 418 q 343 442 344 438 q 324 453 336 453 q 297 449 311 453 q 266 439 282 444 q 235 433 250 433 q 192 432 215 433 q 144 431 168 431 q 99 437 121 432 q 61 456 78 442 q 49 509 51 482 q 46 564 46 536 q 49 623 46 590 q 55 691 51 656 q 61 762 58 726 q 64 831 64 797 q 83 891 64 869 q 132 923 103 913 q 194 936 161 933 q 256 939 228 939 q 308 935 275 939 q 374 926 340 931 q 437 919 408 922 q 476 919 465 917 q 525 833 510 889 l 525 831 m 226 675 q 228 640 226 658 q 231 606 229 622 q 264 578 247 589 q 304 567 281 567 q 337 582 326 567 q 349 620 347 597 q 346 669 350 643 q 336 717 342 696 q 300 733 319 729 q 264 733 281 738 q 237 713 247 728 q 226 675 226 699 z "}," ":{"ha":432,"x_min":0,"x_max":0,"o":""},"!":{"ha":350,"x_min":69,"x_max":281,"o":"m 214 913 l 269 913 q 279 897 278 906 q 281 881 281 888 q 274 826 281 872 q 259 715 268 779 q 240 578 250 651 q 219 441 229 504 q 203 333 210 378 q 194 282 196 289 l 174 282 q 140 288 156 282 q 137 305 138 294 q 136 325 136 315 q 131 381 136 338 q 119 485 126 425 q 103 614 111 546 q 89 742 96 682 q 78 845 82 801 q 75 901 74 889 l 85 906 l 125 904 l 214 913 m 214 219 l 269 219 q 279 203 278 213 q 281 188 281 194 q 281 147 281 174 q 278 93 281 121 q 272 40 276 65 q 261 6 268 15 l 193 6 q 138 7 165 6 q 82 11 110 8 q 73 28 76 18 q 69 49 69 39 q 70 128 69 85 q 75 208 71 172 l 85 213 l 125 211 l 214 219 z "},"'":{"ha":263,"x_min":38,"x_max":218,"o":"m 151 964 l 207 964 q 217 949 215 958 q 218 932 218 939 q 213 867 218 910 q 200 778 207 824 q 186 692 193 732 q 178 639 179 653 l 144 639 q 89 644 113 639 q 82 682 82 658 q 74 747 82 713 q 58 817 67 782 q 44 888 50 853 q 40 953 38 922 l 50 957 l 90 956 l 151 964 z "},",":{"ha":350,"x_min":69,"x_max":281,"o":"m 142 -194 q 128 -174 135 -185 q 117 -146 121 -164 l 115 -136 l 133 -112 q 156 -54 139 -82 q 178 6 172 -26 l 81 6 q 71 22 72 13 q 69 38 69 31 q 69 78 69 51 q 72 132 69 104 q 78 185 74 160 q 89 219 82 210 l 157 219 q 213 218 185 219 q 268 214 240 217 q 277 197 274 207 q 281 176 281 186 q 280 97 281 140 q 275 17 279 53 l 238 -140 l 210 -183 q 193 -193 203 -190 l 142 -194 z "},"-":{"ha":383,"x_min":69,"x_max":308,"o":"m 242 594 l 297 594 q 307 578 306 588 q 308 563 308 569 q 308 531 308 551 q 306 490 308 511 q 300 449 304 468 q 289 422 296 431 l 221 422 q 151 424 186 422 q 82 428 117 425 q 73 445 76 435 q 69 465 69 456 q 70 525 69 493 q 75 583 71 557 l 85 588 l 125 586 l 242 594 z "},".":{"ha":350,"x_min":69,"x_max":281,"o":"m 214 219 l 269 219 q 279 203 278 213 q 281 188 281 194 q 281 147 281 174 q 278 93 281 121 q 272 40 276 65 q 261 6 268 15 l 193 6 q 138 7 165 6 q 82 11 110 8 q 73 28 76 18 q 69 49 69 39 q 70 128 69 85 q 75 208 71 172 l 85 213 l 125 211 l 214 219 z "},":":{"ha":350,"x_min":69,"x_max":281,"o":"m 69 6 m 214 219 l 269 219 q 279 203 278 213 q 281 188 281 194 q 281 147 281 174 q 278 93 281 121 q 272 40 276 65 q 261 6 268 15 l 193 6 q 138 7 165 6 q 82 11 110 8 q 73 28 76 18 q 69 49 69 39 q 70 128 69 85 q 75 208 71 172 l 85 213 l 125 211 l 214 219 m 214 636 l 269 636 q 279 620 278 629 q 281 604 281 611 q 281 564 281 590 q 278 510 281 538 q 272 457 276 482 q 261 422 268 432 l 193 422 q 138 424 165 422 q 82 428 110 425 q 73 445 76 435 q 69 465 69 456 q 70 545 69 501 q 75 625 71 589 l 85 629 l 125 628 l 214 636 z "},";":{"ha":350,"x_min":69,"x_max":281,"o":"m 69 0 m 142 -194 q 128 -174 135 -185 q 117 -146 121 -164 l 115 -136 l 133 -112 q 156 -54 139 -82 q 178 6 172 -26 l 81 6 q 71 22 72 13 q 69 38 69 31 q 69 78 69 51 q 72 132 69 104 q 78 185 74 160 q 89 219 82 210 l 157 219 q 213 218 185 219 q 268 214 240 217 q 277 197 274 207 q 281 176 281 186 q 280 97 281 140 q 275 17 279 53 l 238 -140 l 210 -183 q 193 -193 203 -190 l 142 -194 m 214 636 l 269 636 q 279 620 278 629 q 281 604 281 611 q 281 564 281 590 q 278 510 281 538 q 272 457 276 482 q 261 422 268 432 l 193 422 q 138 424 165 422 q 82 428 110 425 q 73 445 76 435 q 69 465 69 456 q 70 545 69 501 q 75 625 71 589 l 85 629 l 125 628 l 214 636 z "},"A":{"ha":713,"x_min":32,"x_max":671,"o":"m 321 632 q 303 618 310 632 q 293 585 296 604 q 290 548 290 567 q 289 521 289 529 q 291 445 289 482 q 293 369 293 408 l 293 350 l 307 349 q 356 358 329 349 l 356 389 q 353 483 356 435 q 339 575 350 531 q 336 587 338 578 q 332 606 335 596 q 326 624 329 617 q 321 632 324 632 m 142 914 q 310 909 226 907 q 478 911 393 911 q 494 828 483 872 q 506 747 506 783 l 504 725 q 488 707 496 719 q 479 685 479 694 q 488 651 479 681 q 508 578 496 621 q 536 486 521 536 q 565 393 551 436 q 588 319 578 350 q 601 283 599 289 q 610 280 604 282 q 618 278 615 278 l 654 281 l 660 274 q 667 150 663 213 q 671 28 671 88 q 665 4 671 15 q 613 10 639 4 q 563 17 586 17 q 488 10 526 17 q 411 3 449 3 q 376 8 392 3 q 372 80 375 44 q 368 150 368 115 l 368 176 l 382 185 l 382 189 q 374 224 382 208 q 367 257 365 239 l 276 257 q 256 233 267 246 q 242 206 244 221 l 249 188 q 276 154 274 172 q 279 108 279 136 q 275 26 279 68 q 159 24 217 28 q 43 19 101 19 q 37 31 42 22 q 32 43 32 40 q 33 150 32 97 q 40 256 35 203 l 47 264 l 78 264 q 91 296 82 269 q 111 360 100 322 q 133 440 122 397 q 153 523 144 483 q 169 592 163 563 q 175 631 175 621 q 174 651 175 642 q 168 672 174 661 l 140 685 q 134 728 136 700 q 131 785 132 756 q 129 844 129 815 q 129 890 129 872 l 131 906 l 142 914 z "},"B":{"ha":663,"x_min":28,"x_max":607,"o":"m 178 922 q 260 920 213 922 q 357 913 308 918 q 451 901 406 908 q 531 881 497 893 q 560 848 549 874 q 577 791 571 822 q 585 730 583 760 q 588 683 588 700 q 586 647 588 667 q 581 606 585 626 q 569 565 576 585 q 553 533 563 546 q 542 523 549 528 q 528 513 535 518 q 515 501 521 507 q 510 489 510 494 l 510 481 q 537 451 519 464 q 567 421 554 438 q 588 378 579 404 q 600 324 596 353 q 606 267 604 294 q 607 218 607 239 q 601 121 607 161 q 578 55 596 81 q 525 17 560 29 q 431 4 490 4 l 356 4 q 208 3 286 4 q 61 8 129 1 q 40 25 46 11 q 33 53 33 39 q 35 166 33 110 q 43 278 38 222 q 67 331 60 288 q 78 428 75 375 q 81 531 81 482 q 82 601 82 581 q 71 611 78 610 q 54 613 64 613 l 47 618 q 39 719 47 669 q 31 818 31 768 q 29 855 31 836 q 31 888 28 874 q 46 910 35 901 q 82 919 57 919 l 178 922 m 333 667 q 315 664 324 667 q 297 660 306 661 q 253 656 269 657 q 229 647 238 654 q 219 621 221 639 q 217 568 217 603 q 218 539 217 553 q 224 510 219 525 l 232 510 q 282 515 247 510 q 353 530 317 519 q 416 556 389 540 q 443 592 443 571 q 433 630 443 615 q 408 653 424 644 q 372 664 392 661 q 333 667 353 667 m 233 264 q 252 247 242 250 q 278 244 263 244 q 320 245 297 244 q 365 251 343 246 q 404 267 386 257 q 432 296 422 276 q 421 347 432 328 q 391 378 410 367 q 348 392 372 389 q 297 396 324 396 q 263 394 279 396 q 232 376 246 392 l 233 264 z "},"C":{"ha":596,"x_min":29,"x_max":549,"o":"m 107 894 q 219 922 161 919 q 335 924 276 924 q 383 914 356 924 q 429 896 410 904 l 438 901 q 449 931 438 917 q 492 924 472 929 q 536 914 513 918 q 549 871 549 894 q 546 706 549 788 q 543 543 543 625 l 531 540 q 485 540 518 540 q 417 541 453 540 q 351 542 382 542 q 314 544 321 543 q 290 593 303 572 q 243 614 278 614 q 190 594 210 614 q 162 544 171 574 q 150 483 153 515 q 147 426 147 450 q 165 324 147 368 q 231 243 183 279 q 256 240 242 242 q 283 238 269 238 q 302 242 290 238 q 321 249 314 246 q 346 285 336 267 q 365 325 356 304 q 433 335 394 336 q 504 342 472 335 q 514 317 513 331 q 515 292 515 304 q 510 206 515 249 q 507 121 506 164 q 456 62 483 85 q 398 26 429 39 q 331 10 367 14 q 254 6 296 6 q 85 63 142 6 q 29 229 29 119 q 29 326 29 269 q 31 446 29 382 q 37 576 32 510 q 50 703 42 643 q 72 814 58 764 q 107 894 86 864 z "},"D":{"ha":603,"x_min":38,"x_max":556,"o":"m 215 343 q 216 324 215 339 q 219 294 217 310 q 226 267 221 279 q 238 254 231 254 q 261 256 246 254 q 293 261 276 258 q 325 267 310 264 q 349 272 340 269 q 382 292 367 278 q 408 324 397 306 q 426 364 419 343 q 433 403 433 385 q 401 532 433 485 q 281 579 368 579 q 250 578 267 579 q 222 567 233 576 q 215 515 217 543 q 213 456 213 486 q 214 396 213 425 q 215 343 215 367 m 60 919 q 180 908 121 904 q 292 916 239 911 q 392 919 346 921 q 470 896 438 918 q 522 821 503 874 q 540 671 540 768 q 548 529 540 600 q 556 386 556 458 q 529 199 556 272 q 451 84 503 126 q 322 25 400 42 q 143 8 244 8 q 101 8 124 8 q 58 13 78 7 l 40 33 q 38 56 38 47 q 41 132 38 93 q 44 210 44 171 l 50 215 l 92 214 l 106 228 q 105 396 106 313 q 106 564 104 479 l 90 576 l 44 575 q 41 588 43 581 q 39 601 39 594 l 39 818 q 38 843 39 828 q 39 874 38 858 q 45 902 40 889 q 60 919 50 915 z "},"E":{"ha":571,"x_min":28,"x_max":496,"o":"m 488 913 q 485 871 486 900 q 483 804 485 842 q 481 727 482 767 q 478 653 479 688 q 475 597 476 619 q 472 571 474 574 q 439 567 457 567 l 415 567 l 408 572 q 408 582 408 575 q 406 596 408 589 q 401 608 404 603 q 393 613 399 613 l 326 613 q 287 608 308 613 q 247 601 265 604 q 251 567 250 586 q 264 535 253 549 q 320 535 289 540 q 378 526 351 529 q 381 515 379 521 q 383 506 383 510 q 380 440 383 472 q 383 375 376 407 q 358 369 376 371 q 317 368 339 368 q 274 368 294 368 q 244 368 254 368 q 235 351 239 361 q 231 332 231 340 q 232 300 231 317 q 242 268 233 283 l 281 268 q 324 268 301 268 q 368 271 347 268 q 383 290 378 278 q 392 313 389 301 q 404 316 397 314 q 418 318 411 318 l 483 318 q 494 285 494 303 q 494 251 494 268 q 495 199 494 235 q 494 124 496 163 q 486 53 492 85 q 469 17 481 22 q 263 15 365 25 q 56 6 161 6 q 42 6 49 6 q 28 10 35 7 q 40 314 32 161 l 47 319 l 75 319 l 85 328 q 89 550 89 438 q 90 576 89 564 q 87 597 90 588 q 75 612 83 606 q 50 619 67 618 q 41 685 40 650 q 42 753 42 721 l 43 915 q 53 919 47 917 q 61 922 58 922 q 264 919 164 922 q 467 926 364 917 l 488 913 z "},"F":{"ha":546,"x_min":29,"x_max":497,"o":"m 178 928 q 333 924 256 928 q 489 924 410 921 q 497 885 497 910 q 496 843 496 860 q 493 713 496 778 q 485 583 490 649 q 476 578 482 581 q 467 576 469 576 q 446 575 458 576 q 425 581 433 574 l 415 614 q 401 621 408 617 q 386 625 393 625 q 300 622 343 625 q 214 622 257 619 q 206 583 206 603 q 225 531 206 554 q 283 532 253 533 q 340 540 314 531 q 342 526 342 533 q 343 511 343 518 q 343 486 343 503 q 342 451 343 469 q 340 417 342 433 q 338 394 339 401 q 292 390 310 393 q 263 376 275 386 q 244 350 251 367 q 228 307 236 333 l 238 275 l 275 250 q 280 239 278 244 q 282 231 282 233 q 281 183 282 214 q 280 120 281 153 q 276 59 279 88 q 269 19 274 31 q 240 19 254 22 q 215 15 226 15 q 129 14 171 15 q 44 0 88 13 q 33 37 36 14 q 29 85 29 60 q 30 136 29 111 q 31 179 31 161 l 31 225 l 39 233 q 77 258 67 231 q 90 321 88 285 q 89 394 92 357 q 86 453 86 432 q 86 542 86 499 q 75 631 86 586 l 47 638 q 42 668 42 649 q 47 783 42 726 q 50 897 53 839 l 61 918 q 119 924 89 921 q 178 928 150 928 z "},"G":{"ha":642,"x_min":29,"x_max":596,"o":"m 186 924 q 319 917 249 924 q 447 890 389 910 q 465 915 460 897 q 525 921 496 922 q 585 928 554 919 q 596 881 596 910 q 596 831 596 853 q 596 776 596 817 q 594 692 596 736 q 590 612 593 649 q 582 568 588 575 q 517 571 546 575 q 453 567 488 567 q 432 569 443 567 q 409 604 424 586 q 374 622 394 622 q 207 572 271 622 q 143 415 143 522 q 150 349 143 382 q 172 291 157 317 q 214 250 188 265 q 278 235 240 235 q 290 238 281 235 q 308 246 299 242 q 327 254 318 250 q 339 261 336 258 l 339 290 l 276 299 q 269 316 272 304 q 266 340 267 328 q 265 365 265 353 q 264 385 264 378 q 265 408 264 396 q 269 431 267 419 q 418 444 338 440 q 568 449 499 449 l 590 446 q 593 397 592 422 q 594 349 594 372 l 594 303 q 571 238 578 272 q 563 167 564 203 q 564 93 563 131 q 564 21 565 56 q 518 10 549 14 q 472 7 488 7 q 451 10 461 7 q 432 11 442 13 l 421 72 l 400 72 q 314 23 357 44 q 218 1 271 1 q 104 32 143 1 q 49 111 65 63 q 31 218 32 160 q 29 333 29 276 q 37 476 29 406 q 44 617 44 546 l 43 618 q 55 696 47 644 q 78 798 63 747 q 120 886 94 849 q 186 924 146 924 z "},"H":{"ha":681,"x_min":35,"x_max":624,"o":"m 64 919 q 164 923 114 918 q 265 928 214 928 q 273 925 268 928 q 281 921 278 922 q 297 792 290 858 q 303 663 303 726 q 300 653 303 658 q 297 643 297 647 l 268 633 q 249 575 250 610 q 246 514 249 540 l 254 497 q 312 499 283 499 q 363 508 340 500 q 399 536 385 517 q 413 593 413 556 q 408 612 413 599 q 401 631 404 625 q 384 670 389 636 q 378 745 379 704 q 377 825 376 786 q 378 879 378 864 q 382 890 378 882 q 388 900 386 897 q 490 908 438 904 q 590 913 542 913 q 605 910 597 913 q 618 906 613 907 q 619 782 618 846 q 611 660 621 718 l 575 632 q 567 597 571 621 q 559 540 563 572 q 553 470 556 507 q 550 399 551 433 q 548 337 549 365 q 547 293 547 308 q 551 281 547 290 q 558 268 556 272 l 617 269 q 621 260 618 265 q 624 250 624 254 q 623 201 624 235 q 620 129 622 167 q 613 58 618 92 q 601 13 608 25 q 499 8 550 15 q 396 1 449 1 q 386 5 393 1 q 376 10 379 8 q 378 71 379 38 q 375 139 376 104 q 374 206 374 174 q 381 263 375 238 q 391 288 383 279 q 399 318 399 297 q 383 374 399 346 l 288 364 l 265 346 l 264 311 q 274 288 264 297 q 296 271 285 278 q 298 254 297 263 q 299 238 299 246 q 299 188 299 221 q 297 121 299 156 q 292 56 296 86 q 282 15 289 26 q 183 8 233 11 q 85 6 133 6 q 62 6 74 6 q 39 7 50 6 q 37 94 39 51 q 35 181 35 136 q 35 206 35 190 q 43 229 35 221 q 90 268 76 242 q 106 327 103 294 q 106 395 108 360 q 103 460 103 431 q 103 498 103 476 q 103 540 104 519 q 99 581 103 561 q 88 615 96 600 q 59 656 67 618 q 49 740 51 693 q 49 833 47 788 q 50 900 50 879 l 64 919 l 64 919 z "},"I":{"ha":401,"x_min":31,"x_max":342,"o":"m 40 911 q 161 913 101 910 q 282 915 221 915 q 288 847 289 882 q 288 781 288 813 q 289 735 288 761 q 281 692 290 708 q 252 674 263 692 q 237 628 242 656 q 231 566 232 600 q 230 499 229 532 q 232 439 231 467 q 233 397 233 411 q 234 342 233 369 q 246 290 235 315 l 318 254 q 328 197 328 226 q 328 136 329 167 q 329 75 328 106 q 342 17 331 44 q 322 14 340 15 q 277 11 304 13 q 218 8 250 10 q 157 6 186 7 q 105 5 128 6 q 75 4 82 4 q 56 5 65 4 q 39 8 47 6 q 32 55 33 32 q 31 101 31 78 q 33 192 31 147 q 38 281 35 236 l 40 286 l 82 289 q 89 322 86 296 q 93 382 92 347 q 94 456 94 417 q 94 533 94 496 q 94 599 94 569 q 94 642 94 628 q 89 657 94 644 q 81 674 83 669 l 47 692 q 39 736 42 710 q 35 791 36 763 q 35 847 35 819 q 35 893 35 874 q 37 902 35 897 q 40 911 39 907 z "},"J":{"ha":590,"x_min":33,"x_max":535,"o":"m 39 336 q 63 345 46 342 q 100 351 81 349 q 138 353 119 353 q 167 354 157 354 q 178 351 169 354 q 189 346 186 347 q 221 269 203 304 q 279 210 239 233 q 312 260 301 225 q 326 338 322 296 q 330 420 331 379 q 329 486 329 461 q 325 581 329 535 q 318 675 321 628 q 299 686 311 681 q 272 697 286 692 q 244 706 257 701 q 222 713 231 710 q 212 750 215 725 q 208 803 208 775 q 207 859 207 832 q 207 903 207 886 q 221 908 213 906 q 232 911 229 911 q 379 917 307 911 q 525 924 451 924 q 534 869 535 903 q 533 813 533 836 q 529 748 533 772 q 518 710 525 724 q 503 689 511 696 q 487 675 494 682 q 474 658 479 668 q 465 628 468 647 q 462 509 458 572 q 465 388 465 446 q 467 314 465 364 q 469 210 468 264 q 467 109 469 156 q 456 47 464 63 q 418 37 442 43 q 369 24 394 31 q 319 14 343 18 q 281 10 294 10 q 207 14 243 10 q 132 25 171 18 q 115 16 125 19 q 94 13 104 13 q 66 11 83 13 q 39 18 49 10 q 35 81 36 50 q 33 143 33 113 q 35 240 33 192 q 39 336 36 288 z "},"K":{"ha":665,"x_min":31,"x_max":631,"o":"m 31 890 q 66 899 35 896 q 136 905 97 903 q 211 908 175 907 q 258 908 247 908 q 272 874 265 899 q 283 819 278 849 q 290 763 288 790 q 293 722 293 736 q 291 685 293 699 q 265 656 289 671 q 255 610 257 636 q 253 561 253 583 q 257 537 253 549 q 265 514 261 525 q 297 545 278 518 q 335 606 317 572 q 367 670 354 639 q 381 714 381 701 q 390 808 381 763 q 410 901 399 853 l 425 918 l 456 918 q 494 918 468 918 q 549 917 521 918 q 601 911 578 915 q 631 897 624 907 q 626 867 629 890 q 621 816 624 843 q 615 767 618 789 q 611 743 613 744 q 569 709 600 724 q 519 681 539 694 q 498 657 513 676 q 465 610 483 638 q 426 552 446 583 q 391 492 407 521 q 365 442 375 464 q 354 414 354 421 q 364 397 354 408 q 386 371 374 385 q 411 344 399 357 q 429 326 424 332 q 447 302 436 317 q 470 273 458 288 q 493 246 482 258 q 513 228 504 233 q 524 222 515 225 q 543 215 533 218 q 563 208 553 211 q 576 203 572 204 q 583 176 579 197 q 591 128 588 154 q 597 78 594 101 q 600 49 600 56 q 596 33 600 42 q 589 18 592 25 q 530 10 558 17 q 474 3 501 3 q 453 2 465 3 q 426 1 440 1 q 401 3 413 1 q 382 8 389 4 q 372 35 376 18 q 365 72 368 53 q 361 108 363 90 q 360 136 360 125 l 360 171 q 372 201 372 186 q 359 234 372 215 q 328 272 346 253 q 290 306 310 290 q 260 328 271 321 l 243 304 l 242 231 q 244 218 242 225 q 250 206 247 211 q 273 191 263 200 q 283 168 283 182 q 283 129 283 153 q 282 80 283 106 q 277 32 281 54 q 267 0 274 10 q 217 1 253 0 q 143 5 182 3 q 72 10 104 7 q 31 17 39 13 q 32 51 31 25 q 35 107 33 78 q 40 160 38 136 q 46 188 43 183 q 80 211 69 192 q 93 256 90 231 q 94 308 96 282 q 92 354 92 335 q 93 423 92 376 q 92 517 94 469 q 80 604 90 565 q 47 651 69 643 q 38 699 40 668 q 33 766 35 731 q 31 835 32 801 q 31 890 31 869 z "},"L":{"ha":493,"x_min":28,"x_max":446,"o":"m 56 929 q 170 920 113 919 q 286 928 228 921 q 289 920 286 925 q 292 913 292 915 q 291 874 292 901 q 289 817 290 847 q 285 763 288 788 q 281 731 283 738 q 256 716 271 724 q 235 700 242 708 q 224 668 228 693 q 217 610 219 643 q 215 538 215 576 q 214 463 214 499 q 215 399 214 428 q 215 357 215 369 l 215 271 q 228 259 219 263 q 247 256 238 256 q 274 256 258 256 q 304 259 289 257 q 333 266 319 261 q 356 279 347 271 l 356 307 q 370 315 360 311 q 392 322 381 318 q 413 326 403 325 q 431 328 424 328 l 443 326 q 445 299 444 313 q 446 272 446 286 q 445 213 446 246 q 442 145 444 179 q 435 78 439 111 q 424 21 431 46 q 253 10 339 14 q 83 6 168 6 q 54 4 72 6 q 28 11 36 3 q 31 61 29 25 q 35 136 33 97 q 40 208 38 175 q 46 247 43 240 l 82 268 q 93 297 92 282 q 94 329 94 311 l 94 468 q 95 560 94 513 q 93 649 96 607 q 85 675 90 665 q 74 693 81 685 q 63 710 68 701 q 57 731 58 718 q 50 822 50 775 q 47 914 50 869 l 56 929 l 56 929 z "},"M":{"ha":851,"x_min":29,"x_max":793,"o":"m 38 922 q 128 917 82 918 q 219 919 175 917 q 257 823 235 871 q 293 726 279 775 q 341 540 318 631 q 399 356 364 449 l 421 347 q 457 625 443 486 q 492 904 471 764 q 507 908 499 906 q 522 910 515 910 q 647 915 586 910 q 771 925 708 919 q 778 909 774 919 q 783 894 783 899 q 783 849 783 879 q 782 786 783 819 q 778 724 781 753 q 772 686 776 696 q 744 684 758 685 q 715 681 731 683 q 706 633 706 661 q 706 545 706 603 q 708 426 706 488 q 717 311 711 365 q 736 235 724 257 l 769 222 q 779 188 775 214 q 785 129 783 161 q 790 67 788 97 q 793 24 792 38 q 783 20 788 22 q 772 18 778 18 q 652 16 711 18 q 531 6 593 14 q 525 37 528 13 q 520 88 522 61 q 517 140 518 115 q 517 174 517 165 q 517 195 517 185 q 522 215 517 206 l 568 229 q 576 282 574 242 q 580 369 579 322 q 581 461 581 417 q 582 525 582 506 l 561 535 q 540 465 550 515 q 520 358 529 415 q 504 248 511 301 q 493 167 497 194 q 390 150 443 150 l 357 151 q 290 368 325 258 q 207 579 256 478 l 185 579 q 187 501 186 554 q 192 391 188 447 q 204 288 196 335 q 228 231 213 242 l 263 235 l 268 229 q 274 133 269 181 q 279 39 279 86 q 274 17 279 28 q 176 15 224 18 q 79 13 128 13 l 51 14 q 47 96 50 54 q 43 179 43 138 q 44 200 43 190 q 47 221 44 210 l 88 231 q 93 244 90 236 q 96 256 96 253 q 97 355 96 292 q 97 485 99 418 q 92 610 96 551 q 78 697 88 669 q 53 703 65 699 q 31 717 40 707 q 31 810 33 764 q 29 903 29 856 q 32 912 29 906 q 38 922 35 918 z "},"N":{"ha":692,"x_min":35,"x_max":636,"o":"m 35 138 q 69 181 57 149 q 88 257 82 214 q 96 351 94 300 q 97 450 97 401 q 94 540 96 499 q 93 606 93 581 q 90 622 93 613 q 85 639 88 632 q 64 653 78 643 q 50 672 50 663 q 53 795 54 731 q 68 917 53 860 q 97 919 82 918 q 126 919 111 919 q 213 917 169 919 q 297 915 256 915 q 336 772 315 846 q 374 621 357 697 q 404 469 392 544 q 418 321 417 393 l 432 331 q 439 452 436 392 q 442 575 442 513 q 443 613 442 593 q 442 649 444 632 q 431 679 439 665 q 401 700 422 693 q 395 739 397 713 q 393 795 393 765 q 393 853 393 825 q 393 897 393 881 q 397 908 393 900 q 403 918 401 917 q 510 922 456 921 q 618 924 564 924 q 627 921 622 924 q 636 918 632 918 q 636 897 636 915 q 636 855 636 879 q 635 802 636 831 q 634 749 635 774 q 632 707 633 724 q 629 688 631 690 l 568 682 q 556 635 560 664 q 550 574 551 606 q 549 511 549 542 q 549 458 549 481 q 548 393 549 431 q 561 331 547 356 l 603 321 q 610 291 608 310 q 613 251 613 272 q 613 210 614 231 q 613 175 613 189 q 613 137 613 161 q 613 86 614 113 q 610 38 613 60 q 599 6 607 15 q 476 10 538 13 q 354 18 415 8 q 317 167 332 93 q 288 316 301 242 q 262 464 275 390 q 232 613 249 538 l 214 604 q 209 447 213 525 q 206 290 206 369 q 210 251 206 269 l 242 233 q 247 193 247 215 q 244 102 247 147 q 240 11 242 57 q 212 6 231 7 q 172 4 193 4 q 129 4 150 4 q 96 4 108 4 q 70 6 83 4 q 43 7 57 7 l 36 18 q 40 78 38 46 q 35 138 42 111 z "},"O":{"ha":618,"x_min":32,"x_max":567,"o":"m 175 467 q 175 403 175 436 q 183 344 175 371 q 213 301 192 318 q 276 283 235 283 q 402 331 368 283 q 436 465 436 379 q 434 526 436 490 q 422 592 432 561 q 391 646 411 624 q 335 668 371 668 q 276 663 304 668 q 225 645 247 658 q 190 608 203 632 q 176 546 176 583 l 175 467 m 181 931 q 365 922 276 928 q 547 893 453 915 q 560 798 554 846 q 567 704 567 750 q 567 608 567 668 q 566 480 567 549 q 561 338 565 411 q 549 201 557 265 q 526 88 540 138 q 492 17 513 39 q 428 7 460 11 q 364 3 396 3 q 285 2 326 3 q 204 6 244 1 q 126 22 164 10 q 58 57 89 33 q 35 249 38 151 q 32 442 32 346 q 33 543 32 479 q 40 674 33 607 q 63 799 47 742 q 107 882 78 857 q 143 908 124 897 q 181 931 163 919 z "},"P":{"ha":579,"x_min":26,"x_max":529,"o":"m 42 907 q 119 906 79 904 q 200 910 160 907 q 280 915 240 913 q 358 918 319 918 q 466 893 431 918 q 515 827 501 868 q 528 733 529 786 q 528 624 528 681 q 515 474 528 524 q 470 403 503 424 q 381 378 438 382 q 239 367 325 375 q 215 332 222 351 q 208 292 208 313 q 210 271 208 281 q 215 251 211 261 l 222 244 l 256 246 l 267 239 q 270 128 267 182 q 283 18 274 74 q 249 11 276 14 q 188 6 221 8 q 126 3 156 4 q 83 3 96 3 q 60 3 69 3 q 39 11 51 4 q 51 242 47 126 q 76 247 61 247 l 89 265 q 88 314 89 282 q 87 383 88 346 q 84 462 86 421 q 79 539 82 503 q 73 603 76 575 q 64 646 69 632 q 38 665 46 651 q 28 697 31 679 q 28 733 26 714 q 29 768 29 751 q 29 839 29 803 q 42 907 29 875 m 231 497 q 237 481 231 490 q 249 468 243 472 q 341 497 313 472 q 369 586 369 522 q 347 643 369 631 q 286 656 324 656 l 242 643 q 235 639 238 642 q 229 635 232 636 l 231 497 z "},"Q":{"ha":658,"x_min":29,"x_max":657,"o":"m 225 914 q 380 908 304 914 q 535 893 456 903 q 569 797 560 847 q 579 696 579 747 q 569 419 579 557 q 558 143 558 282 q 574 104 558 128 q 608 57 589 81 q 642 14 626 33 q 657 -14 657 -6 q 638 -59 657 -46 q 592 -77 618 -72 q 541 -85 567 -82 q 503 -99 515 -87 q 481 -78 496 -93 q 451 -45 467 -62 q 420 -12 435 -28 q 397 8 406 3 q 306 6 354 8 q 210 6 257 3 q 119 22 163 8 q 42 69 75 36 q 33 132 36 101 q 29 194 29 163 q 36 442 29 319 q 43 689 43 564 q 51 780 43 739 q 78 851 58 821 q 134 897 99 881 q 225 914 169 914 m 142 393 q 148 337 142 368 q 168 279 154 306 q 205 235 182 253 q 260 217 228 217 l 271 218 q 258 253 268 236 q 249 286 249 269 q 259 319 249 303 q 281 347 269 335 l 332 357 q 361 311 349 335 q 390 265 374 288 q 416 279 406 267 q 433 309 426 292 q 444 344 440 326 q 447 375 447 363 q 443 421 447 399 q 435 467 439 443 q 423 535 429 504 q 403 589 417 567 q 363 623 389 611 q 290 635 336 635 q 208 613 238 635 q 163 556 178 590 q 145 478 149 521 q 142 393 142 435 z "},"R":{"ha":646,"x_min":28,"x_max":593,"o":"m 264 682 q 251 647 257 665 q 244 610 244 629 q 248 588 244 603 q 257 559 251 574 q 270 533 263 544 q 286 521 278 521 q 335 531 311 521 q 376 558 358 542 q 403 598 393 575 q 414 646 414 621 q 403 667 414 657 q 376 684 392 676 q 346 696 361 692 q 322 700 331 700 q 292 697 307 700 q 264 682 276 693 m 43 893 q 60 926 43 917 q 103 938 78 936 q 154 938 128 940 q 199 936 181 936 q 364 934 296 936 q 474 908 432 932 q 534 826 515 883 q 553 660 553 769 q 515 497 553 560 q 381 399 478 435 q 408 372 390 382 q 432 344 425 361 q 438 319 436 336 q 444 286 440 303 q 453 256 447 269 q 471 242 458 243 l 490 253 l 492 313 q 514 331 506 324 q 530 341 522 338 q 547 345 538 344 q 576 346 557 346 q 585 344 579 346 q 593 342 590 343 l 593 265 q 592 163 593 210 q 574 83 590 117 q 522 29 558 49 q 417 10 486 10 q 368 35 383 10 q 345 99 353 61 q 334 183 338 138 q 323 266 331 228 q 297 330 315 304 q 244 356 279 356 l 236 356 q 228 313 231 335 q 226 268 226 290 q 231 224 226 246 l 242 215 l 265 217 l 274 211 q 281 159 279 185 q 282 106 282 133 l 281 18 q 249 10 275 14 q 192 5 224 7 q 131 2 161 3 q 86 1 100 1 l 69 3 l 61 11 l 58 56 q 58 152 58 100 q 65 247 57 204 l 100 250 l 106 258 q 104 418 106 333 q 89 578 103 503 q 67 614 83 601 q 35 642 51 626 q 28 676 29 660 q 28 713 28 693 q 35 803 28 757 q 43 893 43 849 z "},"S":{"ha":590,"x_min":28,"x_max":549,"o":"m 533 619 q 481 618 506 619 q 432 617 457 617 q 413 618 422 617 q 393 622 403 619 l 388 628 l 383 665 l 372 675 l 303 679 q 269 669 282 679 q 247 643 256 658 q 236 609 239 628 q 233 574 233 590 q 244 532 233 546 q 271 512 254 518 q 308 506 288 506 q 349 506 328 506 q 392 507 368 506 q 439 508 415 508 q 484 502 463 507 q 522 483 506 497 q 535 430 532 457 q 538 375 538 403 q 538 289 538 339 q 534 188 539 239 q 515 92 529 138 q 471 19 500 46 q 438 17 467 19 q 372 10 408 14 q 300 2 335 6 q 250 -1 265 -1 q 189 1 222 -1 q 126 15 156 4 q 78 48 97 26 q 58 108 58 69 q 58 162 58 125 q 57 239 57 199 q 60 316 57 279 q 71 368 63 353 q 129 368 100 367 q 188 369 158 369 q 219 364 207 369 q 218 324 218 346 q 224 284 218 303 q 242 253 229 265 q 281 240 256 240 q 321 251 304 240 q 354 279 338 263 q 357 314 356 296 q 358 349 358 332 q 337 395 358 379 q 285 418 315 411 q 222 425 254 425 q 169 425 190 425 q 123 431 146 425 q 76 442 100 438 q 35 527 39 482 q 31 618 31 572 q 29 675 31 642 q 29 744 28 708 q 35 815 31 779 q 53 877 40 850 q 87 922 65 904 q 143 939 108 939 q 194 937 171 939 q 240 931 218 935 q 285 926 263 928 q 335 924 307 924 q 383 910 356 924 q 429 883 410 896 l 438 889 q 449 931 438 911 q 492 924 472 929 q 536 914 513 918 q 549 871 549 894 q 548 801 549 829 q 547 749 547 774 q 547 696 547 724 q 546 628 546 668 l 533 619 z "},"T":{"ha":664,"x_min":31,"x_max":622,"o":"m 42 921 q 291 912 167 918 q 539 914 415 906 q 562 917 547 914 q 590 921 576 921 q 613 917 603 921 q 622 899 622 913 q 621 746 622 826 q 608 593 619 665 l 597 581 q 567 576 582 578 q 536 574 551 574 q 507 580 517 574 q 490 606 497 586 q 440 615 464 613 q 390 621 417 618 q 381 590 385 614 q 375 531 378 565 q 371 458 372 497 q 369 383 369 419 q 368 318 368 347 q 368 276 368 289 q 368 247 368 267 q 376 219 368 228 l 432 219 q 441 203 439 213 q 443 188 443 194 q 443 147 443 174 q 441 93 443 121 q 435 40 439 65 q 424 6 431 15 l 314 6 q 244 7 279 6 q 175 11 210 8 q 166 28 169 18 q 163 49 163 39 q 163 115 163 79 q 168 181 164 151 l 178 185 l 218 183 q 228 226 224 196 q 235 294 232 256 q 239 378 238 333 q 241 463 240 422 q 242 538 242 504 q 242 590 242 572 q 199 594 221 588 q 158 600 178 600 q 133 588 139 600 q 121 558 126 575 q 101 563 114 560 q 73 572 88 567 q 47 582 58 576 q 31 593 35 588 q 32 758 33 674 q 42 921 31 843 z "},"U":{"ha":678,"x_min":32,"x_max":635,"o":"m 39 913 q 167 907 104 907 q 294 906 229 907 q 297 894 296 900 q 299 881 299 888 q 297 847 299 874 q 294 791 296 821 q 291 738 293 761 q 289 714 289 714 l 247 706 q 234 647 239 682 q 227 576 229 613 q 224 503 225 539 q 224 440 224 467 q 225 372 224 404 q 246 308 226 340 q 280 294 265 297 q 318 292 294 292 q 386 322 364 292 q 416 394 408 351 q 422 483 424 436 q 421 564 421 529 q 422 592 421 582 q 423 610 424 603 q 418 625 422 618 q 401 643 414 632 q 401 763 403 703 q 399 882 400 822 q 401 897 399 889 q 406 910 403 904 q 503 910 454 907 q 603 914 553 914 l 631 911 l 635 763 q 626 732 635 746 q 603 707 617 718 q 573 686 589 696 q 544 668 557 676 q 533 619 536 651 q 529 553 529 588 q 530 484 529 518 q 531 429 531 450 q 531 245 531 335 q 519 61 531 156 q 449 31 490 42 q 363 14 408 19 q 274 7 318 8 q 194 6 229 6 q 144 18 167 6 q 94 33 121 31 q 81 65 88 46 q 74 99 74 83 q 82 356 74 228 q 90 613 90 485 q 87 629 90 619 q 81 646 83 639 l 42 657 q 35 700 38 667 q 33 772 33 733 q 32 845 32 810 q 32 896 32 881 q 35 905 32 900 q 39 913 39 910 z "},"V":{"ha":743,"x_min":29,"x_max":690,"o":"m 326 924 q 331 908 329 917 q 332 893 332 900 q 328 696 332 793 q 319 688 325 690 q 308 681 314 686 q 297 666 301 676 q 293 635 293 656 q 297 546 293 604 q 306 424 300 488 q 322 305 313 361 q 343 224 332 249 q 354 260 347 232 q 369 326 361 288 q 386 410 378 365 q 401 494 394 454 q 411 564 407 533 q 415 606 415 594 l 415 643 q 404 653 410 646 q 399 668 399 661 q 399 724 399 688 q 402 799 400 761 q 408 872 404 838 q 418 921 411 906 q 539 922 479 919 q 660 925 599 925 q 675 922 667 925 q 690 918 683 919 q 689 860 689 897 q 688 783 689 822 q 683 710 688 743 q 667 663 678 676 q 633 644 651 654 q 601 624 614 635 q 581 574 592 615 q 558 475 569 533 q 535 347 546 417 q 514 214 524 278 q 497 99 504 150 q 488 25 490 49 q 428 8 464 11 q 365 6 392 6 q 306 10 336 6 q 246 21 276 14 q 201 253 222 138 q 161 488 179 369 q 156 525 158 497 q 149 583 153 553 q 142 639 146 614 q 138 668 139 664 q 110 706 125 692 q 79 729 94 719 q 51 747 64 739 q 29 768 38 756 q 32 831 29 796 q 46 893 35 867 q 64 899 50 894 q 93 910 78 904 q 122 919 108 915 q 139 924 136 924 l 326 924 z "},"W":{"ha":818,"x_min":29,"x_max":771,"o":"m 47 913 q 97 913 60 913 q 174 913 133 914 q 247 910 214 913 q 288 900 281 907 q 285 782 288 840 q 279 664 282 724 q 258 653 276 657 q 231 646 239 649 q 210 616 217 642 q 202 559 204 590 q 201 498 200 528 q 201 454 201 468 q 201 408 201 438 q 201 346 200 378 q 204 285 201 314 q 213 243 207 257 q 232 299 219 256 q 258 400 244 342 q 288 526 272 458 q 317 655 303 593 q 342 766 331 717 q 358 838 353 815 q 406 850 381 850 q 435 846 419 850 q 444 783 438 826 q 460 686 451 740 q 477 573 468 632 q 495 463 486 514 q 513 376 504 413 q 529 331 522 339 q 551 479 551 400 q 551 632 551 558 q 551 667 551 647 q 538 697 551 686 l 504 700 q 499 732 500 715 q 497 764 497 749 l 497 890 q 501 901 497 893 q 506 911 506 908 l 761 910 q 767 894 764 904 q 769 879 769 885 l 769 731 q 770 692 769 711 q 763 654 771 672 l 682 656 q 671 618 676 644 q 661 557 665 592 q 654 483 657 522 q 649 406 651 443 q 647 340 647 369 q 646 294 646 310 q 647 274 646 283 q 656 254 649 264 q 682 251 663 250 q 711 250 701 251 l 717 243 l 714 22 q 679 13 703 15 q 628 9 656 10 q 574 8 600 8 q 535 8 549 8 q 513 12 524 8 q 490 18 501 15 q 474 85 483 40 q 453 186 464 131 q 432 301 443 242 q 412 410 421 360 q 395 494 403 460 q 383 532 388 528 q 342 274 368 401 q 294 17 315 147 q 239 6 268 7 q 182 6 210 6 q 124 6 153 6 q 67 14 96 7 q 58 51 60 26 q 54 106 56 76 q 53 162 53 135 q 54 206 54 189 q 70 216 63 214 q 83 222 78 218 q 92 235 89 226 q 96 263 96 243 q 94 441 96 346 q 81 618 92 536 q 67 638 79 632 q 42 647 54 644 q 32 769 29 704 q 33 893 35 835 l 47 913 l 47 913 z "},"X":{"ha":783,"x_min":32,"x_max":739,"o":"m 313 919 q 324 915 315 919 q 338 908 333 911 q 352 810 344 860 q 369 710 360 760 l 361 686 q 339 668 344 683 q 360 642 344 656 q 388 619 375 629 q 426 648 410 628 q 454 688 442 668 q 439 699 449 696 q 421 704 429 703 l 415 718 q 421 756 417 725 q 431 821 425 786 q 442 885 436 856 q 454 919 449 915 q 512 917 472 918 q 593 916 551 917 q 669 913 635 915 q 714 906 704 910 l 715 901 q 710 856 715 892 q 697 779 704 819 q 682 706 689 739 q 671 667 675 672 q 624 638 653 658 q 567 591 594 617 q 521 538 540 565 q 501 489 501 510 q 522 430 501 468 q 574 353 543 392 q 636 285 604 315 q 692 251 668 256 q 704 230 699 244 q 713 199 710 215 q 718 166 717 182 q 719 140 719 150 q 729 90 719 111 q 739 40 739 68 q 737 24 739 32 q 728 8 735 15 q 677 7 701 8 q 629 6 653 6 q 551 12 592 6 q 469 11 510 18 l 456 21 q 433 127 446 69 q 421 235 421 185 q 424 256 421 246 q 433 274 428 267 l 429 288 q 409 305 421 296 q 386 318 397 314 q 359 304 371 314 q 336 283 347 294 l 335 268 q 328 119 335 172 q 297 42 322 67 q 222 11 272 17 q 82 6 171 6 l 50 6 q 32 58 32 28 q 37 100 32 72 q 49 157 42 128 q 63 212 56 186 q 78 250 71 238 q 94 253 85 253 q 110 253 103 253 l 119 253 q 153 301 129 271 q 201 363 176 332 q 244 422 225 394 q 264 463 264 449 q 231 508 251 479 q 188 563 211 536 q 142 611 165 590 q 99 632 118 632 q 81 689 88 654 q 69 761 74 724 q 59 835 64 799 q 50 899 54 872 l 58 917 l 313 919 z "},"Y":{"ha":643,"x_min":28,"x_max":599,"o":"m 56 911 q 76 915 67 914 q 96 917 86 917 l 235 913 l 251 901 q 239 860 244 882 q 233 818 233 838 q 246 694 233 757 l 242 685 q 224 680 233 685 q 208 668 215 675 q 235 625 219 644 q 264 582 250 606 q 283 574 272 579 q 306 568 294 568 q 332 578 319 568 q 355 603 344 589 q 374 631 365 617 q 392 656 383 646 q 372 708 374 676 q 372 773 369 739 q 374 839 374 807 q 364 893 375 871 l 382 910 q 433 914 408 913 q 483 915 458 915 q 533 913 510 915 q 579 899 556 910 q 589 860 589 879 q 594 759 589 810 q 599 656 599 708 l 596 622 q 577 613 588 617 q 556 608 567 608 q 540 610 550 608 q 517 611 529 611 q 495 609 506 611 q 481 601 485 607 q 447 514 460 568 q 427 401 435 460 q 417 285 419 342 q 414 192 414 229 l 418 181 l 450 182 q 453 175 451 179 q 456 168 456 171 q 449 91 456 131 q 439 15 443 51 q 408 10 435 11 q 350 7 382 8 q 289 6 318 6 q 251 6 260 6 q 213 10 225 6 q 197 24 201 14 q 194 49 193 33 q 196 88 196 65 q 201 145 196 124 q 215 182 207 167 q 233 211 224 197 q 250 247 242 225 q 264 301 258 268 q 269 388 269 333 q 268 425 269 407 q 264 463 267 443 q 200 496 224 476 q 158 536 176 515 q 124 577 140 557 q 82 613 107 597 q 46 628 57 614 q 31 661 35 642 q 29 703 28 681 q 31 743 31 725 q 31 785 31 761 q 33 832 31 808 q 40 876 35 856 q 56 911 44 897 z "},"Z":{"ha":589,"x_min":31,"x_max":542,"o":"m 93 906 q 132 917 101 913 q 205 924 163 921 q 297 927 247 926 q 392 928 346 928 q 475 927 438 928 q 531 928 513 926 q 541 905 540 919 q 542 881 542 890 l 540 656 q 506 612 531 642 q 449 545 481 582 q 382 469 417 508 q 319 394 347 429 q 272 332 290 358 q 253 296 253 306 q 261 279 253 285 q 281 271 269 274 q 306 267 293 268 q 325 267 318 267 q 404 275 364 267 l 428 297 l 431 308 q 453 312 442 311 q 475 313 464 313 q 485 313 481 313 q 497 310 490 313 l 500 261 q 501 208 500 244 q 500 133 501 172 q 494 58 499 93 q 478 10 489 22 l 465 8 q 382 15 424 8 q 297 21 340 21 q 176 10 238 21 q 54 -1 114 -1 l 49 -1 l 39 6 q 34 33 36 14 q 31 73 32 51 q 31 115 31 94 q 31 144 31 135 q 35 207 31 175 q 71 249 43 217 q 135 326 99 282 q 211 422 171 371 q 285 517 251 472 q 342 594 319 561 q 368 639 365 628 q 351 642 360 640 q 336 643 343 643 q 275 641 308 643 q 221 617 242 639 q 165 608 193 610 q 107 603 136 606 l 106 624 q 106 690 106 653 q 106 767 107 728 q 103 843 106 807 q 93 906 100 879 z "},"`":{"ha":349,"x_min":24,"x_max":293,"o":"m 178 1172 l 214 1174 l 228 1169 q 268 1090 250 1133 q 286 1010 286 1046 q 291 990 289 1000 q 290 972 293 979 q 249 967 272 967 l 222 967 q 174 1001 201 976 q 119 1054 146 1026 q 68 1108 92 1082 q 31 1149 44 1135 q 26 1165 28 1156 q 29 1181 24 1174 l 85 1181 l 178 1172 z "},"a":{"ha":713,"x_min":32,"x_max":671,"o":"m 321 632 q 303 618 310 632 q 293 585 296 604 q 290 548 290 567 q 289 521 289 529 q 291 445 289 482 q 293 369 293 408 l 293 350 l 307 349 q 356 358 329 349 l 356 389 q 353 483 356 435 q 339 575 350 531 q 336 587 338 578 q 332 606 335 596 q 326 624 329 617 q 321 632 324 632 m 142 914 q 310 909 226 907 q 478 911 393 911 q 494 828 483 872 q 506 747 506 783 l 504 725 q 488 707 496 719 q 479 685 479 694 q 488 651 479 681 q 508 578 496 621 q 536 486 521 536 q 565 393 551 436 q 588 319 578 350 q 601 283 599 289 q 610 280 604 282 q 618 278 615 278 l 654 281 l 660 274 q 667 150 663 213 q 671 28 671 88 q 665 4 671 15 q 613 10 639 4 q 563 17 586 17 q 488 10 526 17 q 411 3 449 3 q 376 8 392 3 q 372 80 375 44 q 368 150 368 115 l 368 176 l 382 185 l 382 189 q 374 224 382 208 q 367 257 365 239 l 276 257 q 256 233 267 246 q 242 206 244 221 l 249 188 q 276 154 274 172 q 279 108 279 136 q 275 26 279 68 q 159 24 217 28 q 43 19 101 19 q 37 31 42 22 q 32 43 32 40 q 33 150 32 97 q 40 256 35 203 l 47 264 l 78 264 q 91 296 82 269 q 111 360 100 322 q 133 440 122 397 q 153 523 144 483 q 169 592 163 563 q 175 631 175 621 q 174 651 175 642 q 168 672 174 661 l 140 685 q 134 728 136 700 q 131 785 132 756 q 129 844 129 815 q 129 890 129 872 l 131 906 l 142 914 z "},"b":{"ha":663,"x_min":28,"x_max":607,"o":"m 178 922 q 260 920 213 922 q 357 913 308 918 q 451 901 406 908 q 531 881 497 893 q 560 848 549 874 q 577 791 571 822 q 585 730 583 760 q 588 683 588 700 q 586 647 588 667 q 581 606 585 626 q 569 565 576 585 q 553 533 563 546 q 542 523 549 528 q 528 513 535 518 q 515 501 521 507 q 510 489 510 494 l 510 481 q 537 451 519 464 q 567 421 554 438 q 588 378 579 404 q 600 324 596 353 q 606 267 604 294 q 607 218 607 239 q 601 121 607 161 q 578 55 596 81 q 525 17 560 29 q 431 4 490 4 l 356 4 q 208 3 286 4 q 61 8 129 1 q 40 25 46 11 q 33 53 33 39 q 35 166 33 110 q 43 278 38 222 q 67 331 60 288 q 78 428 75 375 q 81 531 81 482 q 82 601 82 581 q 71 611 78 610 q 54 613 64 613 l 47 618 q 39 719 47 669 q 31 818 31 768 q 29 855 31 836 q 31 888 28 874 q 46 910 35 901 q 82 919 57 919 l 178 922 m 333 667 q 315 664 324 667 q 297 660 306 661 q 253 656 269 657 q 229 647 238 654 q 219 621 221 639 q 217 568 217 603 q 218 539 217 553 q 224 510 219 525 l 232 510 q 282 515 247 510 q 353 530 317 519 q 416 556 389 540 q 443 592 443 571 q 433 630 443 615 q 408 653 424 644 q 372 664 392 661 q 333 667 353 667 m 233 264 q 252 247 242 250 q 278 244 263 244 q 320 245 297 244 q 365 251 343 246 q 404 267 386 257 q 432 296 422 276 q 421 347 432 328 q 391 378 410 367 q 348 392 372 389 q 297 396 324 396 q 263 394 279 396 q 232 376 246 392 l 233 264 z "},"c":{"ha":596,"x_min":29,"x_max":549,"o":"m 107 894 q 219 922 161 919 q 335 924 276 924 q 383 914 356 924 q 429 896 410 904 l 438 901 q 449 931 438 917 q 492 924 472 929 q 536 914 513 918 q 549 871 549 894 q 546 706 549 788 q 543 543 543 625 l 531 540 q 485 540 518 540 q 417 541 453 540 q 351 542 382 542 q 314 544 321 543 q 290 593 303 572 q 243 614 278 614 q 190 594 210 614 q 162 544 171 574 q 150 483 153 515 q 147 426 147 450 q 165 324 147 368 q 231 243 183 279 q 256 240 242 242 q 283 238 269 238 q 302 242 290 238 q 321 249 314 246 q 346 285 336 267 q 365 325 356 304 q 433 335 394 336 q 504 342 472 335 q 514 317 513 331 q 515 292 515 304 q 510 206 515 249 q 507 121 506 164 q 456 62 483 85 q 398 26 429 39 q 331 10 367 14 q 254 6 296 6 q 85 63 142 6 q 29 229 29 119 q 29 326 29 269 q 31 446 29 382 q 37 576 32 510 q 50 703 42 643 q 72 814 58 764 q 107 894 86 864 z "},"d":{"ha":603,"x_min":38,"x_max":556,"o":"m 215 343 q 216 324 215 339 q 219 294 217 310 q 226 267 221 279 q 238 254 231 254 q 261 256 246 254 q 293 261 276 258 q 325 267 310 264 q 349 272 340 269 q 382 292 367 278 q 408 324 397 306 q 426 364 419 343 q 433 403 433 385 q 401 532 433 485 q 281 579 368 579 q 250 578 267 579 q 222 567 233 576 q 215 515 217 543 q 213 456 213 486 q 214 396 213 425 q 215 343 215 367 m 60 919 q 180 908 121 904 q 292 916 239 911 q 392 919 346 921 q 470 896 438 918 q 522 821 503 874 q 540 671 540 768 q 548 529 540 600 q 556 386 556 458 q 529 199 556 272 q 451 84 503 126 q 322 25 400 42 q 143 8 244 8 q 101 8 124 8 q 58 13 78 7 l 40 33 q 38 56 38 47 q 41 132 38 93 q 44 210 44 171 l 50 215 l 92 214 l 106 228 q 105 396 106 313 q 106 564 104 479 l 90 576 l 44 575 q 41 588 43 581 q 39 601 39 594 l 39 818 q 38 843 39 828 q 39 874 38 858 q 45 902 40 889 q 60 919 50 915 z "},"e":{"ha":571,"x_min":28,"x_max":496,"o":"m 488 913 q 485 871 486 900 q 483 804 485 842 q 481 727 482 767 q 478 653 479 688 q 475 597 476 619 q 472 571 474 574 q 439 567 457 567 l 415 567 l 408 572 q 408 582 408 575 q 406 596 408 589 q 401 608 404 603 q 393 613 399 613 l 326 613 q 287 608 308 613 q 247 601 265 604 q 251 567 250 586 q 264 535 253 549 q 320 535 289 540 q 378 526 351 529 q 381 515 379 521 q 383 506 383 510 q 380 440 383 472 q 383 375 376 407 q 358 369 376 371 q 317 368 339 368 q 274 368 294 368 q 244 368 254 368 q 235 351 239 361 q 231 332 231 340 q 232 300 231 317 q 242 268 233 283 l 281 268 q 324 268 301 268 q 368 271 347 268 q 383 290 378 278 q 392 313 389 301 q 404 316 397 314 q 418 318 411 318 l 483 318 q 494 285 494 303 q 494 251 494 268 q 495 199 494 235 q 494 124 496 163 q 486 53 492 85 q 469 17 481 22 q 263 15 365 25 q 56 6 161 6 q 42 6 49 6 q 28 10 35 7 q 40 314 32 161 l 47 319 l 75 319 l 85 328 q 89 550 89 438 q 90 576 89 564 q 87 597 90 588 q 75 612 83 606 q 50 619 67 618 q 41 685 40 650 q 42 753 42 721 l 43 915 q 53 919 47 917 q 61 922 58 922 q 264 919 164 922 q 467 926 364 917 l 488 913 z "},"f":{"ha":546,"x_min":29,"x_max":497,"o":"m 178 928 q 333 924 256 928 q 489 924 410 921 q 497 885 497 910 q 496 843 496 860 q 493 713 496 778 q 485 583 490 649 q 476 578 482 581 q 467 576 469 576 q 446 575 458 576 q 425 581 433 574 l 415 614 q 401 621 408 617 q 386 625 393 625 q 300 622 343 625 q 214 622 257 619 q 206 583 206 603 q 225 531 206 554 q 283 532 253 533 q 340 540 314 531 q 342 526 342 533 q 343 511 343 518 q 343 486 343 503 q 342 451 343 469 q 340 417 342 433 q 338 394 339 401 q 292 390 310 393 q 263 376 275 386 q 244 350 251 367 q 228 307 236 333 l 238 275 l 275 250 q 280 239 278 244 q 282 231 282 233 q 281 183 282 214 q 280 120 281 153 q 276 59 279 88 q 269 19 274 31 q 240 19 254 22 q 215 15 226 15 q 129 14 171 15 q 44 0 88 13 q 33 37 36 14 q 29 85 29 60 q 30 136 29 111 q 31 179 31 161 l 31 225 l 39 233 q 77 258 67 231 q 90 321 88 285 q 89 394 92 357 q 86 453 86 432 q 86 542 86 499 q 75 631 86 586 l 47 638 q 42 668 42 649 q 47 783 42 726 q 50 897 53 839 l 61 918 q 119 924 89 921 q 178 928 150 928 z "},"g":{"ha":642,"x_min":29,"x_max":596,"o":"m 186 924 q 319 917 249 924 q 447 890 389 910 q 465 915 460 897 q 525 921 496 922 q 585 928 554 919 q 596 881 596 910 q 596 831 596 853 q 596 776 596 817 q 594 692 596 736 q 590 612 593 649 q 582 568 588 575 q 517 571 546 575 q 453 567 488 567 q 432 569 443 567 q 409 604 424 586 q 374 622 394 622 q 207 572 271 622 q 143 415 143 522 q 150 349 143 382 q 172 291 157 317 q 214 250 188 265 q 278 235 240 235 q 290 238 281 235 q 308 246 299 242 q 327 254 318 250 q 339 261 336 258 l 339 290 l 276 299 q 269 316 272 304 q 266 340 267 328 q 265 365 265 353 q 264 385 264 378 q 265 408 264 396 q 269 431 267 419 q 418 444 338 440 q 568 449 499 449 l 590 446 q 593 397 592 422 q 594 349 594 372 l 594 303 q 571 238 578 272 q 563 167 564 203 q 564 93 563 131 q 564 21 565 56 q 518 10 549 14 q 472 7 488 7 q 451 10 461 7 q 432 11 442 13 l 421 72 l 400 72 q 314 23 357 44 q 218 1 271 1 q 104 32 143 1 q 49 111 65 63 q 31 218 32 160 q 29 333 29 276 q 37 476 29 406 q 44 617 44 546 l 43 618 q 55 696 47 644 q 78 798 63 747 q 120 886 94 849 q 186 924 146 924 z "},"h":{"ha":681,"x_min":35,"x_max":624,"o":"m 64 919 q 164 923 114 918 q 265 928 214 928 q 273 925 268 928 q 281 921 278 922 q 297 792 290 858 q 303 663 303 726 q 300 653 303 658 q 297 643 297 647 l 268 633 q 249 575 250 610 q 246 514 249 540 l 254 497 q 312 499 283 499 q 363 508 340 500 q 399 536 385 517 q 413 593 413 556 q 408 612 413 599 q 401 631 404 625 q 384 670 389 636 q 378 745 379 704 q 377 825 376 786 q 378 879 378 864 q 382 890 378 882 q 388 900 386 897 q 490 908 438 904 q 590 913 542 913 q 605 910 597 913 q 618 906 613 907 q 619 782 618 846 q 611 660 621 718 l 575 632 q 567 597 571 621 q 559 540 563 572 q 553 470 556 507 q 550 399 551 433 q 548 337 549 365 q 547 293 547 308 q 551 281 547 290 q 558 268 556 272 l 617 269 q 621 260 618 265 q 624 250 624 254 q 623 201 624 235 q 620 129 622 167 q 613 58 618 92 q 601 13 608 25 q 499 8 550 15 q 396 1 449 1 q 386 5 393 1 q 376 10 379 8 q 378 71 379 38 q 375 139 376 104 q 374 206 374 174 q 381 263 375 238 q 391 288 383 279 q 399 318 399 297 q 383 374 399 346 l 288 364 l 265 346 l 264 311 q 274 288 264 297 q 296 271 285 278 q 298 254 297 263 q 299 238 299 246 q 299 188 299 221 q 297 121 299 156 q 292 56 296 86 q 282 15 289 26 q 183 8 233 11 q 85 6 133 6 q 62 6 74 6 q 39 7 50 6 q 37 94 39 51 q 35 181 35 136 q 35 206 35 190 q 43 229 35 221 q 90 268 76 242 q 106 327 103 294 q 106 395 108 360 q 103 460 103 431 q 103 498 103 476 q 103 540 104 519 q 99 581 103 561 q 88 615 96 600 q 59 656 67 618 q 49 740 51 693 q 49 833 47 788 q 50 900 50 879 l 64 919 l 64 919 z "},"i":{"ha":401,"x_min":31,"x_max":342,"o":"m 40 911 q 161 913 101 910 q 282 915 221 915 q 288 847 289 882 q 288 781 288 813 q 289 735 288 761 q 281 692 290 708 q 252 674 263 692 q 237 628 242 656 q 231 566 232 600 q 230 499 229 532 q 232 439 231 467 q 233 397 233 411 q 234 342 233 369 q 246 290 235 315 l 318 254 q 328 197 328 226 q 328 136 329 167 q 329 75 328 106 q 342 17 331 44 q 322 14 340 15 q 277 11 304 13 q 218 8 250 10 q 157 6 186 7 q 105 5 128 6 q 75 4 82 4 q 56 5 65 4 q 39 8 47 6 q 32 55 33 32 q 31 101 31 78 q 33 192 31 147 q 38 281 35 236 l 40 286 l 82 289 q 89 322 86 296 q 93 382 92 347 q 94 456 94 417 q 94 533 94 496 q 94 599 94 569 q 94 642 94 628 q 89 657 94 644 q 81 674 83 669 l 47 692 q 39 736 42 710 q 35 791 36 763 q 35 847 35 819 q 35 893 35 874 q 37 902 35 897 q 40 911 39 907 z "},"j":{"ha":590,"x_min":33,"x_max":535,"o":"m 39 336 q 63 345 46 342 q 100 351 81 349 q 138 353 119 353 q 167 354 157 354 q 178 351 169 354 q 189 346 186 347 q 221 269 203 304 q 279 210 239 233 q 312 260 301 225 q 326 338 322 296 q 330 420 331 379 q 329 486 329 461 q 325 581 329 535 q 318 675 321 628 q 299 686 311 681 q 272 697 286 692 q 244 706 257 701 q 222 713 231 710 q 212 750 215 725 q 208 803 208 775 q 207 859 207 832 q 207 903 207 886 q 221 908 213 906 q 232 911 229 911 q 379 917 307 911 q 525 924 451 924 q 534 869 535 903 q 533 813 533 836 q 529 748 533 772 q 518 710 525 724 q 503 689 511 696 q 487 675 494 682 q 474 658 479 668 q 465 628 468 647 q 462 509 458 572 q 465 388 465 446 q 467 314 465 364 q 469 210 468 264 q 467 109 469 156 q 456 47 464 63 q 418 37 442 43 q 369 24 394 31 q 319 14 343 18 q 281 10 294 10 q 207 14 243 10 q 132 25 171 18 q 115 16 125 19 q 94 13 104 13 q 66 11 83 13 q 39 18 49 10 q 35 81 36 50 q 33 143 33 113 q 35 240 33 192 q 39 336 36 288 z "},"k":{"ha":665,"x_min":31,"x_max":631,"o":"m 31 890 q 66 899 35 896 q 136 905 97 903 q 211 908 175 907 q 258 908 247 908 q 272 874 265 899 q 283 819 278 849 q 290 763 288 790 q 293 722 293 736 q 291 685 293 699 q 265 656 289 671 q 255 610 257 636 q 253 561 253 583 q 257 537 253 549 q 265 514 261 525 q 297 545 278 518 q 335 606 317 572 q 367 670 354 639 q 381 714 381 701 q 390 808 381 763 q 410 901 399 853 l 425 918 l 456 918 q 494 918 468 918 q 549 917 521 918 q 601 911 578 915 q 631 897 624 907 q 626 867 629 890 q 621 816 624 843 q 615 767 618 789 q 611 743 613 744 q 569 709 600 724 q 519 681 539 694 q 498 657 513 676 q 465 610 483 638 q 426 552 446 583 q 391 492 407 521 q 365 442 375 464 q 354 414 354 421 q 364 397 354 408 q 386 371 374 385 q 411 344 399 357 q 429 326 424 332 q 447 302 436 317 q 470 273 458 288 q 493 246 482 258 q 513 228 504 233 q 524 222 515 225 q 543 215 533 218 q 563 208 553 211 q 576 203 572 204 q 583 176 579 197 q 591 128 588 154 q 597 78 594 101 q 600 49 600 56 q 596 33 600 42 q 589 18 592 25 q 530 10 558 17 q 474 3 501 3 q 453 2 465 3 q 426 1 440 1 q 401 3 413 1 q 382 8 389 4 q 372 35 376 18 q 365 72 368 53 q 361 108 363 90 q 360 136 360 125 l 360 171 q 372 201 372 186 q 359 234 372 215 q 328 272 346 253 q 290 306 310 290 q 260 328 271 321 l 243 304 l 242 231 q 244 218 242 225 q 250 206 247 211 q 273 191 263 200 q 283 168 283 182 q 283 129 283 153 q 282 80 283 106 q 277 32 281 54 q 267 0 274 10 q 217 1 253 0 q 143 5 182 3 q 72 10 104 7 q 31 17 39 13 q 32 51 31 25 q 35 107 33 78 q 40 160 38 136 q 46 188 43 183 q 80 211 69 192 q 93 256 90 231 q 94 308 96 282 q 92 354 92 335 q 93 423 92 376 q 92 517 94 469 q 80 604 90 565 q 47 651 69 643 q 38 699 40 668 q 33 766 35 731 q 31 835 32 801 q 31 890 31 869 z "},"l":{"ha":493,"x_min":28,"x_max":446,"o":"m 56 929 q 170 920 113 919 q 286 928 228 921 q 289 920 286 925 q 292 913 292 915 q 291 874 292 901 q 289 817 290 847 q 285 763 288 788 q 281 731 283 738 q 256 716 271 724 q 235 700 242 708 q 224 668 228 693 q 217 610 219 643 q 215 538 215 576 q 214 463 214 499 q 215 399 214 428 q 215 357 215 369 l 215 271 q 228 259 219 263 q 247 256 238 256 q 274 256 258 256 q 304 259 289 257 q 333 266 319 261 q 356 279 347 271 l 356 307 q 370 315 360 311 q 392 322 381 318 q 413 326 403 325 q 431 328 424 328 l 443 326 q 445 299 444 313 q 446 272 446 286 q 445 213 446 246 q 442 145 444 179 q 435 78 439 111 q 424 21 431 46 q 253 10 339 14 q 83 6 168 6 q 54 4 72 6 q 28 11 36 3 q 31 61 29 25 q 35 136 33 97 q 40 208 38 175 q 46 247 43 240 l 82 268 q 93 297 92 282 q 94 329 94 311 l 94 468 q 95 560 94 513 q 93 649 96 607 q 85 675 90 665 q 74 693 81 685 q 63 710 68 701 q 57 731 58 718 q 50 822 50 775 q 47 914 50 869 l 56 929 l 56 929 z "},"m":{"ha":851,"x_min":29,"x_max":793,"o":"m 38 922 q 128 917 82 918 q 219 919 175 917 q 257 823 235 871 q 293 726 279 775 q 341 540 318 631 q 399 356 364 449 l 421 347 q 457 625 443 486 q 492 904 471 764 q 507 908 499 906 q 522 910 515 910 q 647 915 586 910 q 771 925 708 919 q 778 909 774 919 q 783 894 783 899 q 783 849 783 879 q 782 786 783 819 q 778 724 781 753 q 772 686 776 696 q 744 684 758 685 q 715 681 731 683 q 706 633 706 661 q 706 545 706 603 q 708 426 706 488 q 717 311 711 365 q 736 235 724 257 l 769 222 q 779 188 775 214 q 785 129 783 161 q 790 67 788 97 q 793 24 792 38 q 783 20 788 22 q 772 18 778 18 q 652 16 711 18 q 531 6 593 14 q 525 37 528 13 q 520 88 522 61 q 517 140 518 115 q 517 174 517 165 q 517 195 517 185 q 522 215 517 206 l 568 229 q 576 282 574 242 q 580 369 579 322 q 581 461 581 417 q 582 525 582 506 l 561 535 q 540 465 550 515 q 520 358 529 415 q 504 248 511 301 q 493 167 497 194 q 390 150 443 150 l 357 151 q 290 368 325 258 q 207 579 256 478 l 185 579 q 187 501 186 554 q 192 391 188 447 q 204 288 196 335 q 228 231 213 242 l 263 235 l 268 229 q 274 133 269 181 q 279 39 279 86 q 274 17 279 28 q 176 15 224 18 q 79 13 128 13 l 51 14 q 47 96 50 54 q 43 179 43 138 q 44 200 43 190 q 47 221 44 210 l 88 231 q 93 244 90 236 q 96 256 96 253 q 97 355 96 292 q 97 485 99 418 q 92 610 96 551 q 78 697 88 669 q 53 703 65 699 q 31 717 40 707 q 31 810 33 764 q 29 903 29 856 q 32 912 29 906 q 38 922 35 918 z "},"n":{"ha":692,"x_min":35,"x_max":636,"o":"m 35 138 q 69 181 57 149 q 88 257 82 214 q 96 351 94 300 q 97 450 97 401 q 94 540 96 499 q 93 606 93 581 q 90 622 93 613 q 85 639 88 632 q 64 653 78 643 q 50 672 50 663 q 53 795 54 731 q 68 917 53 860 q 97 919 82 918 q 126 919 111 919 q 213 917 169 919 q 297 915 256 915 q 336 772 315 846 q 374 621 357 697 q 404 469 392 544 q 418 321 417 393 l 432 331 q 439 452 436 392 q 442 575 442 513 q 443 613 442 593 q 442 649 444 632 q 431 679 439 665 q 401 700 422 693 q 395 739 397 713 q 393 795 393 765 q 393 853 393 825 q 393 897 393 881 q 397 908 393 900 q 403 918 401 917 q 510 922 456 921 q 618 924 564 924 q 627 921 622 924 q 636 918 632 918 q 636 897 636 915 q 636 855 636 879 q 635 802 636 831 q 634 749 635 774 q 632 707 633 724 q 629 688 631 690 l 568 682 q 556 635 560 664 q 550 574 551 606 q 549 511 549 542 q 549 458 549 481 q 548 393 549 431 q 561 331 547 356 l 603 321 q 610 291 608 310 q 613 251 613 272 q 613 210 614 231 q 613 175 613 189 q 613 137 613 161 q 613 86 614 113 q 610 38 613 60 q 599 6 607 15 q 476 10 538 13 q 354 18 415 8 q 317 167 332 93 q 288 316 301 242 q 262 464 275 390 q 232 613 249 538 l 214 604 q 209 447 213 525 q 206 290 206 369 q 210 251 206 269 l 242 233 q 247 193 247 215 q 244 102 247 147 q 240 11 242 57 q 212 6 231 7 q 172 4 193 4 q 129 4 150 4 q 96 4 108 4 q 70 6 83 4 q 43 7 57 7 l 36 18 q 40 78 38 46 q 35 138 42 111 z "},"o":{"ha":618,"x_min":32,"x_max":567,"o":"m 146 546 q 146 463 146 510 q 156 374 146 415 q 194 306 167 332 q 276 283 222 279 q 402 331 368 283 q 436 465 436 379 q 434 526 436 490 q 422 592 432 561 q 391 646 411 624 q 335 668 371 668 q 271 663 304 668 q 210 645 238 658 q 164 608 182 632 q 146 546 146 583 m 181 931 q 365 922 276 928 q 547 893 453 915 q 560 798 554 846 q 567 704 567 750 q 567 608 567 668 q 566 480 567 549 q 561 338 565 411 q 549 201 557 265 q 526 88 540 138 q 492 17 513 39 q 428 7 460 11 q 364 3 396 3 q 285 2 326 3 q 204 6 244 1 q 126 22 164 10 q 58 57 89 33 q 35 249 38 151 q 32 442 32 346 q 33 543 32 479 q 40 674 33 607 q 63 799 47 742 q 107 882 78 857 q 143 908 124 897 q 181 931 163 919 z "},"p":{"ha":579,"x_min":26,"x_max":529,"o":"m 42 907 q 119 906 79 904 q 200 910 160 907 q 280 915 240 913 q 358 918 319 918 q 466 893 431 918 q 515 827 501 868 q 528 733 529 786 q 528 624 528 681 q 515 474 528 524 q 470 403 503 424 q 381 378 438 382 q 239 367 325 375 q 215 332 222 351 q 208 292 208 313 q 210 271 208 281 q 215 251 211 261 l 222 244 l 256 246 l 267 239 q 270 128 267 182 q 283 18 274 74 q 249 11 276 14 q 188 6 221 8 q 126 3 156 4 q 83 3 96 3 q 60 3 69 3 q 39 11 51 4 q 51 242 47 126 q 76 247 61 247 l 89 265 q 88 314 89 282 q 87 383 88 346 q 84 462 86 421 q 79 539 82 503 q 73 603 76 575 q 64 646 69 632 q 38 665 46 651 q 28 697 31 679 q 28 733 26 714 q 29 768 29 751 q 29 839 29 803 q 42 907 29 875 m 231 497 q 237 481 231 490 q 249 468 243 472 q 341 497 313 472 q 369 586 369 522 q 347 643 369 631 q 286 656 324 656 l 242 643 q 235 639 238 642 q 229 635 232 636 l 231 497 z "},"q":{"ha":658,"x_min":29,"x_max":613,"o":"m 225 914 q 380 908 304 914 q 535 893 456 903 q 569 797 560 847 q 579 696 579 747 q 569 419 579 557 q 558 143 558 282 q 567 116 558 128 q 585 95 575 104 q 604 78 596 86 q 613 63 613 71 q 593 17 613 31 q 548 -1 574 4 q 497 -8 522 -6 q 458 -22 471 -11 q 428 -7 444 -11 q 397 8 413 -3 q 306 6 354 8 q 210 6 257 3 q 119 22 163 8 q 42 69 75 36 q 33 132 36 101 q 29 194 29 163 q 36 442 29 319 q 43 689 43 564 q 51 780 43 739 q 78 851 58 821 q 134 897 99 881 q 225 914 169 914 m 142 393 q 148 337 142 368 q 168 279 154 306 q 205 235 182 253 q 260 217 228 217 l 271 218 q 258 253 268 236 q 249 286 249 269 q 259 319 249 303 q 281 347 269 335 l 332 357 q 361 311 349 335 q 390 265 374 288 q 416 279 406 267 q 433 309 426 292 q 444 344 440 326 q 447 375 447 363 q 443 421 447 399 q 435 467 439 443 q 423 535 429 504 q 403 589 417 567 q 363 623 389 611 q 290 635 336 635 q 208 613 238 635 q 163 556 178 590 q 145 478 149 521 q 142 393 142 435 z "},"r":{"ha":646,"x_min":28,"x_max":593,"o":"m 264 682 q 251 647 257 665 q 244 610 244 629 q 248 588 244 603 q 257 559 251 574 q 270 533 263 544 q 286 521 278 521 q 335 531 311 521 q 376 558 358 542 q 403 598 393 575 q 414 646 414 621 q 403 667 414 657 q 376 684 392 676 q 346 696 361 692 q 322 700 331 700 q 292 697 307 700 q 264 682 276 693 m 43 893 q 60 926 43 917 q 103 938 78 936 q 154 938 128 940 q 199 936 181 936 q 364 934 296 936 q 474 908 432 932 q 534 826 515 883 q 553 660 553 769 q 515 497 553 560 q 381 399 478 435 q 408 372 390 382 q 432 344 425 361 q 438 319 436 336 q 444 286 440 303 q 453 256 447 269 q 471 242 458 243 l 490 253 l 492 313 q 514 331 506 324 q 530 341 522 338 q 547 345 538 344 q 576 346 557 346 q 585 344 579 346 q 593 342 590 343 l 593 265 q 592 163 593 210 q 574 83 590 117 q 522 29 558 49 q 417 10 486 10 q 368 35 383 10 q 345 99 353 61 q 334 183 338 138 q 323 266 331 228 q 297 330 315 304 q 244 356 279 356 l 236 356 q 228 313 231 335 q 226 268 226 290 q 231 224 226 246 l 242 215 l 265 217 l 274 211 q 281 159 279 185 q 282 106 282 133 l 281 18 q 249 10 275 14 q 192 5 224 7 q 131 2 161 3 q 86 1 100 1 l 69 3 l 61 11 l 58 56 q 58 152 58 100 q 65 247 57 204 l 100 250 l 106 258 q 104 418 106 333 q 89 578 103 503 q 67 614 83 601 q 35 642 51 626 q 28 676 29 660 q 28 713 28 693 q 35 803 28 757 q 43 893 43 849 z "},"s":{"ha":590,"x_min":26,"x_max":539,"o":"m 143 939 q 259 930 200 939 q 372 921 318 921 q 421 924 399 921 q 471 917 443 928 q 477 881 476 899 q 478 843 478 863 q 478 733 478 790 q 471 628 478 676 l 458 619 q 420 618 439 619 q 382 617 401 617 q 363 618 372 617 q 343 622 353 619 l 338 628 l 333 665 l 322 675 l 303 679 q 269 669 282 679 q 247 643 256 658 q 236 609 239 628 q 233 574 233 590 q 244 532 233 546 q 271 512 254 518 q 308 506 288 506 q 349 506 328 506 q 392 507 368 506 q 439 508 415 508 q 484 502 463 507 q 522 483 506 497 q 535 430 532 457 q 538 375 538 403 q 538 289 538 339 q 534 188 539 239 q 515 92 529 138 q 471 19 500 46 q 431 18 460 21 q 369 11 403 15 q 302 3 335 7 q 250 0 269 0 q 189 3 222 0 q 126 16 156 6 q 78 48 97 26 q 58 108 58 69 q 58 162 58 125 q 57 239 57 199 q 60 316 57 279 q 71 368 63 353 q 129 368 100 367 q 188 369 158 369 q 219 364 207 369 q 218 324 218 346 q 224 284 218 303 q 242 253 229 265 q 281 240 256 240 q 321 251 304 240 q 354 279 338 263 q 357 314 356 296 q 358 349 358 332 q 337 395 358 379 q 285 418 315 411 q 222 425 254 425 q 169 425 190 425 q 129 424 147 425 q 89 417 111 422 q 46 449 58 426 q 30 501 33 472 q 28 562 26 531 q 31 618 31 593 q 29 675 31 642 q 29 744 28 708 q 35 815 31 779 q 53 877 40 850 q 87 922 65 904 q 143 939 108 939 z "},"t":{"ha":664,"x_min":31,"x_max":622,"o":"m 42 921 q 291 912 167 918 q 539 914 415 906 q 562 917 547 914 q 590 921 576 921 q 613 917 603 921 q 622 899 622 913 q 621 746 622 826 q 608 593 619 665 l 597 581 q 567 576 582 578 q 536 574 551 574 q 507 580 517 574 q 490 606 497 586 q 440 615 464 613 q 390 621 417 618 q 381 590 385 614 q 375 531 378 565 q 371 458 372 497 q 369 383 369 419 q 368 318 368 347 q 368 276 368 289 q 368 247 368 267 q 376 219 368 228 l 432 219 q 441 203 439 213 q 443 188 443 194 q 443 147 443 174 q 441 93 443 121 q 435 40 439 65 q 424 6 431 15 l 314 6 q 244 7 279 6 q 175 11 210 8 q 166 28 169 18 q 163 49 163 39 q 163 115 163 79 q 168 181 164 151 l 178 185 l 218 183 q 228 226 224 196 q 235 294 232 256 q 239 378 238 333 q 241 463 240 422 q 242 538 242 504 q 242 590 242 572 q 199 594 221 588 q 158 600 178 600 q 133 588 139 600 q 121 558 126 575 q 101 563 114 560 q 73 572 88 567 q 47 582 58 576 q 31 593 35 588 q 32 758 33 674 q 42 921 31 843 z "},"u":{"ha":678,"x_min":32,"x_max":635,"o":"m 39 913 q 167 907 104 907 q 294 906 229 907 q 297 894 296 900 q 299 881 299 888 q 297 847 299 874 q 294 791 296 821 q 291 738 293 761 q 289 714 289 714 l 247 706 q 234 647 239 682 q 227 576 229 613 q 224 503 225 539 q 224 440 224 467 q 225 372 224 404 q 246 308 226 340 q 280 294 265 297 q 318 292 294 292 q 386 322 364 292 q 416 394 408 351 q 422 483 424 436 q 421 564 421 529 q 422 592 421 582 q 423 610 424 603 q 418 625 422 618 q 401 643 414 632 q 401 763 403 703 q 399 882 400 822 q 401 897 399 889 q 406 910 403 904 q 503 910 454 907 q 603 914 553 914 l 631 911 l 635 763 q 626 732 635 746 q 603 707 617 718 q 573 686 589 696 q 544 668 557 676 q 533 619 536 651 q 529 553 529 588 q 530 484 529 518 q 531 429 531 450 q 531 245 531 335 q 519 61 531 156 q 449 31 490 42 q 363 14 408 19 q 274 7 318 8 q 194 6 229 6 q 144 18 167 6 q 94 33 121 31 q 81 65 88 46 q 74 99 74 83 q 82 356 74 228 q 90 613 90 485 q 87 629 90 619 q 81 646 83 639 l 42 657 q 35 700 38 667 q 33 772 33 733 q 32 845 32 810 q 32 896 32 881 q 35 905 32 900 q 39 913 39 910 z "},"v":{"ha":743,"x_min":29,"x_max":690,"o":"m 326 924 q 331 908 329 917 q 332 893 332 900 q 328 696 332 793 q 319 688 325 690 q 308 681 314 686 q 297 666 301 676 q 293 635 293 656 q 297 546 293 604 q 306 424 300 488 q 322 305 313 361 q 343 224 332 249 q 354 260 347 232 q 369 326 361 288 q 386 410 378 365 q 401 494 394 454 q 411 564 407 533 q 415 606 415 594 l 415 643 q 404 653 410 646 q 399 668 399 661 q 399 724 399 688 q 402 799 400 761 q 408 872 404 838 q 418 921 411 906 q 539 922 479 919 q 660 925 599 925 q 675 922 667 925 q 690 918 683 919 q 689 860 689 897 q 688 783 689 822 q 683 710 688 743 q 667 663 678 676 q 633 644 651 654 q 601 624 614 635 q 581 574 592 615 q 558 475 569 533 q 535 347 546 417 q 514 214 524 278 q 497 99 504 150 q 488 25 490 49 q 428 8 464 11 q 365 6 392 6 q 306 10 336 6 q 246 21 276 14 q 201 253 222 138 q 161 488 179 369 q 156 525 158 497 q 149 583 153 553 q 142 639 146 614 q 138 668 139 664 q 110 706 125 692 q 79 729 94 719 q 51 747 64 739 q 29 768 38 756 q 32 831 29 796 q 46 893 35 867 q 64 899 50 894 q 93 910 78 904 q 122 919 108 915 q 139 924 136 924 l 326 924 z "},"w":{"ha":818,"x_min":29,"x_max":771,"o":"m 47 913 q 97 913 60 913 q 174 913 133 914 q 247 910 214 913 q 288 900 281 907 q 285 782 288 840 q 279 664 282 724 q 258 653 276 657 q 231 646 239 649 q 210 616 217 642 q 202 559 204 590 q 201 498 200 528 q 201 454 201 468 q 201 408 201 438 q 201 346 200 378 q 204 285 201 314 q 213 243 207 257 q 232 299 219 256 q 258 400 244 342 q 288 526 272 458 q 317 655 303 593 q 342 766 331 717 q 358 838 353 815 q 406 850 381 850 q 435 846 419 850 q 444 783 438 826 q 460 686 451 740 q 477 573 468 632 q 495 463 486 514 q 513 376 504 413 q 529 331 522 339 q 551 479 551 400 q 551 632 551 558 q 551 667 551 647 q 538 697 551 686 l 504 700 q 499 732 500 715 q 497 764 497 749 l 497 890 q 501 901 497 893 q 506 911 506 908 l 761 910 q 767 894 764 904 q 769 879 769 885 l 769 731 q 770 692 769 711 q 763 654 771 672 l 682 656 q 671 618 676 644 q 661 557 665 592 q 654 483 657 522 q 649 406 651 443 q 647 340 647 369 q 646 294 646 310 q 647 274 646 283 q 656 254 649 264 q 682 251 663 250 q 711 250 701 251 l 717 243 l 714 22 q 679 13 703 15 q 628 9 656 10 q 574 8 600 8 q 535 8 549 8 q 513 12 524 8 q 490 18 501 15 q 474 85 483 40 q 453 186 464 131 q 432 301 443 242 q 412 410 421 360 q 395 494 403 460 q 383 532 388 528 q 342 274 368 401 q 294 17 315 147 q 239 6 268 7 q 182 6 210 6 q 124 6 153 6 q 67 14 96 7 q 58 51 60 26 q 54 106 56 76 q 53 162 53 135 q 54 206 54 189 q 70 216 63 214 q 83 222 78 218 q 92 235 89 226 q 96 263 96 243 q 94 441 96 346 q 81 618 92 536 q 67 638 79 632 q 42 647 54 644 q 32 769 29 704 q 33 893 35 835 l 47 913 l 47 913 z "},"x":{"ha":783,"x_min":32,"x_max":739,"o":"m 313 919 q 324 915 315 919 q 338 908 333 911 q 352 810 344 860 q 369 710 360 760 l 361 686 q 339 668 344 683 q 360 642 344 656 q 388 619 375 629 q 426 648 410 628 q 454 688 442 668 q 439 699 449 696 q 421 704 429 703 l 415 718 q 421 756 417 725 q 431 821 425 786 q 442 885 436 856 q 454 919 449 915 q 512 917 472 918 q 593 916 551 917 q 669 913 635 915 q 714 906 704 910 l 715 901 q 710 856 715 892 q 697 779 704 819 q 682 706 689 739 q 671 667 675 672 q 624 638 653 658 q 567 591 594 617 q 521 538 540 565 q 501 489 501 510 q 522 430 501 468 q 574 353 543 392 q 636 285 604 315 q 692 251 668 256 q 704 230 699 244 q 713 199 710 215 q 718 166 717 182 q 719 140 719 150 q 729 90 719 111 q 739 40 739 68 q 737 24 739 32 q 728 8 735 15 q 677 7 701 8 q 629 6 653 6 q 551 12 592 6 q 469 11 510 18 l 456 21 q 433 127 446 69 q 421 235 421 185 q 424 256 421 246 q 433 274 428 267 l 429 288 q 409 305 421 296 q 386 318 397 314 q 359 304 371 314 q 336 283 347 294 l 335 268 q 328 119 335 172 q 297 42 322 67 q 222 11 272 17 q 82 6 171 6 l 50 6 q 32 58 32 28 q 37 100 32 72 q 49 157 42 128 q 63 212 56 186 q 78 250 71 238 q 94 253 85 253 q 110 253 103 253 l 119 253 q 153 301 129 271 q 201 363 176 332 q 244 422 225 394 q 264 463 264 449 q 231 508 251 479 q 188 563 211 536 q 142 611 165 590 q 99 632 118 632 q 81 689 88 654 q 69 761 74 724 q 59 835 64 799 q 50 899 54 872 l 58 917 l 313 919 z "},"y":{"ha":643,"x_min":28,"x_max":599,"o":"m 56 911 q 76 915 67 914 q 96 917 86 917 l 235 913 l 251 901 q 239 860 244 882 q 233 818 233 838 q 246 694 233 757 l 242 685 q 224 680 233 685 q 208 668 215 675 q 235 625 219 644 q 264 582 250 606 q 283 574 272 579 q 306 568 294 568 q 332 578 319 568 q 355 603 344 589 q 374 631 365 617 q 392 656 383 646 q 372 708 374 676 q 372 773 369 739 q 374 839 374 807 q 364 893 375 871 l 382 910 q 433 914 408 913 q 483 915 458 915 q 533 913 510 915 q 579 899 556 910 q 589 860 589 879 q 594 759 589 810 q 599 656 599 708 l 596 622 q 577 613 588 617 q 556 608 567 608 q 540 610 550 608 q 517 611 529 611 q 495 609 506 611 q 481 601 485 607 q 447 514 460 568 q 427 401 435 460 q 417 285 419 342 q 414 192 414 229 l 418 181 l 450 182 q 453 175 451 179 q 456 168 456 171 q 449 91 456 131 q 439 15 443 51 q 408 10 435 11 q 350 7 382 8 q 289 6 318 6 q 251 6 260 6 q 213 10 225 6 q 197 24 201 14 q 194 49 193 33 q 196 88 196 65 q 201 145 196 124 q 215 182 207 167 q 233 211 224 197 q 250 247 242 225 q 264 301 258 268 q 269 388 269 333 q 268 425 269 407 q 264 463 267 443 q 200 496 224 476 q 158 536 176 515 q 124 577 140 557 q 82 613 107 597 q 46 628 57 614 q 31 661 35 642 q 29 703 28 681 q 31 743 31 725 q 31 785 31 761 q 33 832 31 808 q 40 876 35 856 q 56 911 44 897 z "},"z":{"ha":589,"x_min":31,"x_max":542,"o":"m 93 906 q 132 917 101 913 q 205 924 163 921 q 297 927 247 926 q 392 928 346 928 q 475 927 438 928 q 531 928 513 926 q 541 905 540 919 q 542 881 542 890 l 540 656 q 506 612 531 642 q 449 545 481 582 q 382 469 417 508 q 319 394 347 429 q 272 332 290 358 q 253 296 253 306 q 261 279 253 285 q 281 271 269 274 q 306 267 293 268 q 325 267 318 267 q 404 275 364 267 l 428 297 l 431 308 q 453 312 442 311 q 475 313 464 313 q 485 313 481 313 q 497 310 490 313 l 500 261 q 501 208 500 244 q 500 133 501 172 q 494 58 499 93 q 478 10 489 22 l 465 8 q 382 15 424 8 q 297 21 340 21 q 176 10 238 21 q 54 -1 114 -1 l 49 -1 l 39 6 q 34 33 36 14 q 31 73 32 51 q 31 115 31 94 q 31 144 31 135 q 35 207 31 175 q 71 249 43 217 q 135 326 99 282 q 211 422 171 371 q 285 517 251 472 q 342 594 319 561 q 368 639 365 628 q 351 642 360 640 q 336 643 343 643 q 275 641 308 643 q 221 617 242 639 q 165 608 193 610 q 107 603 136 606 l 106 624 q 106 690 106 653 q 106 767 107 728 q 103 843 106 807 q 93 906 100 879 z "},"":{"ha":350,"x_min":69,"x_max":281,"o":"m 136 6 l 81 6 q 71 22 72 13 q 69 38 69 31 q 76 93 69 47 q 91 203 82 139 q 110 340 100 267 q 131 477 121 414 q 147 585 140 540 q 156 636 154 629 l 176 636 q 210 631 194 636 q 214 593 214 615 q 219 537 214 581 q 231 433 224 493 q 247 304 239 372 q 261 176 254 236 q 272 72 268 117 q 275 17 276 28 l 265 13 l 225 14 l 136 6 m 136 699 l 81 699 q 71 715 72 706 q 69 731 69 724 q 69 771 69 744 q 72 825 69 797 q 78 878 74 853 q 89 913 82 903 l 157 913 q 213 911 185 913 q 268 907 240 910 q 277 890 274 900 q 281 869 281 879 q 280 790 281 833 q 275 710 279 746 l 265 706 l 225 707 l 136 699 z "},"":{"ha":539,"x_min":71,"x_max":481,"o":"m 438 958 q 383 960 410 958 q 328 969 356 961 q 321 1026 321 1000 q 321 1051 321 1035 q 323 1083 321 1067 q 329 1113 325 1099 q 343 1132 333 1126 q 362 1135 353 1133 q 382 1136 371 1136 q 430 1135 406 1136 q 474 1119 454 1135 q 480 1081 479 1100 q 481 1043 481 1063 q 480 1026 481 1036 q 477 1005 479 1015 q 471 985 475 994 q 458 972 467 976 q 448 965 454 972 q 438 958 442 958 m 188 958 q 133 960 160 958 q 78 969 106 961 q 71 1026 71 1000 q 71 1051 71 1035 q 73 1083 71 1067 q 79 1113 75 1099 q 93 1132 83 1126 q 112 1135 103 1133 q 132 1136 121 1136 q 180 1135 156 1136 q 224 1119 204 1135 q 230 1081 229 1100 q 231 1043 231 1063 q 230 1026 231 1036 q 227 1005 229 1015 q 221 985 225 994 q 208 972 217 976 q 198 965 204 972 q 188 958 192 958 z "},"":{"ha":339,"x_min":43,"x_max":313,"o":"m 251 1181 l 307 1181 q 310 1165 313 1174 q 306 1149 308 1156 q 268 1108 292 1135 q 217 1054 244 1082 q 163 1001 190 1026 q 114 967 135 976 l 88 967 q 46 972 64 967 q 45 990 43 979 q 50 1010 47 1000 q 68 1090 50 1046 q 108 1169 86 1133 l 122 1174 l 158 1172 l 251 1181 z "},"":{"ha":713,"x_min":32,"x_max":671,"o":"m 32 3 m 321 632 q 303 618 310 632 q 293 585 296 604 q 290 548 290 567 q 289 521 289 529 q 291 445 289 482 q 293 369 293 408 l 293 350 l 307 349 q 356 358 329 349 l 356 389 q 353 483 356 435 q 339 575 350 531 q 336 587 338 578 q 332 606 335 596 q 326 624 329 617 q 321 632 324 632 m 142 914 q 310 909 226 907 q 478 911 393 911 q 494 828 483 872 q 506 747 506 783 l 504 725 q 488 707 496 719 q 479 685 479 694 q 488 651 479 681 q 508 578 496 621 q 536 486 521 536 q 565 393 551 436 q 588 319 578 350 q 601 283 599 289 q 610 280 604 282 q 618 278 615 278 l 654 281 l 660 274 q 667 150 663 213 q 671 28 671 88 q 665 4 671 15 q 613 10 639 4 q 563 17 586 17 q 488 10 526 17 q 411 3 449 3 q 376 8 392 3 q 372 80 375 44 q 368 150 368 115 l 368 176 l 382 185 l 382 189 q 374 224 382 208 q 367 257 365 239 l 276 257 q 256 233 267 246 q 242 206 244 221 l 249 188 q 276 154 274 172 q 279 108 279 136 q 275 26 279 68 q 159 24 217 28 q 43 19 101 19 q 37 31 42 22 q 32 43 32 40 q 33 150 32 97 q 40 256 35 203 l 47 264 l 78 264 q 91 296 82 269 q 111 360 100 322 q 133 440 122 397 q 153 523 144 483 q 169 592 163 563 q 175 631 175 621 q 174 651 175 642 q 168 672 174 661 l 140 685 q 134 728 136 700 q 131 785 132 756 q 129 844 129 815 q 129 890 129 872 l 131 906 l 142 914 m 271 1172 l 307 1174 l 321 1169 q 361 1090 343 1133 q 379 1010 379 1046 q 384 990 382 1000 q 383 972 386 979 q 342 967 365 967 l 315 967 q 267 1001 294 976 q 212 1054 239 1026 q 161 1108 185 1082 q 124 1149 138 1135 q 119 1165 121 1156 q 122 1181 117 1174 l 178 1181 l 271 1172 z "},"":{"ha":713,"x_min":32,"x_max":671,"o":"m 32 3 m 321 632 q 303 618 310 632 q 293 585 296 604 q 290 548 290 567 q 289 521 289 529 q 291 445 289 482 q 293 369 293 408 l 293 350 l 307 349 q 356 358 329 349 l 356 389 q 353 483 356 435 q 339 575 350 531 q 336 587 338 578 q 332 606 335 596 q 326 624 329 617 q 321 632 324 632 m 142 914 q 310 909 226 907 q 478 911 393 911 q 494 828 483 872 q 506 747 506 783 l 504 725 q 488 707 496 719 q 479 685 479 694 q 488 651 479 681 q 508 578 496 621 q 536 486 521 536 q 565 393 551 436 q 588 319 578 350 q 601 283 599 289 q 610 280 604 282 q 618 278 615 278 l 654 281 l 660 274 q 667 150 663 213 q 671 28 671 88 q 665 4 671 15 q 613 10 639 4 q 563 17 586 17 q 488 10 526 17 q 411 3 449 3 q 376 8 392 3 q 372 80 375 44 q 368 150 368 115 l 368 176 l 382 185 l 382 189 q 374 224 382 208 q 367 257 365 239 l 276 257 q 256 233 267 246 q 242 206 244 221 l 249 188 q 276 154 274 172 q 279 108 279 136 q 275 26 279 68 q 159 24 217 28 q 43 19 101 19 q 37 31 42 22 q 32 43 32 40 q 33 150 32 97 q 40 256 35 203 l 47 264 l 78 264 q 91 296 82 269 q 111 360 100 322 q 133 440 122 397 q 153 523 144 483 q 169 592 163 563 q 175 631 175 621 q 174 651 175 642 q 168 672 174 661 l 140 685 q 134 728 136 700 q 131 785 132 756 q 129 844 129 815 q 129 890 129 872 l 131 906 l 142 914 m 486 1181 l 542 1181 q 545 1165 547 1174 q 540 1149 543 1156 q 503 1108 526 1135 q 452 1054 479 1082 q 397 1001 425 1026 q 349 967 369 976 l 322 967 q 281 972 299 967 q 280 990 278 979 q 285 1010 282 1000 q 303 1090 285 1046 q 343 1169 321 1133 l 357 1174 l 393 1172 l 486 1181 z "},"":{"ha":713,"x_min":32,"x_max":671,"o":"m 32 3 m 321 632 q 303 618 310 632 q 293 585 296 604 q 290 548 290 567 q 289 521 289 529 q 291 445 289 482 q 293 369 293 408 l 293 350 l 307 349 q 356 358 329 349 l 356 389 q 353 483 356 435 q 339 575 350 531 q 336 587 338 578 q 332 606 335 596 q 326 624 329 617 q 321 632 324 632 m 142 914 q 310 909 226 907 q 478 911 393 911 q 494 828 483 872 q 506 747 506 783 l 504 725 q 488 707 496 719 q 479 685 479 694 q 488 651 479 681 q 508 578 496 621 q 536 486 521 536 q 565 393 551 436 q 588 319 578 350 q 601 283 599 289 q 610 280 604 282 q 618 278 615 278 l 654 281 l 660 274 q 667 150 663 213 q 671 28 671 88 q 665 4 671 15 q 613 10 639 4 q 563 17 586 17 q 488 10 526 17 q 411 3 449 3 q 376 8 392 3 q 372 80 375 44 q 368 150 368 115 l 368 176 l 382 185 l 382 189 q 374 224 382 208 q 367 257 365 239 l 276 257 q 256 233 267 246 q 242 206 244 221 l 249 188 q 276 154 274 172 q 279 108 279 136 q 275 26 279 68 q 159 24 217 28 q 43 19 101 19 q 37 31 42 22 q 32 43 32 40 q 33 150 32 97 q 40 256 35 203 l 47 264 l 78 264 q 91 296 82 269 q 111 360 100 322 q 133 440 122 397 q 153 523 144 483 q 169 592 163 563 q 175 631 175 621 q 174 651 175 642 q 168 672 174 661 l 140 685 q 134 728 136 700 q 131 785 132 756 q 129 844 129 815 q 129 890 129 872 l 131 906 l 142 914 m 519 958 q 465 960 492 958 q 410 969 438 961 q 403 1026 403 1000 q 403 1051 403 1035 q 405 1083 403 1067 q 411 1113 407 1099 q 425 1132 415 1126 q 444 1135 435 1133 q 464 1136 453 1136 q 512 1135 488 1136 q 556 1119 536 1135 q 562 1081 561 1100 q 563 1043 563 1063 q 562 1026 563 1036 q 559 1005 561 1015 q 553 985 557 994 q 540 972 549 976 q 530 965 536 972 q 519 958 524 958 m 269 958 q 215 960 242 958 q 160 969 188 961 q 153 1026 153 1000 q 153 1051 153 1035 q 155 1083 153 1067 q 161 1113 157 1099 q 175 1132 165 1126 q 194 1135 185 1133 q 214 1136 203 1136 q 262 1135 238 1136 q 306 1119 286 1135 q 312 1081 311 1100 q 313 1043 313 1063 q 312 1026 313 1036 q 309 1005 311 1015 q 303 985 307 994 q 290 972 299 976 q 280 965 286 972 q 269 958 274 958 z "},"":{"ha":713,"x_min":32,"x_max":671,"o":"m 32 3 m 321 632 q 303 618 310 632 q 293 585 296 604 q 290 548 290 567 q 289 521 289 529 q 291 445 289 482 q 293 369 293 408 l 293 350 l 307 349 q 356 358 329 349 l 356 389 q 353 483 356 435 q 339 575 350 531 q 336 587 338 578 q 332 606 335 596 q 326 624 329 617 q 321 632 324 632 m 142 914 q 310 909 226 907 q 478 911 393 911 q 494 828 483 872 q 506 747 506 783 l 504 725 q 488 707 496 719 q 479 685 479 694 q 488 651 479 681 q 508 578 496 621 q 536 486 521 536 q 565 393 551 436 q 588 319 578 350 q 601 283 599 289 q 610 280 604 282 q 618 278 615 278 l 654 281 l 660 274 q 667 150 663 213 q 671 28 671 88 q 665 4 671 15 q 613 10 639 4 q 563 17 586 17 q 488 10 526 17 q 411 3 449 3 q 376 8 392 3 q 372 80 375 44 q 368 150 368 115 l 368 176 l 382 185 l 382 189 q 374 224 382 208 q 367 257 365 239 l 276 257 q 256 233 267 246 q 242 206 244 221 l 249 188 q 276 154 274 172 q 279 108 279 136 q 275 26 279 68 q 159 24 217 28 q 43 19 101 19 q 37 31 42 22 q 32 43 32 40 q 33 150 32 97 q 40 256 35 203 l 47 264 l 78 264 q 91 296 82 269 q 111 360 100 322 q 133 440 122 397 q 153 523 144 483 q 169 592 163 563 q 175 631 175 621 q 174 651 175 642 q 168 672 174 661 l 140 685 q 134 728 136 700 q 131 785 132 756 q 129 844 129 815 q 129 890 129 872 l 131 906 l 142 914 m 185 1126 q 198 1181 185 1160 q 233 1215 211 1203 q 284 1231 256 1226 q 343 1235 313 1235 q 399 1221 379 1235 q 430 1186 419 1207 q 442 1142 440 1165 q 444 1101 444 1119 q 410 1008 444 1040 q 285 975 376 975 q 222 987 243 975 q 192 1017 200 999 q 183 1059 183 1036 q 183 1103 183 1082 l 185 1126 m 268 1125 q 269 1075 267 1092 q 285 1058 271 1058 q 345 1069 329 1058 q 361 1101 361 1081 q 358 1133 361 1115 q 343 1151 356 1151 q 291 1147 314 1151 q 268 1125 268 1142 z "},"":{"ha":571,"x_min":28,"x_max":496,"o":"m 28 6 m 488 913 q 485 871 486 900 q 483 804 485 842 q 481 727 482 767 q 478 653 479 688 q 475 597 476 619 q 472 571 474 574 q 439 567 457 567 l 415 567 l 408 572 q 408 582 408 575 q 406 596 408 589 q 401 608 404 603 q 393 613 399 613 l 326 613 q 287 608 308 613 q 247 601 265 604 q 251 567 250 586 q 264 535 253 549 q 320 535 289 540 q 378 526 351 529 q 381 515 379 521 q 383 506 383 510 q 380 440 383 472 q 383 375 376 407 q 358 369 376 371 q 317 368 339 368 q 274 368 294 368 q 244 368 254 368 q 235 351 239 361 q 231 332 231 340 q 232 300 231 317 q 242 268 233 283 l 281 268 q 324 268 301 268 q 368 271 347 268 q 383 290 378 278 q 392 313 389 301 q 404 316 397 314 q 418 318 411 318 l 483 318 q 494 285 494 303 q 494 251 494 268 q 495 199 494 235 q 494 124 496 163 q 486 53 492 85 q 469 17 481 22 q 263 15 365 25 q 56 6 161 6 q 42 6 49 6 q 28 10 35 7 q 40 314 32 161 l 47 319 l 75 319 l 85 328 q 89 550 89 438 q 90 576 89 564 q 87 597 90 588 q 75 612 83 606 q 50 619 67 618 q 41 685 40 650 q 42 753 42 721 l 43 915 q 53 919 47 917 q 61 922 58 922 q 264 919 164 922 q 467 926 364 917 l 488 913 m 240 1172 l 276 1174 l 290 1169 q 331 1090 313 1133 q 349 1010 349 1046 q 353 990 351 1000 q 353 972 356 979 q 311 967 335 967 l 285 967 q 236 1001 264 976 q 181 1054 208 1026 q 131 1108 154 1082 q 93 1149 107 1135 q 88 1165 90 1156 q 92 1181 86 1174 l 147 1181 l 240 1172 z "},"":{"ha":571,"x_min":28,"x_max":496,"o":"m 28 6 m 488 913 q 485 871 486 900 q 483 804 485 842 q 481 727 482 767 q 478 653 479 688 q 475 597 476 619 q 472 571 474 574 q 439 567 457 567 l 415 567 l 408 572 q 408 582 408 575 q 406 596 408 589 q 401 608 404 603 q 393 613 399 613 l 326 613 q 287 608 308 613 q 247 601 265 604 q 251 567 250 586 q 264 535 253 549 q 320 535 289 540 q 378 526 351 529 q 381 515 379 521 q 383 506 383 510 q 380 440 383 472 q 383 375 376 407 q 358 369 376 371 q 317 368 339 368 q 274 368 294 368 q 244 368 254 368 q 235 351 239 361 q 231 332 231 340 q 232 300 231 317 q 242 268 233 283 l 281 268 q 324 268 301 268 q 368 271 347 268 q 383 290 378 278 q 392 313 389 301 q 404 316 397 314 q 418 318 411 318 l 483 318 q 494 285 494 303 q 494 251 494 268 q 495 199 494 235 q 494 124 496 163 q 486 53 492 85 q 469 17 481 22 q 263 15 365 25 q 56 6 161 6 q 42 6 49 6 q 28 10 35 7 q 40 314 32 161 l 47 319 l 75 319 l 85 328 q 89 550 89 438 q 90 576 89 564 q 87 597 90 588 q 75 612 83 606 q 50 619 67 618 q 41 685 40 650 q 42 753 42 721 l 43 915 q 53 919 47 917 q 61 922 58 922 q 264 919 164 922 q 467 926 364 917 l 488 913 m 411 1181 l 467 1181 q 470 1165 472 1174 q 465 1149 468 1156 q 428 1108 451 1135 q 377 1054 404 1082 q 322 1001 350 1026 q 274 967 294 976 l 247 967 q 206 972 224 967 q 205 990 203 979 q 210 1010 207 1000 q 228 1090 210 1046 q 268 1169 246 1133 l 282 1174 l 318 1172 l 411 1181 z "},"":{"ha":571,"x_min":28,"x_max":496,"o":"m 28 6 m 488 913 q 485 871 486 900 q 483 804 485 842 q 481 727 482 767 q 478 653 479 688 q 475 597 476 619 q 472 571 474 574 q 439 567 457 567 l 415 567 l 408 572 q 408 582 408 575 q 406 596 408 589 q 401 608 404 603 q 393 613 399 613 l 326 613 q 287 608 308 613 q 247 601 265 604 q 251 567 250 586 q 264 535 253 549 q 320 535 289 540 q 378 526 351 529 q 381 515 379 521 q 383 506 383 510 q 380 440 383 472 q 383 375 376 407 q 358 369 376 371 q 317 368 339 368 q 274 368 294 368 q 244 368 254 368 q 235 351 239 361 q 231 332 231 340 q 232 300 231 317 q 242 268 233 283 l 281 268 q 324 268 301 268 q 368 271 347 268 q 383 290 378 278 q 392 313 389 301 q 404 316 397 314 q 418 318 411 318 l 483 318 q 494 285 494 303 q 494 251 494 268 q 495 199 494 235 q 494 124 496 163 q 486 53 492 85 q 469 17 481 22 q 263 15 365 25 q 56 6 161 6 q 42 6 49 6 q 28 10 35 7 q 40 314 32 161 l 47 319 l 75 319 l 85 328 q 89 550 89 438 q 90 576 89 564 q 87 597 90 588 q 75 612 83 606 q 50 619 67 618 q 41 685 40 650 q 42 753 42 721 l 43 915 q 53 919 47 917 q 61 922 58 922 q 264 919 164 922 q 467 926 364 917 l 488 913 m 449 958 q 394 960 421 958 q 339 969 367 961 q 332 1026 332 1000 q 332 1051 332 1035 q 334 1083 332 1067 q 340 1113 336 1099 q 354 1132 344 1126 q 373 1135 364 1133 q 393 1136 382 1136 q 441 1135 417 1136 q 485 1119 465 1135 q 491 1081 490 1100 q 492 1043 492 1063 q 491 1026 492 1036 q 488 1005 490 1015 q 482 985 486 994 q 469 972 478 976 q 459 965 465 972 q 449 958 453 958 m 199 958 q 144 960 171 958 q 89 969 117 961 q 82 1026 82 1000 q 82 1051 82 1035 q 84 1083 82 1067 q 90 1113 86 1099 q 104 1132 94 1126 q 123 1135 114 1133 q 143 1136 132 1136 q 191 1135 167 1136 q 235 1119 215 1135 q 241 1081 240 1100 q 242 1043 242 1063 q 241 1026 242 1036 q 238 1005 240 1015 q 232 985 236 994 q 219 972 228 976 q 209 965 215 972 q 199 958 203 958 z "},"":{"ha":401,"x_min":-35,"x_max":342,"o":"m 0 4 m 40 911 q 161 913 101 910 q 282 915 221 915 q 288 847 289 882 q 288 781 288 813 q 289 735 288 761 q 281 692 290 708 q 252 674 263 692 q 237 628 242 656 q 231 566 232 600 q 230 499 229 532 q 232 439 231 467 q 233 397 233 411 q 234 342 233 369 q 246 290 235 315 l 318 254 q 328 197 328 226 q 328 136 329 167 q 329 75 328 106 q 342 17 331 44 q 322 14 340 15 q 277 11 304 13 q 218 8 250 10 q 157 6 186 7 q 105 5 128 6 q 75 4 82 4 q 56 5 65 4 q 39 8 47 6 q 32 55 33 32 q 31 101 31 78 q 33 192 31 147 q 38 281 35 236 l 40 286 l 82 289 q 89 322 86 296 q 93 382 92 347 q 94 456 94 417 q 94 533 94 496 q 94 599 94 569 q 94 642 94 628 q 89 657 94 644 q 81 674 83 669 l 47 692 q 39 736 42 710 q 35 791 36 763 q 35 847 35 819 q 35 893 35 874 q 37 902 35 897 q 40 911 39 907 m 119 1172 l 156 1174 l 169 1169 q 210 1090 192 1133 q 228 1010 228 1046 q 233 990 231 1000 q 232 972 235 979 q 190 967 214 967 l 164 967 q 115 1001 143 976 q 60 1054 88 1026 q 10 1108 33 1082 q -28 1149 -14 1135 q -33 1165 -31 1156 q -29 1181 -35 1174 l 26 1181 l 119 1172 z "},"":{"ha":401,"x_min":31,"x_max":342,"o":"m 31 4 m 40 911 q 161 913 101 910 q 282 915 221 915 q 288 847 289 882 q 288 781 288 813 q 289 735 288 761 q 281 692 290 708 q 252 674 263 692 q 237 628 242 656 q 231 566 232 600 q 230 499 229 532 q 232 439 231 467 q 233 397 233 411 q 234 342 233 369 q 246 290 235 315 l 318 254 q 328 197 328 226 q 328 136 329 167 q 329 75 328 106 q 342 17 331 44 q 322 14 340 15 q 277 11 304 13 q 218 8 250 10 q 157 6 186 7 q 105 5 128 6 q 75 4 82 4 q 56 5 65 4 q 39 8 47 6 q 32 55 33 32 q 31 101 31 78 q 33 192 31 147 q 38 281 35 236 l 40 286 l 82 289 q 89 322 86 296 q 93 382 92 347 q 94 456 94 417 q 94 533 94 496 q 94 599 94 569 q 94 642 94 628 q 89 657 94 644 q 81 674 83 669 l 47 692 q 39 736 42 710 q 35 791 36 763 q 35 847 35 819 q 35 893 35 874 q 37 902 35 897 q 40 911 39 907 m 274 1181 l 329 1181 q 333 1165 335 1174 q 328 1149 331 1156 q 290 1108 314 1135 q 240 1054 267 1082 q 185 1001 213 1026 q 136 967 157 976 l 110 967 q 68 972 86 967 q 67 990 65 979 q 72 1010 69 1000 q 90 1090 72 1046 q 131 1169 108 1133 l 144 1174 l 181 1172 l 274 1181 z "},"":{"ha":401,"x_min":-1,"x_max":408,"o":"m 0 4 m 40 911 q 161 913 101 910 q 282 915 221 915 q 288 847 289 882 q 288 781 288 813 q 289 735 288 761 q 281 692 290 708 q 252 674 263 692 q 237 628 242 656 q 231 566 232 600 q 230 499 229 532 q 232 439 231 467 q 233 397 233 411 q 234 342 233 369 q 246 290 235 315 l 318 254 q 328 197 328 226 q 328 136 329 167 q 329 75 328 106 q 342 17 331 44 q 322 14 340 15 q 277 11 304 13 q 218 8 250 10 q 157 6 186 7 q 105 5 128 6 q 75 4 82 4 q 56 5 65 4 q 39 8 47 6 q 32 55 33 32 q 31 101 31 78 q 33 192 31 147 q 38 281 35 236 l 40 286 l 82 289 q 89 322 86 296 q 93 382 92 347 q 94 456 94 417 q 94 533 94 496 q 94 599 94 569 q 94 642 94 628 q 89 657 94 644 q 81 674 83 669 l 47 692 q 39 736 42 710 q 35 791 36 763 q 35 847 35 819 q 35 893 35 874 q 37 902 35 897 q 40 911 39 907 m 365 958 q 310 960 338 958 q 256 969 283 961 q 249 1026 249 1000 q 249 1051 249 1035 q 251 1083 249 1067 q 257 1113 253 1099 q 271 1132 261 1126 q 290 1135 281 1133 q 310 1136 299 1136 q 358 1135 333 1136 q 401 1119 382 1135 q 408 1081 407 1100 q 408 1043 408 1063 q 408 1026 408 1036 q 405 1005 407 1015 q 399 985 403 994 q 386 972 394 976 q 376 965 382 972 q 365 958 369 958 m 115 958 q 60 960 88 958 q 6 969 33 961 q -1 1026 -1 1000 q -1 1051 -1 1035 q 1 1083 -1 1067 q 7 1113 3 1099 q 21 1132 11 1126 q 40 1135 31 1133 q 60 1136 49 1136 q 108 1135 83 1136 q 151 1119 132 1135 q 158 1081 157 1100 q 158 1043 158 1063 q 158 1026 158 1036 q 155 1005 157 1015 q 149 985 153 994 q 136 972 144 976 q 126 965 132 972 q 115 958 119 958 z "},"":{"ha":618,"x_min":32,"x_max":567,"o":"m 32 1 m 175 467 q 175 403 175 436 q 183 344 175 371 q 213 301 192 318 q 276 283 235 283 q 402 331 368 283 q 436 465 436 379 q 434 526 436 490 q 422 592 432 561 q 391 646 411 624 q 335 668 371 668 q 276 663 304 668 q 225 645 247 658 q 190 608 203 632 q 176 546 176 583 l 175 467 m 181 931 q 365 922 276 928 q 547 893 453 915 q 560 798 554 846 q 567 704 567 750 q 567 608 567 668 q 566 480 567 549 q 561 338 565 411 q 549 201 557 265 q 526 88 540 138 q 492 17 513 39 q 428 7 460 11 q 364 3 396 3 q 285 2 326 3 q 204 6 244 1 q 126 22 164 10 q 58 57 89 33 q 35 249 38 151 q 32 442 32 346 q 33 543 32 479 q 40 674 33 607 q 63 799 47 742 q 107 882 78 857 q 143 908 124 897 q 181 931 163 919 m 329 1172 l 365 1174 l 379 1169 q 419 1090 401 1133 q 438 1010 438 1046 q 442 990 440 1000 q 442 972 444 979 q 400 967 424 967 l 374 967 q 325 1001 353 976 q 270 1054 297 1026 q 219 1108 243 1082 q 182 1149 196 1135 q 177 1165 179 1156 q 181 1181 175 1174 l 236 1181 l 329 1172 z "},"":{"ha":618,"x_min":32,"x_max":567,"o":"m 32 1 m 175 467 q 175 403 175 436 q 183 344 175 371 q 213 301 192 318 q 276 283 235 283 q 402 331 368 283 q 436 465 436 379 q 434 526 436 490 q 422 592 432 561 q 391 646 411 624 q 335 668 371 668 q 276 663 304 668 q 225 645 247 658 q 190 608 203 632 q 176 546 176 583 l 175 467 m 181 931 q 365 922 276 928 q 547 893 453 915 q 560 798 554 846 q 567 704 567 750 q 567 608 567 668 q 566 480 567 549 q 561 338 565 411 q 549 201 557 265 q 526 88 540 138 q 492 17 513 39 q 428 7 460 11 q 364 3 396 3 q 285 2 326 3 q 204 6 244 1 q 126 22 164 10 q 58 57 89 33 q 35 249 38 151 q 32 442 32 346 q 33 543 32 479 q 40 674 33 607 q 63 799 47 742 q 107 882 78 857 q 143 908 124 897 q 181 931 163 919 m 465 1181 l 521 1181 q 524 1165 526 1174 q 519 1149 522 1156 q 482 1108 506 1135 q 431 1054 458 1082 q 376 1001 404 1026 q 328 967 349 976 l 301 967 q 260 972 278 967 q 259 990 257 979 q 264 1010 261 1000 q 282 1090 264 1046 q 322 1169 300 1133 l 336 1174 l 372 1172 l 465 1181 z "},"":{"ha":618,"x_min":32,"x_max":567,"o":"m 32 1 m 175 467 q 175 403 175 436 q 183 344 175 371 q 213 301 192 318 q 276 283 235 283 q 402 331 368 283 q 436 465 436 379 q 434 526 436 490 q 422 592 432 561 q 391 646 411 624 q 335 668 371 668 q 276 663 304 668 q 225 645 247 658 q 190 608 203 632 q 176 546 176 583 l 175 467 m 181 931 q 365 922 276 928 q 547 893 453 915 q 560 798 554 846 q 567 704 567 750 q 567 608 567 668 q 566 480 567 549 q 561 338 565 411 q 549 201 557 265 q 526 88 540 138 q 492 17 513 39 q 428 7 460 11 q 364 3 396 3 q 285 2 326 3 q 204 6 244 1 q 126 22 164 10 q 58 57 89 33 q 35 249 38 151 q 32 442 32 346 q 33 543 32 479 q 40 674 33 607 q 63 799 47 742 q 107 882 78 857 q 143 908 124 897 q 181 931 163 919 m 472 958 q 417 960 444 958 q 363 969 390 961 q 356 1026 356 1000 q 356 1051 356 1035 q 358 1083 356 1067 q 364 1113 360 1099 q 378 1132 368 1126 q 397 1135 388 1133 q 417 1136 406 1136 q 465 1135 440 1136 q 508 1119 489 1135 q 515 1081 514 1100 q 515 1043 515 1063 q 515 1026 515 1036 q 512 1005 514 1015 q 506 985 510 994 q 493 972 501 976 q 483 965 489 972 q 472 958 476 958 m 222 958 q 167 960 194 958 q 113 969 140 961 q 106 1026 106 1000 q 106 1051 106 1035 q 108 1083 106 1067 q 114 1113 110 1099 q 128 1132 118 1126 q 147 1135 138 1133 q 167 1136 156 1136 q 215 1135 190 1136 q 258 1119 239 1135 q 265 1081 264 1100 q 265 1043 265 1063 q 265 1026 265 1036 q 262 1005 264 1015 q 256 985 260 994 q 243 972 251 976 q 233 965 239 972 q 222 958 226 958 z "},"":{"ha":678,"x_min":32,"x_max":635,"o":"m 32 6 m 39 913 q 167 907 104 907 q 294 906 229 907 q 297 894 296 900 q 299 881 299 888 q 297 847 299 874 q 294 791 296 821 q 291 738 293 761 q 289 714 289 714 l 247 706 q 234 647 239 682 q 227 576 229 613 q 224 503 225 539 q 224 440 224 467 q 225 372 224 404 q 246 308 226 340 q 280 294 265 297 q 318 292 294 292 q 386 322 364 292 q 416 394 408 351 q 422 483 424 436 q 421 564 421 529 q 422 592 421 582 q 423 610 424 603 q 418 625 422 618 q 401 643 414 632 q 401 763 403 703 q 399 882 400 822 q 401 897 399 889 q 406 910 403 904 q 503 910 454 907 q 603 914 553 914 l 631 911 l 635 763 q 626 732 635 746 q 603 707 617 718 q 573 686 589 696 q 544 668 557 676 q 533 619 536 651 q 529 553 529 588 q 530 484 529 518 q 531 429 531 450 q 531 245 531 335 q 519 61 531 156 q 449 31 490 42 q 363 14 408 19 q 274 7 318 8 q 194 6 229 6 q 144 18 167 6 q 94 33 121 31 q 81 65 88 46 q 74 99 74 83 q 82 356 74 228 q 90 613 90 485 q 87 629 90 619 q 81 646 83 639 l 42 657 q 35 700 38 667 q 33 772 33 733 q 32 845 32 810 q 32 896 32 881 q 35 905 32 900 q 39 913 39 910 m 281 1172 l 317 1174 l 331 1169 q 371 1090 353 1133 q 389 1010 389 1046 q 394 990 392 1000 q 393 972 396 979 q 351 967 375 967 l 325 967 q 276 1001 304 976 q 222 1054 249 1026 q 171 1108 194 1082 q 133 1149 147 1135 q 128 1165 131 1156 q 132 1181 126 1174 l 188 1181 l 281 1172 z "},"":{"ha":678,"x_min":32,"x_max":635,"o":"m 32 6 m 39 913 q 167 907 104 907 q 294 906 229 907 q 297 894 296 900 q 299 881 299 888 q 297 847 299 874 q 294 791 296 821 q 291 738 293 761 q 289 714 289 714 l 247 706 q 234 647 239 682 q 227 576 229 613 q 224 503 225 539 q 224 440 224 467 q 225 372 224 404 q 246 308 226 340 q 280 294 265 297 q 318 292 294 292 q 386 322 364 292 q 416 394 408 351 q 422 483 424 436 q 421 564 421 529 q 422 592 421 582 q 423 610 424 603 q 418 625 422 618 q 401 643 414 632 q 401 763 403 703 q 399 882 400 822 q 401 897 399 889 q 406 910 403 904 q 503 910 454 907 q 603 914 553 914 l 631 911 l 635 763 q 626 732 635 746 q 603 707 617 718 q 573 686 589 696 q 544 668 557 676 q 533 619 536 651 q 529 553 529 588 q 530 484 529 518 q 531 429 531 450 q 531 245 531 335 q 519 61 531 156 q 449 31 490 42 q 363 14 408 19 q 274 7 318 8 q 194 6 229 6 q 144 18 167 6 q 94 33 121 31 q 81 65 88 46 q 74 99 74 83 q 82 356 74 228 q 90 613 90 485 q 87 629 90 619 q 81 646 83 639 l 42 657 q 35 700 38 667 q 33 772 33 733 q 32 845 32 810 q 32 896 32 881 q 35 905 32 900 q 39 913 39 910 m 514 1181 l 569 1181 q 573 1165 575 1174 q 568 1149 571 1156 q 531 1108 554 1135 q 480 1054 507 1082 q 425 1001 453 1026 q 376 967 397 976 l 350 967 q 308 972 326 967 q 308 990 306 979 q 313 1010 310 1000 q 331 1090 313 1046 q 371 1169 349 1133 l 385 1174 l 421 1172 l 514 1181 z "},"":{"ha":678,"x_min":32,"x_max":635,"o":"m 32 6 m 39 913 q 167 907 104 907 q 294 906 229 907 q 297 894 296 900 q 299 881 299 888 q 297 847 299 874 q 294 791 296 821 q 291 738 293 761 q 289 714 289 714 l 247 706 q 234 647 239 682 q 227 576 229 613 q 224 503 225 539 q 224 440 224 467 q 225 372 224 404 q 246 308 226 340 q 280 294 265 297 q 318 292 294 292 q 386 322 364 292 q 416 394 408 351 q 422 483 424 436 q 421 564 421 529 q 422 592 421 582 q 423 610 424 603 q 418 625 422 618 q 401 643 414 632 q 401 763 403 703 q 399 882 400 822 q 401 897 399 889 q 406 910 403 904 q 503 910 454 907 q 603 914 553 914 l 631 911 l 635 763 q 626 732 635 746 q 603 707 617 718 q 573 686 589 696 q 544 668 557 676 q 533 619 536 651 q 529 553 529 588 q 530 484 529 518 q 531 429 531 450 q 531 245 531 335 q 519 61 531 156 q 449 31 490 42 q 363 14 408 19 q 274 7 318 8 q 194 6 229 6 q 144 18 167 6 q 94 33 121 31 q 81 65 88 46 q 74 99 74 83 q 82 356 74 228 q 90 613 90 485 q 87 629 90 619 q 81 646 83 639 l 42 657 q 35 700 38 667 q 33 772 33 733 q 32 845 32 810 q 32 896 32 881 q 35 905 32 900 q 39 913 39 910 m 501 958 q 447 960 474 958 q 392 969 419 961 q 385 1026 385 1000 q 385 1051 385 1035 q 387 1083 385 1067 q 393 1113 389 1099 q 407 1132 397 1126 q 426 1135 417 1133 q 446 1136 435 1136 q 494 1135 469 1136 q 538 1119 518 1135 q 544 1081 543 1100 q 544 1043 544 1063 q 544 1026 544 1036 q 541 1005 543 1015 q 535 985 539 994 q 522 972 531 976 q 512 965 518 972 q 501 958 506 958 m 251 958 q 197 960 224 958 q 142 969 169 961 q 135 1026 135 1000 q 135 1051 135 1035 q 137 1083 135 1067 q 143 1113 139 1099 q 157 1132 147 1126 q 176 1135 167 1133 q 196 1136 185 1136 q 244 1135 219 1136 q 288 1119 268 1135 q 294 1081 293 1100 q 294 1043 294 1063 q 294 1026 294 1036 q 291 1005 293 1015 q 285 985 289 994 q 272 972 281 976 q 262 965 268 972 q 251 958 256 958 z "},"":{"ha":643,"x_min":28,"x_max":599,"o":"m 28 6 m 56 911 q 76 915 67 914 q 96 917 86 917 l 235 913 l 251 901 q 239 860 244 882 q 233 818 233 838 q 246 694 233 757 l 242 685 q 224 680 233 685 q 208 668 215 675 q 235 625 219 644 q 264 582 250 606 q 283 574 272 579 q 306 568 294 568 q 332 578 319 568 q 355 603 344 589 q 374 631 365 617 q 392 656 383 646 q 372 708 374 676 q 372 773 369 739 q 374 839 374 807 q 364 893 375 871 l 382 910 q 433 914 408 913 q 483 915 458 915 q 533 913 510 915 q 579 899 556 910 q 589 860 589 879 q 594 759 589 810 q 599 656 599 708 l 596 622 q 577 613 588 617 q 556 608 567 608 q 540 610 550 608 q 517 611 529 611 q 495 609 506 611 q 481 601 485 607 q 447 514 460 568 q 427 401 435 460 q 417 285 419 342 q 414 192 414 229 l 418 181 l 450 182 q 453 175 451 179 q 456 168 456 171 q 449 91 456 131 q 439 15 443 51 q 408 10 435 11 q 350 7 382 8 q 289 6 318 6 q 251 6 260 6 q 213 10 225 6 q 197 24 201 14 q 194 49 193 33 q 196 88 196 65 q 201 145 196 124 q 215 182 207 167 q 233 211 224 197 q 250 247 242 225 q 264 301 258 268 q 269 388 269 333 q 268 425 269 407 q 264 463 267 443 q 200 496 224 476 q 158 536 176 515 q 124 577 140 557 q 82 613 107 597 q 46 628 57 614 q 31 661 35 642 q 29 703 28 681 q 31 743 31 725 q 31 785 31 761 q 33 832 31 808 q 40 876 35 856 q 56 911 44 897 m 478 1181 l 533 1181 q 537 1165 539 1174 q 532 1149 535 1156 q 494 1108 518 1135 q 444 1054 471 1082 q 389 1001 417 1026 q 340 967 361 976 l 314 967 q 272 972 290 967 q 272 990 269 979 q 276 1010 274 1000 q 294 1090 276 1046 q 335 1169 313 1133 l 349 1174 l 385 1172 l 478 1181 z "},"":{"ha":713,"x_min":32,"x_max":671,"o":"m 32 3 m 321 632 q 303 618 310 632 q 293 585 296 604 q 290 548 290 567 q 289 521 289 529 q 291 445 289 482 q 293 369 293 408 l 293 350 l 307 349 q 356 358 329 349 l 356 389 q 353 483 356 435 q 339 575 350 531 q 336 587 338 578 q 332 606 335 596 q 326 624 329 617 q 321 632 324 632 m 142 914 q 310 909 226 907 q 478 911 393 911 q 494 828 483 872 q 506 747 506 783 l 504 725 q 488 707 496 719 q 479 685 479 694 q 488 651 479 681 q 508 578 496 621 q 536 486 521 536 q 565 393 551 436 q 588 319 578 350 q 601 283 599 289 q 610 280 604 282 q 618 278 615 278 l 654 281 l 660 274 q 667 150 663 213 q 671 28 671 88 q 665 4 671 15 q 613 10 639 4 q 563 17 586 17 q 488 10 526 17 q 411 3 449 3 q 376 8 392 3 q 372 80 375 44 q 368 150 368 115 l 368 176 l 382 185 l 382 189 q 374 224 382 208 q 367 257 365 239 l 276 257 q 256 233 267 246 q 242 206 244 221 l 249 188 q 276 154 274 172 q 279 108 279 136 q 275 26 279 68 q 159 24 217 28 q 43 19 101 19 q 37 31 42 22 q 32 43 32 40 q 33 150 32 97 q 40 256 35 203 l 47 264 l 78 264 q 91 296 82 269 q 111 360 100 322 q 133 440 122 397 q 153 523 144 483 q 169 592 163 563 q 175 631 175 621 q 174 651 175 642 q 168 672 174 661 l 140 685 q 134 728 136 700 q 131 785 132 756 q 129 844 129 815 q 129 890 129 872 l 131 906 l 142 914 m 267 1172 l 303 1174 l 317 1169 q 357 1090 339 1133 q 375 1010 375 1046 q 380 990 378 1000 q 379 972 382 979 q 338 967 361 967 l 311 967 q 263 1001 290 976 q 208 1054 235 1026 q 157 1108 181 1082 q 119 1149 133 1135 q 115 1165 117 1156 q 118 1181 113 1174 l 174 1181 l 267 1172 z "},"":{"ha":713,"x_min":32,"x_max":671,"o":"m 32 3 m 321 632 q 303 618 310 632 q 293 585 296 604 q 290 548 290 567 q 289 521 289 529 q 291 445 289 482 q 293 369 293 408 l 293 350 l 307 349 q 356 358 329 349 l 356 389 q 353 483 356 435 q 339 575 350 531 q 336 587 338 578 q 332 606 335 596 q 326 624 329 617 q 321 632 324 632 m 142 914 q 310 909 226 907 q 478 911 393 911 q 494 828 483 872 q 506 747 506 783 l 504 725 q 488 707 496 719 q 479 685 479 694 q 488 651 479 681 q 508 578 496 621 q 536 486 521 536 q 565 393 551 436 q 588 319 578 350 q 601 283 599 289 q 610 280 604 282 q 618 278 615 278 l 654 281 l 660 274 q 667 150 663 213 q 671 28 671 88 q 665 4 671 15 q 613 10 639 4 q 563 17 586 17 q 488 10 526 17 q 411 3 449 3 q 376 8 392 3 q 372 80 375 44 q 368 150 368 115 l 368 176 l 382 185 l 382 189 q 374 224 382 208 q 367 257 365 239 l 276 257 q 256 233 267 246 q 242 206 244 221 l 249 188 q 276 154 274 172 q 279 108 279 136 q 275 26 279 68 q 159 24 217 28 q 43 19 101 19 q 37 31 42 22 q 32 43 32 40 q 33 150 32 97 q 40 256 35 203 l 47 264 l 78 264 q 91 296 82 269 q 111 360 100 322 q 133 440 122 397 q 153 523 144 483 q 169 592 163 563 q 175 631 175 621 q 174 651 175 642 q 168 672 174 661 l 140 685 q 134 728 136 700 q 131 785 132 756 q 129 844 129 815 q 129 890 129 872 l 131 906 l 142 914 m 429 1181 l 485 1181 q 488 1165 490 1174 q 483 1149 486 1156 q 446 1108 469 1135 q 395 1054 422 1082 q 340 1001 368 1026 q 292 967 313 976 l 265 967 q 224 972 242 967 q 223 990 221 979 q 228 1010 225 1000 q 246 1090 228 1046 q 286 1169 264 1133 l 300 1174 l 336 1172 l 429 1181 z "},"":{"ha":713,"x_min":32,"x_max":671,"o":"m 32 3 m 321 632 q 303 618 310 632 q 293 585 296 604 q 290 548 290 567 q 289 521 289 529 q 291 445 289 482 q 293 369 293 408 l 293 350 l 307 349 q 356 358 329 349 l 356 389 q 353 483 356 435 q 339 575 350 531 q 336 587 338 578 q 332 606 335 596 q 326 624 329 617 q 321 632 324 632 m 142 914 q 310 909 226 907 q 478 911 393 911 q 494 828 483 872 q 506 747 506 783 l 504 725 q 488 707 496 719 q 479 685 479 694 q 488 651 479 681 q 508 578 496 621 q 536 486 521 536 q 565 393 551 436 q 588 319 578 350 q 601 283 599 289 q 610 280 604 282 q 618 278 615 278 l 654 281 l 660 274 q 667 150 663 213 q 671 28 671 88 q 665 4 671 15 q 613 10 639 4 q 563 17 586 17 q 488 10 526 17 q 411 3 449 3 q 376 8 392 3 q 372 80 375 44 q 368 150 368 115 l 368 176 l 382 185 l 382 189 q 374 224 382 208 q 367 257 365 239 l 276 257 q 256 233 267 246 q 242 206 244 221 l 249 188 q 276 154 274 172 q 279 108 279 136 q 275 26 279 68 q 159 24 217 28 q 43 19 101 19 q 37 31 42 22 q 32 43 32 40 q 33 150 32 97 q 40 256 35 203 l 47 264 l 78 264 q 91 296 82 269 q 111 360 100 322 q 133 440 122 397 q 153 523 144 483 q 169 592 163 563 q 175 631 175 621 q 174 651 175 642 q 168 672 174 661 l 140 685 q 134 728 136 700 q 131 785 132 756 q 129 844 129 815 q 129 890 129 872 l 131 906 l 142 914 m 472 958 q 417 960 444 958 q 363 969 390 961 q 356 1026 356 1000 q 356 1051 356 1035 q 358 1083 356 1067 q 364 1113 360 1099 q 378 1132 368 1126 q 397 1135 388 1133 q 417 1136 406 1136 q 465 1135 440 1136 q 508 1119 489 1135 q 515 1081 514 1100 q 515 1043 515 1063 q 515 1026 515 1036 q 512 1005 514 1015 q 506 985 510 994 q 493 972 501 976 q 483 965 489 972 q 472 958 476 958 m 222 958 q 167 960 194 958 q 113 969 140 961 q 106 1026 106 1000 q 106 1051 106 1035 q 108 1083 106 1067 q 114 1113 110 1099 q 128 1132 118 1126 q 147 1135 138 1133 q 167 1136 156 1136 q 215 1135 190 1136 q 258 1119 239 1135 q 265 1081 264 1100 q 265 1043 265 1063 q 265 1026 265 1036 q 262 1005 264 1015 q 256 985 260 994 q 243 972 251 976 q 233 965 239 972 q 222 958 226 958 z "},"":{"ha":713,"x_min":32,"x_max":671,"o":"m 32 3 m 321 632 q 303 618 310 632 q 293 585 296 604 q 290 548 290 567 q 289 521 289 529 q 291 445 289 482 q 293 369 293 408 l 293 350 l 307 349 q 356 358 329 349 l 356 389 q 353 483 356 435 q 339 575 350 531 q 336 587 338 578 q 332 606 335 596 q 326 624 329 617 q 321 632 324 632 m 142 914 q 310 909 226 907 q 478 911 393 911 q 494 828 483 872 q 506 747 506 783 l 504 725 q 488 707 496 719 q 479 685 479 694 q 488 651 479 681 q 508 578 496 621 q 536 486 521 536 q 565 393 551 436 q 588 319 578 350 q 601 283 599 289 q 610 280 604 282 q 618 278 615 278 l 654 281 l 660 274 q 667 150 663 213 q 671 28 671 88 q 665 4 671 15 q 613 10 639 4 q 563 17 586 17 q 488 10 526 17 q 411 3 449 3 q 376 8 392 3 q 372 80 375 44 q 368 150 368 115 l 368 176 l 382 185 l 382 189 q 374 224 382 208 q 367 257 365 239 l 276 257 q 256 233 267 246 q 242 206 244 221 l 249 188 q 276 154 274 172 q 279 108 279 136 q 275 26 279 68 q 159 24 217 28 q 43 19 101 19 q 37 31 42 22 q 32 43 32 40 q 33 150 32 97 q 40 256 35 203 l 47 264 l 78 264 q 91 296 82 269 q 111 360 100 322 q 133 440 122 397 q 153 523 144 483 q 169 592 163 563 q 175 631 175 621 q 174 651 175 642 q 168 672 174 661 l 140 685 q 134 728 136 700 q 131 785 132 756 q 129 844 129 815 q 129 890 129 872 l 131 906 l 142 914 m 181 1126 q 194 1181 181 1160 q 229 1215 207 1203 q 280 1231 251 1226 q 339 1235 308 1235 q 395 1221 375 1235 q 426 1186 415 1207 q 438 1142 436 1165 q 440 1101 440 1119 q 406 1008 440 1040 q 281 975 372 975 q 217 987 239 975 q 188 1017 196 999 q 179 1059 179 1036 q 179 1103 179 1082 l 181 1126 m 264 1125 q 265 1075 263 1092 q 281 1058 267 1058 q 341 1069 325 1058 q 357 1101 357 1081 q 354 1133 357 1115 q 339 1151 351 1151 q 287 1147 310 1151 q 264 1125 264 1142 z "},"":{"ha":571,"x_min":28,"x_max":496,"o":"m 28 6 m 488 913 q 485 871 486 900 q 483 804 485 842 q 481 727 482 767 q 478 653 479 688 q 475 597 476 619 q 472 571 474 574 q 439 567 457 567 l 415 567 l 408 572 q 408 582 408 575 q 406 596 408 589 q 401 608 404 603 q 393 613 399 613 l 326 613 q 287 608 308 613 q 247 601 265 604 q 251 567 250 586 q 264 535 253 549 q 320 535 289 540 q 378 526 351 529 q 381 515 379 521 q 383 506 383 510 q 380 440 383 472 q 383 375 376 407 q 358 369 376 371 q 317 368 339 368 q 274 368 294 368 q 244 368 254 368 q 235 351 239 361 q 231 332 231 340 q 232 300 231 317 q 242 268 233 283 l 281 268 q 324 268 301 268 q 368 271 347 268 q 383 290 378 278 q 392 313 389 301 q 404 316 397 314 q 418 318 411 318 l 483 318 q 494 285 494 303 q 494 251 494 268 q 495 199 494 235 q 494 124 496 163 q 486 53 492 85 q 469 17 481 22 q 263 15 365 25 q 56 6 161 6 q 42 6 49 6 q 28 10 35 7 q 40 314 32 161 l 47 319 l 75 319 l 85 328 q 89 550 89 438 q 90 576 89 564 q 87 597 90 588 q 75 612 83 606 q 50 619 67 618 q 41 685 40 650 q 42 753 42 721 l 43 915 q 53 919 47 917 q 61 922 58 922 q 264 919 164 922 q 467 926 364 917 l 488 913 m 246 1172 l 282 1174 l 296 1169 q 336 1090 318 1133 q 354 1010 354 1046 q 359 990 357 1000 q 358 972 361 979 q 317 967 340 967 l 290 967 q 242 1001 269 976 q 187 1054 214 1026 q 136 1108 160 1082 q 99 1149 113 1135 q 94 1165 96 1156 q 97 1181 92 1174 l 153 1181 l 246 1172 z "},"":{"ha":571,"x_min":28,"x_max":496,"o":"m 28 6 m 488 913 q 485 871 486 900 q 483 804 485 842 q 481 727 482 767 q 478 653 479 688 q 475 597 476 619 q 472 571 474 574 q 439 567 457 567 l 415 567 l 408 572 q 408 582 408 575 q 406 596 408 589 q 401 608 404 603 q 393 613 399 613 l 326 613 q 287 608 308 613 q 247 601 265 604 q 251 567 250 586 q 264 535 253 549 q 320 535 289 540 q 378 526 351 529 q 381 515 379 521 q 383 506 383 510 q 380 440 383 472 q 383 375 376 407 q 358 369 376 371 q 317 368 339 368 q 274 368 294 368 q 244 368 254 368 q 235 351 239 361 q 231 332 231 340 q 232 300 231 317 q 242 268 233 283 l 281 268 q 324 268 301 268 q 368 271 347 268 q 383 290 378 278 q 392 313 389 301 q 404 316 397 314 q 418 318 411 318 l 483 318 q 494 285 494 303 q 494 251 494 268 q 495 199 494 235 q 494 124 496 163 q 486 53 492 85 q 469 17 481 22 q 263 15 365 25 q 56 6 161 6 q 42 6 49 6 q 28 10 35 7 q 40 314 32 161 l 47 319 l 75 319 l 85 328 q 89 550 89 438 q 90 576 89 564 q 87 597 90 588 q 75 612 83 606 q 50 619 67 618 q 41 685 40 650 q 42 753 42 721 l 43 915 q 53 919 47 917 q 61 922 58 922 q 264 919 164 922 q 467 926 364 917 l 488 913 m 421 1181 l 476 1181 q 480 1165 482 1174 q 475 1149 478 1156 q 438 1108 461 1135 q 387 1054 414 1082 q 332 1001 360 1026 q 283 967 304 976 l 257 967 q 215 972 233 967 q 215 990 213 979 q 219 1010 217 1000 q 238 1090 219 1046 q 278 1169 256 1133 l 292 1174 l 328 1172 l 421 1181 z "},"":{"ha":571,"x_min":28,"x_max":496,"o":"m 28 6 m 488 913 q 485 871 486 900 q 483 804 485 842 q 481 727 482 767 q 478 653 479 688 q 475 597 476 619 q 472 571 474 574 q 439 567 457 567 l 415 567 l 408 572 q 408 582 408 575 q 406 596 408 589 q 401 608 404 603 q 393 613 399 613 l 326 613 q 287 608 308 613 q 247 601 265 604 q 251 567 250 586 q 264 535 253 549 q 320 535 289 540 q 378 526 351 529 q 381 515 379 521 q 383 506 383 510 q 380 440 383 472 q 383 375 376 407 q 358 369 376 371 q 317 368 339 368 q 274 368 294 368 q 244 368 254 368 q 235 351 239 361 q 231 332 231 340 q 232 300 231 317 q 242 268 233 283 l 281 268 q 324 268 301 268 q 368 271 347 268 q 383 290 378 278 q 392 313 389 301 q 404 316 397 314 q 418 318 411 318 l 483 318 q 494 285 494 303 q 494 251 494 268 q 495 199 494 235 q 494 124 496 163 q 486 53 492 85 q 469 17 481 22 q 263 15 365 25 q 56 6 161 6 q 42 6 49 6 q 28 10 35 7 q 40 314 32 161 l 47 319 l 75 319 l 85 328 q 89 550 89 438 q 90 576 89 564 q 87 597 90 588 q 75 612 83 606 q 50 619 67 618 q 41 685 40 650 q 42 753 42 721 l 43 915 q 53 919 47 917 q 61 922 58 922 q 264 919 164 922 q 467 926 364 917 l 488 913 m 449 958 q 394 960 421 958 q 339 969 367 961 q 332 1026 332 1000 q 332 1051 332 1035 q 334 1083 332 1067 q 340 1113 336 1099 q 354 1132 344 1126 q 373 1135 364 1133 q 393 1136 382 1136 q 441 1135 417 1136 q 485 1119 465 1135 q 491 1081 490 1100 q 492 1043 492 1063 q 491 1026 492 1036 q 488 1005 490 1015 q 482 985 486 994 q 469 972 478 976 q 459 965 465 972 q 449 958 453 958 m 199 958 q 144 960 171 958 q 89 969 117 961 q 82 1026 82 1000 q 82 1051 82 1035 q 84 1083 82 1067 q 90 1113 86 1099 q 104 1132 94 1126 q 123 1135 114 1133 q 143 1136 132 1136 q 191 1135 167 1136 q 235 1119 215 1135 q 241 1081 240 1100 q 242 1043 242 1063 q 241 1026 242 1036 q 238 1005 240 1015 q 232 985 236 994 q 219 972 228 976 q 209 965 215 972 q 199 958 203 958 z "},"":{"ha":401,"x_min":-42,"x_max":342,"o":"m 0 4 m 40 911 q 161 913 101 910 q 282 915 221 915 q 288 847 289 882 q 288 781 288 813 q 289 735 288 761 q 281 692 290 708 q 252 674 263 692 q 237 628 242 656 q 231 566 232 600 q 230 499 229 532 q 232 439 231 467 q 233 397 233 411 q 234 342 233 369 q 246 290 235 315 l 318 254 q 328 197 328 226 q 328 136 329 167 q 329 75 328 106 q 342 17 331 44 q 322 14 340 15 q 277 11 304 13 q 218 8 250 10 q 157 6 186 7 q 105 5 128 6 q 75 4 82 4 q 56 5 65 4 q 39 8 47 6 q 32 55 33 32 q 31 101 31 78 q 33 192 31 147 q 38 281 35 236 l 40 286 l 82 289 q 89 322 86 296 q 93 382 92 347 q 94 456 94 417 q 94 533 94 496 q 94 599 94 569 q 94 642 94 628 q 89 657 94 644 q 81 674 83 669 l 47 692 q 39 736 42 710 q 35 791 36 763 q 35 847 35 819 q 35 893 35 874 q 37 902 35 897 q 40 911 39 907 m 113 1172 l 149 1174 l 163 1169 q 203 1090 185 1133 q 221 1010 221 1046 q 226 990 224 1000 q 225 972 228 979 q 183 967 207 967 l 157 967 q 108 1001 136 976 q 53 1054 81 1026 q 3 1108 26 1082 q -35 1149 -21 1135 q -40 1165 -37 1156 q -36 1181 -42 1174 l 19 1181 l 113 1172 z "},"":{"ha":401,"x_min":31,"x_max":363,"o":"m 31 4 m 40 911 q 161 913 101 910 q 282 915 221 915 q 288 847 289 882 q 288 781 288 813 q 289 735 288 761 q 281 692 290 708 q 252 674 263 692 q 237 628 242 656 q 231 566 232 600 q 230 499 229 532 q 232 439 231 467 q 233 397 233 411 q 234 342 233 369 q 246 290 235 315 l 318 254 q 328 197 328 226 q 328 136 329 167 q 329 75 328 106 q 342 17 331 44 q 322 14 340 15 q 277 11 304 13 q 218 8 250 10 q 157 6 186 7 q 105 5 128 6 q 75 4 82 4 q 56 5 65 4 q 39 8 47 6 q 32 55 33 32 q 31 101 31 78 q 33 192 31 147 q 38 281 35 236 l 40 286 l 82 289 q 89 322 86 296 q 93 382 92 347 q 94 456 94 417 q 94 533 94 496 q 94 599 94 569 q 94 642 94 628 q 89 657 94 644 q 81 674 83 669 l 47 692 q 39 736 42 710 q 35 791 36 763 q 35 847 35 819 q 35 893 35 874 q 37 902 35 897 q 40 911 39 907 m 301 1181 l 357 1181 q 360 1165 363 1174 q 356 1149 358 1156 q 318 1108 342 1135 q 267 1054 294 1082 q 213 1001 240 1026 q 164 967 185 976 l 138 967 q 96 972 114 967 q 95 990 93 979 q 100 1010 97 1000 q 118 1090 100 1046 q 158 1169 136 1133 l 172 1174 l 208 1172 l 301 1181 z "},"":{"ha":401,"x_min":-1,"x_max":408,"o":"m 0 4 m 40 911 q 161 913 101 910 q 282 915 221 915 q 288 847 289 882 q 288 781 288 813 q 289 735 288 761 q 281 692 290 708 q 252 674 263 692 q 237 628 242 656 q 231 566 232 600 q 230 499 229 532 q 232 439 231 467 q 233 397 233 411 q 234 342 233 369 q 246 290 235 315 l 318 254 q 328 197 328 226 q 328 136 329 167 q 329 75 328 106 q 342 17 331 44 q 322 14 340 15 q 277 11 304 13 q 218 8 250 10 q 157 6 186 7 q 105 5 128 6 q 75 4 82 4 q 56 5 65 4 q 39 8 47 6 q 32 55 33 32 q 31 101 31 78 q 33 192 31 147 q 38 281 35 236 l 40 286 l 82 289 q 89 322 86 296 q 93 382 92 347 q 94 456 94 417 q 94 533 94 496 q 94 599 94 569 q 94 642 94 628 q 89 657 94 644 q 81 674 83 669 l 47 692 q 39 736 42 710 q 35 791 36 763 q 35 847 35 819 q 35 893 35 874 q 37 902 35 897 q 40 911 39 907 m 365 958 q 310 960 338 958 q 256 969 283 961 q 249 1026 249 1000 q 249 1051 249 1035 q 251 1083 249 1067 q 257 1113 253 1099 q 271 1132 261 1126 q 290 1135 281 1133 q 310 1136 299 1136 q 358 1135 333 1136 q 401 1119 382 1135 q 408 1081 407 1100 q 408 1043 408 1063 q 408 1026 408 1036 q 405 1005 407 1015 q 399 985 403 994 q 386 972 394 976 q 376 965 382 972 q 365 958 369 958 m 115 958 q 60 960 88 958 q 6 969 33 961 q -1 1026 -1 1000 q -1 1051 -1 1035 q 1 1083 -1 1067 q 7 1113 3 1099 q 21 1132 11 1126 q 40 1135 31 1133 q 60 1136 49 1136 q 108 1135 83 1136 q 151 1119 132 1135 q 158 1081 157 1100 q 158 1043 158 1063 q 158 1026 158 1036 q 155 1005 157 1015 q 149 985 153 994 q 136 972 144 976 q 126 965 132 972 q 115 958 119 958 z "},"":{"ha":618,"x_min":32,"x_max":567,"o":"m 32 1 m 146 546 q 146 463 146 510 q 156 374 146 415 q 194 306 167 332 q 276 283 222 279 q 402 331 368 283 q 436 465 436 379 q 434 526 436 490 q 422 592 432 561 q 391 646 411 624 q 335 668 371 668 q 271 663 304 668 q 210 645 238 658 q 164 608 182 632 q 146 546 146 583 m 181 931 q 365 922 276 928 q 547 893 453 915 q 560 798 554 846 q 567 704 567 750 q 567 608 567 668 q 566 480 567 549 q 561 338 565 411 q 549 201 557 265 q 526 88 540 138 q 492 17 513 39 q 428 7 460 11 q 364 3 396 3 q 285 2 326 3 q 204 6 244 1 q 126 22 164 10 q 58 57 89 33 q 35 249 38 151 q 32 442 32 346 q 33 543 32 479 q 40 674 33 607 q 63 799 47 742 q 107 882 78 857 q 143 908 124 897 q 181 931 163 919 m 329 1172 l 365 1174 l 379 1169 q 419 1090 401 1133 q 438 1010 438 1046 q 442 990 440 1000 q 442 972 444 979 q 400 967 424 967 l 374 967 q 325 1001 353 976 q 270 1054 297 1026 q 219 1108 243 1082 q 182 1149 196 1135 q 177 1165 179 1156 q 181 1181 175 1174 l 236 1181 l 329 1172 z "},"":{"ha":618,"x_min":32,"x_max":567,"o":"m 32 1 m 146 546 q 146 463 146 510 q 156 374 146 415 q 194 306 167 332 q 276 283 222 279 q 402 331 368 283 q 436 465 436 379 q 434 526 436 490 q 422 592 432 561 q 391 646 411 624 q 335 668 371 668 q 271 663 304 668 q 210 645 238 658 q 164 608 182 632 q 146 546 146 583 m 181 931 q 365 922 276 928 q 547 893 453 915 q 560 798 554 846 q 567 704 567 750 q 567 608 567 668 q 566 480 567 549 q 561 338 565 411 q 549 201 557 265 q 526 88 540 138 q 492 17 513 39 q 428 7 460 11 q 364 3 396 3 q 285 2 326 3 q 204 6 244 1 q 126 22 164 10 q 58 57 89 33 q 35 249 38 151 q 32 442 32 346 q 33 543 32 479 q 40 674 33 607 q 63 799 47 742 q 107 882 78 857 q 143 908 124 897 q 181 931 163 919 m 494 1181 l 550 1181 q 553 1165 556 1174 q 549 1149 551 1156 q 511 1108 535 1135 q 460 1054 488 1082 q 406 1001 433 1026 q 357 967 378 976 l 331 967 q 289 972 307 967 q 288 990 286 979 q 293 1010 290 1000 q 311 1090 293 1046 q 351 1169 329 1133 l 365 1174 l 401 1172 l 494 1181 z "},"":{"ha":618,"x_min":32,"x_max":567,"o":"m 32 1 m 146 546 q 146 463 146 510 q 156 374 146 415 q 194 306 167 332 q 276 283 222 279 q 402 331 368 283 q 436 465 436 379 q 434 526 436 490 q 422 592 432 561 q 391 646 411 624 q 335 668 371 668 q 271 663 304 668 q 210 645 238 658 q 164 608 182 632 q 146 546 146 583 m 181 931 q 365 922 276 928 q 547 893 453 915 q 560 798 554 846 q 567 704 567 750 q 567 608 567 668 q 566 480 567 549 q 561 338 565 411 q 549 201 557 265 q 526 88 540 138 q 492 17 513 39 q 428 7 460 11 q 364 3 396 3 q 285 2 326 3 q 204 6 244 1 q 126 22 164 10 q 58 57 89 33 q 35 249 38 151 q 32 442 32 346 q 33 543 32 479 q 40 674 33 607 q 63 799 47 742 q 107 882 78 857 q 143 908 124 897 q 181 931 163 919 m 472 958 q 417 960 444 958 q 363 969 390 961 q 356 1026 356 1000 q 356 1051 356 1035 q 358 1083 356 1067 q 364 1113 360 1099 q 378 1132 368 1126 q 397 1135 388 1133 q 417 1136 406 1136 q 465 1135 440 1136 q 508 1119 489 1135 q 515 1081 514 1100 q 515 1043 515 1063 q 515 1026 515 1036 q 512 1005 514 1015 q 506 985 510 994 q 493 972 501 976 q 483 965 489 972 q 472 958 476 958 m 222 958 q 167 960 194 958 q 113 969 140 961 q 106 1026 106 1000 q 106 1051 106 1035 q 108 1083 106 1067 q 114 1113 110 1099 q 128 1132 118 1126 q 147 1135 138 1133 q 167 1136 156 1136 q 215 1135 190 1136 q 258 1119 239 1135 q 265 1081 264 1100 q 265 1043 265 1063 q 265 1026 265 1036 q 262 1005 264 1015 q 256 985 260 994 q 243 972 251 976 q 233 965 239 972 q 222 958 226 958 z "},"":{"ha":678,"x_min":32,"x_max":635,"o":"m 32 6 m 39 913 q 167 907 104 907 q 294 906 229 907 q 297 894 296 900 q 299 881 299 888 q 297 847 299 874 q 294 791 296 821 q 291 738 293 761 q 289 714 289 714 l 247 706 q 234 647 239 682 q 227 576 229 613 q 224 503 225 539 q 224 440 224 467 q 225 372 224 404 q 246 308 226 340 q 280 294 265 297 q 318 292 294 292 q 386 322 364 292 q 416 394 408 351 q 422 483 424 436 q 421 564 421 529 q 422 592 421 582 q 423 610 424 603 q 418 625 422 618 q 401 643 414 632 q 401 763 403 703 q 399 882 400 822 q 401 897 399 889 q 406 910 403 904 q 503 910 454 907 q 603 914 553 914 l 631 911 l 635 763 q 626 732 635 746 q 603 707 617 718 q 573 686 589 696 q 544 668 557 676 q 533 619 536 651 q 529 553 529 588 q 530 484 529 518 q 531 429 531 450 q 531 245 531 335 q 519 61 531 156 q 449 31 490 42 q 363 14 408 19 q 274 7 318 8 q 194 6 229 6 q 144 18 167 6 q 94 33 121 31 q 81 65 88 46 q 74 99 74 83 q 82 356 74 228 q 90 613 90 485 q 87 629 90 619 q 81 646 83 639 l 42 657 q 35 700 38 667 q 33 772 33 733 q 32 845 32 810 q 32 896 32 881 q 35 905 32 900 q 39 913 39 910 m 271 1172 l 307 1174 l 321 1169 q 361 1090 343 1133 q 379 1010 379 1046 q 384 990 382 1000 q 383 972 386 979 q 342 967 365 967 l 315 967 q 267 1001 294 976 q 212 1054 239 1026 q 161 1108 185 1082 q 124 1149 138 1135 q 119 1165 121 1156 q 122 1181 117 1174 l 178 1181 l 271 1172 z "},"":{"ha":678,"x_min":32,"x_max":635,"o":"m 32 6 m 39 913 q 167 907 104 907 q 294 906 229 907 q 297 894 296 900 q 299 881 299 888 q 297 847 299 874 q 294 791 296 821 q 291 738 293 761 q 289 714 289 714 l 247 706 q 234 647 239 682 q 227 576 229 613 q 224 503 225 539 q 224 440 224 467 q 225 372 224 404 q 246 308 226 340 q 280 294 265 297 q 318 292 294 292 q 386 322 364 292 q 416 394 408 351 q 422 483 424 436 q 421 564 421 529 q 422 592 421 582 q 423 610 424 603 q 418 625 422 618 q 401 643 414 632 q 401 763 403 703 q 399 882 400 822 q 401 897 399 889 q 406 910 403 904 q 503 910 454 907 q 603 914 553 914 l 631 911 l 635 763 q 626 732 635 746 q 603 707 617 718 q 573 686 589 696 q 544 668 557 676 q 533 619 536 651 q 529 553 529 588 q 530 484 529 518 q 531 429 531 450 q 531 245 531 335 q 519 61 531 156 q 449 31 490 42 q 363 14 408 19 q 274 7 318 8 q 194 6 229 6 q 144 18 167 6 q 94 33 121 31 q 81 65 88 46 q 74 99 74 83 q 82 356 74 228 q 90 613 90 485 q 87 629 90 619 q 81 646 83 639 l 42 657 q 35 700 38 667 q 33 772 33 733 q 32 845 32 810 q 32 896 32 881 q 35 905 32 900 q 39 913 39 910 m 511 1181 l 567 1181 q 570 1165 572 1174 q 565 1149 568 1156 q 528 1108 551 1135 q 477 1054 504 1082 q 422 1001 450 1026 q 374 967 394 976 l 347 967 q 306 972 324 967 q 305 990 303 979 q 310 1010 307 1000 q 328 1090 310 1046 q 368 1169 346 1133 l 382 1174 l 418 1172 l 511 1181 z "},"":{"ha":678,"x_min":32,"x_max":635,"o":"m 32 6 m 39 913 q 167 907 104 907 q 294 906 229 907 q 297 894 296 900 q 299 881 299 888 q 297 847 299 874 q 294 791 296 821 q 291 738 293 761 q 289 714 289 714 l 247 706 q 234 647 239 682 q 227 576 229 613 q 224 503 225 539 q 224 440 224 467 q 225 372 224 404 q 246 308 226 340 q 280 294 265 297 q 318 292 294 292 q 386 322 364 292 q 416 394 408 351 q 422 483 424 436 q 421 564 421 529 q 422 592 421 582 q 423 610 424 603 q 418 625 422 618 q 401 643 414 632 q 401 763 403 703 q 399 882 400 822 q 401 897 399 889 q 406 910 403 904 q 503 910 454 907 q 603 914 553 914 l 631 911 l 635 763 q 626 732 635 746 q 603 707 617 718 q 573 686 589 696 q 544 668 557 676 q 533 619 536 651 q 529 553 529 588 q 530 484 529 518 q 531 429 531 450 q 531 245 531 335 q 519 61 531 156 q 449 31 490 42 q 363 14 408 19 q 274 7 318 8 q 194 6 229 6 q 144 18 167 6 q 94 33 121 31 q 81 65 88 46 q 74 99 74 83 q 82 356 74 228 q 90 613 90 485 q 87 629 90 619 q 81 646 83 639 l 42 657 q 35 700 38 667 q 33 772 33 733 q 32 845 32 810 q 32 896 32 881 q 35 905 32 900 q 39 913 39 910 m 501 958 q 447 960 474 958 q 392 969 419 961 q 385 1026 385 1000 q 385 1051 385 1035 q 387 1083 385 1067 q 393 1113 389 1099 q 407 1132 397 1126 q 426 1135 417 1133 q 446 1136 435 1136 q 494 1135 469 1136 q 538 1119 518 1135 q 544 1081 543 1100 q 544 1043 544 1063 q 544 1026 544 1036 q 541 1005 543 1015 q 535 985 539 994 q 522 972 531 976 q 512 965 518 972 q 501 958 506 958 m 251 958 q 197 960 224 958 q 142 969 169 961 q 135 1026 135 1000 q 135 1051 135 1035 q 137 1083 135 1067 q 143 1113 139 1099 q 157 1132 147 1126 q 176 1135 167 1133 q 196 1136 185 1136 q 244 1135 219 1136 q 288 1119 268 1135 q 294 1081 293 1100 q 294 1043 294 1063 q 294 1026 294 1036 q 291 1005 293 1015 q 285 985 289 994 q 272 972 281 976 q 262 965 268 972 q 251 958 256 958 z "},"":{"ha":643,"x_min":28,"x_max":599,"o":"m 28 6 m 56 911 q 76 915 67 914 q 96 917 86 917 l 235 913 l 251 901 q 239 860 244 882 q 233 818 233 838 q 246 694 233 757 l 242 685 q 224 680 233 685 q 208 668 215 675 q 235 625 219 644 q 264 582 250 606 q 283 574 272 579 q 306 568 294 568 q 332 578 319 568 q 355 603 344 589 q 374 631 365 617 q 392 656 383 646 q 372 708 374 676 q 372 773 369 739 q 374 839 374 807 q 364 893 375 871 l 382 910 q 433 914 408 913 q 483 915 458 915 q 533 913 510 915 q 579 899 556 910 q 589 860 589 879 q 594 759 589 810 q 599 656 599 708 l 596 622 q 577 613 588 617 q 556 608 567 608 q 540 610 550 608 q 517 611 529 611 q 495 609 506 611 q 481 601 485 607 q 447 514 460 568 q 427 401 435 460 q 417 285 419 342 q 414 192 414 229 l 418 181 l 450 182 q 453 175 451 179 q 456 168 456 171 q 449 91 456 131 q 439 15 443 51 q 408 10 435 11 q 350 7 382 8 q 289 6 318 6 q 251 6 260 6 q 213 10 225 6 q 197 24 201 14 q 194 49 193 33 q 196 88 196 65 q 201 145 196 124 q 215 182 207 167 q 233 211 224 197 q 250 247 242 225 q 264 301 258 268 q 269 388 269 333 q 268 425 269 407 q 264 463 267 443 q 200 496 224 476 q 158 536 176 515 q 124 577 140 557 q 82 613 107 597 q 46 628 57 614 q 31 661 35 642 q 29 703 28 681 q 31 743 31 725 q 31 785 31 761 q 33 832 31 808 q 40 876 35 856 q 56 911 44 897 m 476 1181 l 532 1181 q 535 1165 538 1174 q 531 1149 533 1156 q 493 1108 517 1135 q 442 1054 469 1082 q 388 1001 415 1026 q 339 967 360 976 l 313 967 q 271 972 289 967 q 270 990 268 979 q 275 1010 272 1000 q 293 1090 275 1046 q 333 1169 311 1133 l 347 1174 l 383 1172 l 476 1181 z "},"":{"ha":643,"x_min":28,"x_max":599,"o":"m 28 6 m 56 911 q 76 915 67 914 q 96 917 86 917 l 235 913 l 251 901 q 239 860 244 882 q 233 818 233 838 q 246 694 233 757 l 242 685 q 224 680 233 685 q 208 668 215 675 q 235 625 219 644 q 264 582 250 606 q 283 574 272 579 q 306 568 294 568 q 332 578 319 568 q 355 603 344 589 q 374 631 365 617 q 392 656 383 646 q 372 708 374 676 q 372 773 369 739 q 374 839 374 807 q 364 893 375 871 l 382 910 q 433 914 408 913 q 483 915 458 915 q 533 913 510 915 q 579 899 556 910 q 589 860 589 879 q 594 759 589 810 q 599 656 599 708 l 596 622 q 577 613 588 617 q 556 608 567 608 q 540 610 550 608 q 517 611 529 611 q 495 609 506 611 q 481 601 485 607 q 447 514 460 568 q 427 401 435 460 q 417 285 419 342 q 414 192 414 229 l 418 181 l 450 182 q 453 175 451 179 q 456 168 456 171 q 449 91 456 131 q 439 15 443 51 q 408 10 435 11 q 350 7 382 8 q 289 6 318 6 q 251 6 260 6 q 213 10 225 6 q 197 24 201 14 q 194 49 193 33 q 196 88 196 65 q 201 145 196 124 q 215 182 207 167 q 233 211 224 197 q 250 247 242 225 q 264 301 258 268 q 269 388 269 333 q 268 425 269 407 q 264 463 267 443 q 200 496 224 476 q 158 536 176 515 q 124 577 140 557 q 82 613 107 597 q 46 628 57 614 q 31 661 35 642 q 29 703 28 681 q 31 743 31 725 q 31 785 31 761 q 33 832 31 808 q 40 876 35 856 q 56 911 44 897 m 485 958 q 430 960 457 958 q 375 969 403 961 q 368 1026 368 1000 q 368 1051 368 1035 q 370 1083 368 1067 q 376 1113 372 1099 q 390 1132 381 1126 q 409 1135 400 1133 q 429 1136 418 1136 q 477 1135 453 1136 q 521 1119 501 1135 q 527 1081 526 1100 q 528 1043 528 1063 q 527 1026 528 1036 q 524 1005 526 1015 q 518 985 522 994 q 506 972 514 976 q 495 965 501 972 q 485 958 489 958 m 235 958 q 180 960 207 958 q 125 969 153 961 q 118 1026 118 1000 q 118 1051 118 1035 q 120 1083 118 1067 q 126 1113 122 1099 q 140 1132 131 1126 q 159 1135 150 1133 q 179 1136 168 1136 q 227 1135 203 1136 q 271 1119 251 1135 q 277 1081 276 1100 q 278 1043 278 1063 q 277 1026 278 1036 q 274 1005 276 1015 q 268 985 272 994 q 256 972 264 976 q 245 965 251 972 q 235 958 239 958 z "},"":{"ha":401,"x_min":31,"x_max":342,"o":"m 40 911 q 161 913 101 910 q 282 915 221 915 q 288 847 289 882 q 288 781 288 813 q 289 735 288 761 q 281 692 290 708 q 252 674 263 692 q 237 628 242 656 q 231 566 232 600 q 230 499 229 532 q 232 439 231 467 q 233 397 233 411 q 234 342 233 369 q 246 290 235 315 l 318 254 q 328 197 328 226 q 328 136 329 167 q 329 75 328 106 q 342 17 331 44 q 322 14 340 15 q 277 11 304 13 q 218 8 250 10 q 157 6 186 7 q 105 5 128 6 q 75 4 82 4 q 56 5 65 4 q 39 8 47 6 q 32 55 33 32 q 31 101 31 78 q 33 192 31 147 q 38 281 35 236 l 40 286 l 82 289 q 89 322 86 296 q 93 382 92 347 q 94 456 94 417 q 94 533 94 496 q 94 599 94 569 q 94 642 94 628 q 89 657 94 644 q 81 674 83 669 l 47 692 q 39 736 42 710 q 35 791 36 763 q 35 847 35 819 q 35 893 35 874 q 37 902 35 897 q 40 911 39 907 z "},"":{"ha":643,"x_min":28,"x_max":599,"o":"m 28 6 m 56 911 q 76 915 67 914 q 96 917 86 917 l 235 913 l 251 901 q 239 860 244 882 q 233 818 233 838 q 246 694 233 757 l 242 685 q 224 680 233 685 q 208 668 215 675 q 235 625 219 644 q 264 582 250 606 q 283 574 272 579 q 306 568 294 568 q 332 578 319 568 q 355 603 344 589 q 374 631 365 617 q 392 656 383 646 q 372 708 374 676 q 372 773 369 739 q 374 839 374 807 q 364 893 375 871 l 382 910 q 433 914 408 913 q 483 915 458 915 q 533 913 510 915 q 579 899 556 910 q 589 860 589 879 q 594 759 589 810 q 599 656 599 708 l 596 622 q 577 613 588 617 q 556 608 567 608 q 540 610 550 608 q 517 611 529 611 q 495 609 506 611 q 481 601 485 607 q 447 514 460 568 q 427 401 435 460 q 417 285 419 342 q 414 192 414 229 l 418 181 l 450 182 q 453 175 451 179 q 456 168 456 171 q 449 91 456 131 q 439 15 443 51 q 408 10 435 11 q 350 7 382 8 q 289 6 318 6 q 251 6 260 6 q 213 10 225 6 q 197 24 201 14 q 194 49 193 33 q 196 88 196 65 q 201 145 196 124 q 215 182 207 167 q 233 211 224 197 q 250 247 242 225 q 264 301 258 268 q 269 388 269 333 q 268 425 269 407 q 264 463 267 443 q 200 496 224 476 q 158 536 176 515 q 124 577 140 557 q 82 613 107 597 q 46 628 57 614 q 31 661 35 642 q 29 703 28 681 q 31 743 31 725 q 31 785 31 761 q 33 832 31 808 q 40 876 35 856 q 56 911 44 897 m 485 958 q 430 960 457 958 q 375 969 403 961 q 368 1026 368 1000 q 368 1051 368 1035 q 370 1083 368 1067 q 376 1113 372 1099 q 390 1132 381 1126 q 409 1135 400 1133 q 429 1136 418 1136 q 477 1135 453 1136 q 521 1119 501 1135 q 527 1081 526 1100 q 528 1043 528 1063 q 527 1026 528 1036 q 524 1005 526 1015 q 518 985 522 994 q 506 972 514 976 q 495 965 501 972 q 485 958 489 958 m 235 958 q 180 960 207 958 q 125 969 153 961 q 118 1026 118 1000 q 118 1051 118 1035 q 120 1083 118 1067 q 126 1113 122 1099 q 140 1132 131 1126 q 159 1135 150 1133 q 179 1136 168 1136 q 227 1135 203 1136 q 271 1119 251 1135 q 277 1081 276 1100 q 278 1043 278 1063 q 277 1026 278 1036 q 274 1005 276 1015 q 268 985 272 994 q 256 972 264 976 q 245 965 251 972 q 235 958 239 958 z "},"":{"ha":350,"x_min":69,"x_max":281,"o":"m 142 524 q 128 544 135 533 q 117 572 121 554 l 115 582 l 133 606 q 156 664 139 636 q 178 724 172 692 l 81 724 q 71 740 72 731 q 69 756 69 749 q 69 796 69 769 q 72 850 69 822 q 78 903 74 878 q 89 938 82 928 l 157 938 q 213 936 185 938 q 268 932 240 935 q 277 915 274 925 q 281 894 281 904 q 280 815 281 858 q 275 735 279 771 l 238 578 l 210 535 q 193 525 203 528 l 142 524 z "},"":{"ha":438,"x_min":42,"x_max":396,"o":"m 396 1131 q 386 1083 390 1113 q 369 1025 382 1053 q 329 976 356 997 q 254 956 303 956 q 128 965 171 956 q 65 990 85 974 q 44 1029 46 1007 q 42 1078 42 1051 l 43 1117 q 53 1117 47 1117 q 64 1118 60 1118 q 92 1117 83 1118 q 113 1114 101 1115 l 128 1101 l 129 1071 l 190 1067 q 251 1076 228 1068 q 288 1094 274 1083 q 306 1117 301 1106 q 311 1136 311 1128 q 396 1131 356 1138 z "},"":{"ha":274,"x_min":71,"x_max":231,"o":"m 188 958 q 133 960 160 958 q 78 969 106 961 q 71 1026 71 1000 q 71 1051 71 1035 q 73 1083 71 1067 q 79 1113 75 1099 q 93 1132 83 1126 q 112 1135 103 1133 q 132 1136 121 1136 q 180 1135 156 1136 q 224 1119 204 1135 q 230 1081 229 1100 q 231 1043 231 1063 q 230 1026 231 1036 q 227 1005 229 1015 q 221 985 225 994 q 208 972 217 976 q 198 965 204 972 q 188 958 192 958 z "},"":{"ha":431,"x_min":104,"x_max":365,"o":"m 106 1126 q 119 1181 106 1160 q 154 1215 132 1203 q 205 1231 176 1226 q 264 1235 233 1235 q 320 1221 300 1235 q 351 1186 340 1207 q 363 1142 361 1165 q 365 1101 365 1119 q 331 1008 365 1040 q 206 975 297 975 q 142 987 164 975 q 113 1017 121 999 q 104 1059 104 1036 q 104 1103 104 1082 l 106 1126 m 189 1125 q 190 1075 188 1092 q 206 1058 192 1058 q 266 1069 250 1058 q 282 1101 282 1081 q 279 1133 282 1115 q 264 1151 276 1151 q 212 1147 235 1151 q 189 1125 189 1142 z "},"":{"ha":571,"x_min":28,"x_max":496,"o":"m 28 6 m 488 913 q 485 871 486 900 q 483 804 485 842 q 481 727 482 767 q 478 653 479 688 q 475 597 476 619 q 472 571 474 574 q 439 567 457 567 l 415 567 l 408 572 q 408 582 408 575 q 406 596 408 589 q 401 608 404 603 q 393 613 399 613 l 326 613 q 287 608 308 613 q 247 601 265 604 q 251 567 250 586 q 264 535 253 549 q 320 535 289 540 q 378 526 351 529 q 381 515 379 521 q 383 506 383 510 q 380 440 383 472 q 383 375 376 407 q 358 369 376 371 q 317 368 339 368 q 274 368 294 368 q 244 368 254 368 q 235 351 239 361 q 231 332 231 340 q 232 300 231 317 q 242 268 233 283 l 281 268 q 324 268 301 268 q 368 271 347 268 q 383 290 378 278 q 392 313 389 301 q 404 316 397 314 q 418 318 411 318 l 483 318 q 494 285 494 303 q 494 251 494 268 q 495 199 494 235 q 494 124 496 163 q 486 53 492 85 q 469 17 481 22 q 263 15 365 25 q 56 6 161 6 q 42 6 49 6 q 28 10 35 7 q 40 314 32 161 l 47 319 l 75 319 l 85 328 q 89 550 89 438 q 90 576 89 564 q 87 597 90 588 q 75 612 83 606 q 50 619 67 618 q 41 685 40 650 q 42 753 42 721 l 43 915 q 53 919 47 917 q 61 922 58 922 q 264 919 164 922 q 467 926 364 917 l 488 913 m 226 1172 l 263 1174 l 276 1169 q 317 1090 299 1133 q 335 1010 335 1046 q 340 990 338 1000 q 339 972 342 979 q 297 967 321 967 l 271 967 q 222 1001 250 976 q 167 1054 194 1026 q 117 1108 140 1082 q 79 1149 93 1135 q 74 1165 76 1156 q 78 1181 72 1174 l 133 1181 l 226 1172 z "},"":{"ha":571,"x_min":28,"x_max":496,"o":"m 488 913 q 485 871 486 900 q 483 804 485 842 q 481 727 482 767 q 478 653 479 688 q 475 597 476 619 q 472 571 474 574 q 439 567 457 567 l 415 567 l 408 572 q 408 582 408 575 q 406 596 408 589 q 401 608 404 603 q 393 613 399 613 l 326 613 q 287 608 308 613 q 247 601 265 604 q 251 567 250 586 q 264 535 253 549 q 320 535 289 540 q 378 526 351 529 q 381 515 379 521 q 383 506 383 510 q 380 440 383 472 q 383 375 376 407 q 358 369 376 371 q 317 368 339 368 q 274 368 294 368 q 244 368 254 368 q 235 351 239 361 q 231 332 231 340 q 232 300 231 317 q 242 268 233 283 l 281 268 q 324 268 301 268 q 368 271 347 268 q 383 290 378 278 q 392 313 389 301 q 404 316 397 314 q 418 318 411 318 l 483 318 q 494 285 494 303 q 494 251 494 268 q 495 199 494 235 q 494 124 496 163 q 486 53 492 85 q 469 17 481 22 q 263 15 365 25 q 56 6 161 6 q 42 6 49 6 q 28 10 35 7 q 40 314 32 161 l 47 319 l 75 319 l 85 328 q 89 550 89 438 q 90 576 89 564 q 87 597 90 588 q 75 612 83 606 q 50 619 67 618 q 41 685 40 650 q 42 753 42 721 l 43 915 q 53 919 47 917 q 61 922 58 922 q 264 919 164 922 q 467 926 364 917 l 488 913 m 438 958 q 383 960 410 958 q 328 969 356 961 q 321 1026 321 1000 q 321 1051 321 1035 q 323 1083 321 1067 q 329 1113 325 1099 q 343 1132 333 1126 q 362 1135 353 1133 q 382 1136 371 1136 q 430 1135 406 1136 q 474 1119 454 1135 q 480 1081 479 1100 q 481 1043 481 1063 q 480 1026 481 1036 q 477 1005 479 1015 q 471 985 475 994 q 458 972 467 976 q 448 965 454 972 q 438 958 442 958 m 188 958 q 133 960 160 958 q 78 969 106 961 q 71 1026 71 1000 q 71 1051 71 1035 q 73 1083 71 1067 q 79 1113 75 1099 q 93 1132 83 1126 q 112 1135 103 1133 q 132 1136 121 1136 q 180 1135 156 1136 q 224 1119 204 1135 q 230 1081 229 1100 q 231 1043 231 1063 q 230 1026 231 1036 q 227 1005 229 1015 q 221 985 225 994 q 208 972 217 976 q 198 965 204 972 q 188 958 192 958 z "},"":{"ha":696,"x_min":25,"x_max":639,"o":"m 492 333 q 458 422 492 397 q 361 451 425 447 q 349 438 354 447 q 343 422 343 429 l 336 276 l 357 239 l 354 1 q 252 10 301 1 q 153 13 203 18 q 140 81 140 44 q 140 151 140 117 q 139 187 140 168 q 140 223 138 206 q 149 253 142 240 q 175 274 157 267 q 188 345 183 293 q 196 458 193 397 q 199 573 199 518 q 200 654 200 628 l 188 672 q 148 672 168 672 q 106 674 128 672 q 100 667 103 674 q 95 653 97 661 q 90 640 93 646 q 85 633 88 633 l 38 636 q 36 773 38 704 q 25 908 35 842 q 70 914 50 913 q 110 916 90 915 q 149 917 129 917 q 196 917 169 917 q 242 916 211 917 q 311 915 274 915 q 389 913 349 914 q 465 910 429 913 q 526 906 500 908 q 563 901 553 904 q 544 681 544 794 l 535 632 l 499 632 l 479 674 l 335 675 l 326 668 q 321 628 321 651 q 327 588 321 607 q 350 553 333 568 q 493 541 438 544 q 581 517 549 538 q 626 446 614 496 q 639 296 639 396 q 638 206 639 250 q 628 124 638 161 q 599 58 619 86 q 538 15 578 29 q 494 8 514 8 q 450 7 474 7 q 424 8 438 7 q 400 19 411 10 q 406 131 407 71 q 417 240 406 192 q 451 257 433 246 q 478 262 467 260 q 490 267 490 264 q 492 301 490 281 q 492 333 493 322 z "},"":{"ha":546,"x_min":29,"x_max":497,"o":"m 432 1181 l 488 1181 q 491 1165 493 1174 q 486 1149 489 1156 q 449 1108 472 1135 q 398 1054 425 1082 q 343 1001 371 1026 q 294 967 315 976 l 268 967 q 226 972 244 967 q 226 990 224 979 q 231 1010 228 1000 q 249 1090 231 1046 q 289 1169 267 1133 l 303 1174 l 339 1172 l 432 1181 m 178 928 q 333 924 256 928 q 489 924 410 921 q 497 885 497 910 q 496 843 496 860 q 493 713 496 778 q 485 583 490 649 q 476 578 482 581 q 467 576 469 576 q 446 575 458 576 q 425 581 433 574 l 415 614 q 401 621 408 617 q 386 625 393 625 q 300 622 343 625 q 214 622 257 619 q 206 583 206 603 q 206 524 206 567 q 208 431 206 482 q 217 331 211 381 q 232 253 222 282 q 234 249 233 250 q 239 243 235 247 q 251 233 243 239 q 275 217 260 226 q 280 206 278 211 q 282 196 282 200 q 281 158 282 183 q 280 105 281 132 q 276 53 279 78 q 269 19 274 29 q 240 19 254 22 q 215 15 226 15 q 129 14 171 15 q 44 0 88 13 q 33 37 36 14 q 29 85 29 60 q 30 136 29 111 q 31 179 31 161 l 31 225 l 39 233 q 77 258 67 231 q 90 321 88 285 q 89 394 92 357 q 86 453 86 432 q 86 542 86 499 q 75 631 86 586 l 47 638 q 42 668 42 649 q 47 783 42 726 q 50 897 53 839 l 61 918 q 119 924 89 921 q 178 928 150 928 z "},"":{"ha":596,"x_min":29,"x_max":549,"o":"m 107 894 q 219 922 161 919 q 335 924 276 924 q 383 914 356 924 q 429 896 410 904 l 438 901 q 449 931 438 917 q 492 924 472 929 q 536 914 513 918 q 549 871 549 894 q 546 706 549 788 q 543 543 543 625 l 531 540 q 485 540 518 540 q 417 541 453 540 q 351 542 382 542 q 314 544 321 543 q 290 593 303 572 q 243 614 278 614 q 206 610 222 614 q 177 593 189 606 q 160 556 165 581 q 156 493 154 532 q 188 493 169 493 q 223 492 206 493 q 255 490 240 492 q 276 486 269 489 q 273 433 269 458 q 276 381 276 408 q 274 371 276 376 q 269 360 271 365 q 214 351 244 357 q 156 349 183 346 q 169 291 158 313 q 197 258 179 269 q 236 242 214 246 q 283 238 258 238 q 302 242 290 238 q 321 249 314 246 q 346 285 336 267 q 365 325 356 304 q 433 335 394 336 q 504 342 472 335 q 514 317 513 331 q 515 292 515 304 q 510 206 515 249 q 507 121 506 164 q 456 62 483 85 q 398 26 429 39 q 331 10 367 14 q 254 6 296 6 q 85 63 142 6 q 29 229 29 119 q 29 326 29 269 q 31 446 29 382 q 37 576 32 510 q 50 703 42 643 q 72 814 58 764 q 107 894 86 864 z "},"":{"ha":590,"x_min":26,"x_max":539,"o":"m 143 939 q 259 930 200 939 q 372 921 318 921 q 421 924 399 921 q 471 917 443 928 q 477 881 476 899 q 478 843 478 863 q 478 733 478 790 q 471 628 478 676 l 458 619 q 420 618 439 619 q 382 617 401 617 q 363 618 372 617 q 343 622 353 619 l 338 628 l 333 665 l 322 675 l 303 679 q 269 669 282 679 q 247 643 256 658 q 236 609 239 628 q 233 574 233 590 q 244 532 233 546 q 271 512 254 518 q 308 506 288 506 q 349 506 328 506 q 392 507 368 506 q 439 508 415 508 q 484 502 463 507 q 522 483 506 497 q 535 430 532 457 q 538 375 538 403 q 538 289 538 339 q 534 188 539 239 q 515 92 529 138 q 471 19 500 46 q 438 17 467 19 q 372 10 408 14 q 300 2 335 6 q 250 -1 265 -1 q 189 1 222 -1 q 126 15 156 4 q 78 48 97 26 q 58 108 58 69 q 58 162 58 125 q 57 239 57 199 q 60 316 57 279 q 71 368 63 353 q 129 368 100 367 q 188 369 158 369 q 219 364 207 369 q 218 324 218 346 q 224 284 218 303 q 242 253 229 265 q 281 240 256 240 q 321 251 304 240 q 354 279 338 263 q 357 314 356 296 q 358 349 358 332 q 337 395 358 379 q 285 418 315 411 q 222 425 254 425 q 169 425 190 425 q 129 424 147 425 q 89 417 111 422 q 46 449 58 426 q 30 501 33 472 q 28 562 26 531 q 31 618 31 593 q 29 675 31 642 q 29 744 28 708 q 35 815 31 779 q 53 877 40 850 q 87 922 65 904 q 143 939 108 939 z "},"":{"ha":401,"x_min":31,"x_max":342,"o":"m 40 911 q 161 913 101 910 q 282 915 221 915 q 288 847 289 882 q 288 781 288 813 q 289 735 288 761 q 281 692 290 708 q 252 674 263 692 q 237 628 242 656 q 231 566 232 600 q 230 499 229 532 q 232 439 231 467 q 233 397 233 411 q 234 342 233 369 q 246 290 235 315 l 318 254 q 328 197 328 226 q 328 136 329 167 q 329 75 328 106 q 342 17 331 44 q 322 14 340 15 q 277 11 304 13 q 218 8 250 10 q 157 6 186 7 q 105 5 128 6 q 75 4 82 4 q 56 5 65 4 q 39 8 47 6 q 32 55 33 32 q 31 101 31 78 q 33 192 31 147 q 38 281 35 236 l 40 286 l 82 289 q 89 322 86 296 q 93 382 92 347 q 94 456 94 417 q 94 533 94 496 q 94 599 94 569 q 94 642 94 628 q 89 657 94 644 q 81 674 83 669 l 47 692 q 39 736 42 710 q 35 791 36 763 q 35 847 35 819 q 35 893 35 874 q 37 902 35 897 q 40 911 39 907 z "},"":{"ha":406,"x_min":17,"x_max":389,"o":"m 88 911 q 208 913 149 910 q 331 915 268 915 q 335 847 336 882 q 335 781 335 813 q 336 735 335 761 q 329 692 338 708 q 301 674 311 692 q 285 628 290 656 q 278 566 279 600 q 277 499 276 532 q 279 439 278 467 q 281 397 281 411 q 282 342 281 369 q 293 290 283 315 l 340 279 q 361 151 358 219 q 364 17 364 83 q 346 14 363 15 q 305 11 329 13 q 251 8 281 10 q 196 6 222 7 q 149 5 169 6 q 122 4 129 4 q 103 5 113 4 q 86 8 94 6 q 81 55 82 32 q 79 101 79 78 q 81 192 79 147 q 85 281 82 236 l 88 286 l 131 289 q 137 322 135 296 q 140 382 139 347 q 142 456 142 417 q 143 533 143 496 q 143 599 143 569 q 143 642 143 628 q 137 657 143 644 q 129 674 131 669 l 94 692 q 86 736 89 710 q 83 791 83 763 q 82 847 82 819 q 82 893 82 874 q 84 902 82 897 q 88 911 86 907 m 60 1128 q 115 1126 89 1128 q 169 1117 142 1124 q 176 1060 176 1086 q 176 1035 176 1051 q 174 1003 176 1019 q 168 974 172 988 q 154 954 164 960 q 135 951 144 953 q 115 950 126 950 q 67 950 92 950 q 24 967 43 950 q 17 1005 18 986 q 17 1043 17 1024 q 19 1081 17 1056 q 39 1114 22 1106 q 49 1121 43 1114 q 60 1128 56 1128 m 272 1128 q 327 1126 300 1128 q 382 1117 354 1124 q 389 1060 389 1086 q 389 1035 389 1051 q 387 1003 389 1019 q 381 974 385 988 q 367 954 376 960 q 348 951 357 953 q 328 950 339 950 q 280 950 304 950 q 236 967 256 950 q 230 1005 231 986 q 229 1043 229 1024 q 232 1081 229 1056 q 251 1114 235 1106 q 262 1121 256 1114 q 272 1128 268 1128 z "},"":{"ha":590,"x_min":33,"x_max":535,"o":"m 39 336 q 63 345 46 342 q 100 351 81 349 q 138 353 119 353 q 167 354 157 354 q 178 351 169 354 q 189 346 186 347 q 221 269 203 304 q 279 210 239 233 q 312 260 301 225 q 326 338 322 296 q 330 420 331 379 q 329 486 329 461 q 325 581 329 535 q 318 675 321 628 q 299 686 311 681 q 272 697 286 692 q 244 706 257 701 q 222 713 231 710 q 212 750 215 725 q 208 803 208 775 q 207 859 207 832 q 207 903 207 886 q 221 908 213 906 q 232 911 229 911 q 379 917 307 911 q 525 924 451 924 q 534 869 535 903 q 533 813 533 836 q 529 748 533 772 q 518 710 525 724 q 503 689 511 696 q 487 675 494 682 q 474 658 479 668 q 465 628 468 647 q 462 509 458 572 q 465 388 465 446 q 467 314 465 364 q 469 210 468 264 q 467 109 469 156 q 456 47 464 63 q 418 37 442 43 q 369 24 394 31 q 319 14 343 18 q 281 10 294 10 q 207 14 243 10 q 132 25 171 18 q 115 16 125 19 q 94 13 104 13 q 66 11 83 13 q 39 18 49 10 q 35 81 36 50 q 33 143 33 113 q 35 240 33 192 q 39 336 36 288 z "},"":{"ha":979,"x_min":29,"x_max":921,"o":"m 396 1 q 386 5 393 1 q 376 10 379 8 q 378 71 379 38 q 375 139 376 104 q 374 206 374 174 q 381 263 375 238 l 421 281 q 424 298 424 288 q 424 318 424 308 q 428 367 424 325 q 436 456 432 408 q 442 545 440 504 q 438 593 443 586 q 433 612 438 599 q 426 631 429 625 q 367 640 390 640 q 331 633 343 639 q 321 580 322 621 q 321 491 319 539 q 325 401 322 443 q 328 346 328 360 q 322 287 325 322 q 315 213 319 251 q 303 135 311 174 q 283 67 296 97 q 251 17 271 36 q 206 -3 232 -3 q 100 15 136 -3 q 48 66 64 33 q 31 143 32 99 q 29 240 29 188 l 31 317 q 38 319 33 318 q 46 321 43 321 q 90 317 78 321 q 118 311 103 314 l 131 288 l 132 228 l 151 217 q 172 235 164 219 q 184 274 179 251 q 191 318 189 296 q 193 356 193 340 q 192 410 193 383 q 190 460 190 436 q 191 498 190 476 q 191 540 192 519 q 187 581 190 561 q 175 615 183 600 l 128 636 q 113 697 117 658 q 108 775 108 735 q 110 851 108 815 q 113 906 113 888 q 126 910 118 907 q 142 913 133 913 q 202 910 168 913 q 269 906 236 907 q 331 907 303 904 q 375 921 360 910 q 412 925 388 922 q 454 928 436 928 q 542 923 499 928 q 631 919 585 918 l 643 900 q 644 779 643 840 q 636 660 646 718 l 600 632 q 607 591 600 610 q 631 557 614 572 q 773 545 717 549 q 862 520 829 542 q 907 449 894 499 q 919 299 919 399 q 920 189 919 242 q 907 95 921 136 q 858 30 893 54 q 750 6 822 6 q 665 6 711 6 q 572 7 619 7 q 479 6 525 7 q 396 1 433 4 m 621 288 q 626 284 624 286 q 633 279 629 282 l 678 268 q 738 280 715 268 q 761 336 761 292 q 733 426 761 401 q 640 456 704 450 q 628 441 635 450 q 622 425 622 432 l 621 288 z "},"":{"ha":953,"x_min":35,"x_max":894,"o":"m 594 283 q 600 280 597 282 q 607 275 603 278 l 651 264 q 712 276 689 264 q 735 332 735 288 q 706 422 735 397 q 614 451 678 446 q 602 437 608 446 q 596 421 596 428 l 594 283 m 574 628 q 581 587 574 606 q 604 553 588 568 q 747 541 690 544 q 835 516 803 538 q 881 444 868 494 q 893 294 893 394 q 894 185 893 238 q 881 91 894 132 q 831 26 867 50 q 724 1 796 1 q 559 5 646 1 q 396 1 472 8 q 386 5 393 1 q 376 10 379 8 q 378 71 379 38 q 375 139 376 104 q 374 206 374 174 q 381 263 375 238 q 391 288 383 279 q 399 318 399 297 q 383 374 399 346 l 288 364 l 265 346 l 264 311 q 274 288 264 297 q 296 271 285 278 q 298 254 297 263 q 299 238 299 246 q 299 188 299 221 q 297 121 299 156 q 292 56 296 86 q 282 15 289 26 q 183 8 233 11 q 85 6 133 6 q 62 6 74 6 q 39 7 50 6 q 37 94 39 51 q 35 181 35 136 q 35 206 35 190 q 43 229 35 221 q 90 268 76 242 q 106 327 103 294 q 106 395 108 360 q 103 460 103 431 q 103 498 103 476 q 103 540 104 519 q 99 581 103 561 q 88 615 96 600 q 59 656 67 618 q 49 740 51 693 q 49 833 47 788 q 50 900 50 879 l 64 919 q 164 923 114 918 q 265 928 214 928 q 273 925 268 928 q 281 921 278 922 q 297 792 290 858 q 303 663 303 726 q 300 653 303 658 q 297 643 297 647 l 268 633 q 249 575 250 610 q 246 514 249 540 l 254 497 q 312 499 283 499 q 363 508 340 500 q 399 536 385 517 q 413 593 413 556 q 408 612 413 599 q 401 631 404 625 q 384 670 389 636 q 378 745 379 704 q 377 825 376 786 q 378 879 378 864 q 382 890 378 882 q 388 900 386 897 q 490 908 438 904 q 590 913 542 913 q 605 910 597 913 q 618 906 613 907 q 619 782 618 846 q 611 660 621 718 l 572 643 l 574 628 z "},"":{"ha":728,"x_min":25,"x_max":692,"o":"m 396 1 q 274 10 335 1 q 153 13 213 18 q 140 81 140 44 q 140 151 140 117 q 139 187 140 168 q 140 223 138 206 q 149 253 142 240 q 175 274 157 267 q 188 345 183 293 q 196 458 193 397 q 199 573 199 518 q 200 654 200 628 l 188 672 q 148 672 168 672 q 106 674 128 672 q 100 667 103 674 q 95 653 97 661 q 90 640 93 646 q 85 633 88 633 l 38 636 q 36 773 38 704 q 25 908 35 842 q 70 914 50 913 q 110 916 90 915 q 149 917 129 917 q 196 917 169 917 q 242 916 211 917 q 311 915 274 915 q 389 913 349 914 q 465 910 429 913 q 526 906 500 908 q 563 901 553 904 q 544 681 544 794 l 535 632 l 499 632 l 479 674 l 335 675 l 326 668 q 321 628 321 651 q 327 588 321 607 q 350 553 333 568 q 493 541 438 544 q 581 517 549 538 q 626 446 614 496 q 639 296 639 396 q 641 274 640 285 q 645 253 642 263 q 657 236 649 243 q 683 228 665 229 q 690 185 692 211 q 689 139 689 158 q 690 72 689 107 q 685 4 690 38 q 563 7 622 4 q 442 8 504 10 q 438 17 440 13 q 436 26 436 22 q 436 73 436 46 q 438 128 436 100 q 442 182 439 156 q 449 228 444 208 l 483 246 q 492 263 486 250 q 497 278 497 275 l 492 333 q 458 422 492 397 q 361 451 425 447 q 349 438 354 447 q 343 422 343 429 l 340 285 q 358 281 349 283 q 378 276 367 278 l 399 239 l 396 1 z "},"":{"ha":665,"x_min":31,"x_max":631,"o":"m 478 1181 l 533 1181 q 537 1165 539 1174 q 532 1149 535 1156 q 494 1108 518 1135 q 444 1054 471 1082 q 389 1001 417 1026 q 340 967 361 976 l 314 967 q 272 972 290 967 q 272 990 269 979 q 276 1010 274 1000 q 294 1090 276 1046 q 335 1169 313 1133 l 349 1174 l 385 1172 l 478 1181 m 31 890 q 66 899 35 896 q 136 905 97 903 q 211 908 175 907 q 258 908 247 908 q 272 874 265 899 q 283 819 278 849 q 290 763 288 790 q 293 722 293 736 q 291 685 293 699 q 265 656 289 671 q 255 610 257 636 q 253 561 253 583 q 257 537 253 549 q 265 514 261 525 q 297 545 278 518 q 335 606 317 572 q 367 670 354 639 q 381 714 381 701 q 390 808 381 763 q 410 901 399 853 l 425 918 l 456 918 q 494 918 468 918 q 549 917 521 918 q 601 911 578 915 q 631 897 624 907 q 626 867 629 890 q 621 816 624 843 q 615 767 618 789 q 611 743 613 744 q 569 709 600 724 q 519 681 539 694 q 498 657 513 676 q 465 610 483 638 q 426 552 446 583 q 391 492 407 521 q 365 442 375 464 q 354 414 354 421 q 364 397 354 408 q 386 371 374 385 q 411 344 399 357 q 429 326 424 332 q 447 302 436 317 q 470 273 458 288 q 493 246 482 258 q 513 228 504 233 q 524 222 515 225 q 543 215 533 218 q 563 208 553 211 q 576 203 572 204 q 583 176 579 197 q 591 128 588 154 q 597 78 594 101 q 600 49 600 56 q 596 33 600 42 q 589 18 592 25 q 530 10 558 17 q 474 3 501 3 q 453 2 465 3 q 426 1 440 1 q 401 3 413 1 q 382 8 389 4 q 372 35 376 18 q 365 72 368 53 q 361 108 363 90 q 360 136 360 125 l 360 171 q 372 201 372 186 q 359 234 372 215 q 328 272 346 253 q 290 306 310 290 q 260 328 271 321 l 243 304 l 242 231 q 244 218 242 225 q 250 206 247 211 q 273 191 263 200 q 283 168 283 182 q 283 129 283 153 q 282 80 283 106 q 277 32 281 54 q 267 0 274 10 q 217 1 253 0 q 143 5 182 3 q 72 10 104 7 q 31 17 39 13 q 32 51 31 25 q 35 107 33 78 q 40 160 38 136 q 46 188 43 183 q 80 211 69 192 q 93 256 90 231 q 94 308 96 282 q 92 354 92 335 q 93 423 92 376 q 92 517 94 469 q 80 604 90 565 q 47 651 69 643 q 38 699 40 668 q 33 766 35 731 q 31 835 32 801 q 31 890 31 869 z "},"":{"ha":692,"x_min":35,"x_max":661,"o":"m 35 4 m 661 225 q 657 122 656 179 q 660 18 658 65 l 654 7 q 626 6 639 7 q 600 4 614 4 q 562 4 586 4 q 513 4 538 4 q 465 6 488 4 q 431 11 442 7 q 426 102 429 57 q 424 193 424 147 q 431 233 424 215 l 461 251 q 465 290 465 269 q 462 447 465 369 q 457 604 458 525 l 439 613 q 403 464 418 538 q 372 316 388 390 q 338 167 356 242 q 293 18 319 93 q 182 10 236 8 q 72 6 128 13 q 61 38 64 15 q 58 86 58 60 q 58 137 57 113 q 58 175 58 161 q 58 203 58 186 q 59 238 58 219 q 62 271 60 256 q 68 296 64 286 l 110 306 q 119 340 117 321 q 123 381 122 360 q 123 422 124 401 q 122 458 122 442 q 122 511 122 481 q 122 574 122 542 q 117 635 121 606 q 104 682 113 664 l 43 688 q 39 707 40 690 q 37 749 38 724 q 35 802 36 774 q 35 855 35 831 q 35 897 35 879 q 35 918 35 915 q 44 921 39 918 q 54 924 49 924 q 180 922 117 924 q 306 918 243 921 q 310 908 306 917 q 315 897 315 900 q 315 853 315 881 q 315 795 315 825 q 313 739 315 765 q 307 700 311 713 q 278 679 288 693 q 267 649 269 665 q 267 613 265 632 q 268 575 268 593 q 269 440 268 507 q 276 306 271 372 l 290 296 q 305 450 292 371 q 338 608 318 529 q 381 765 358 688 q 424 915 404 843 q 496 917 460 915 q 569 919 532 919 q 600 919 586 919 q 629 917 614 918 q 644 795 644 860 q 646 672 643 731 q 632 653 646 663 q 611 639 618 643 q 606 622 608 632 q 603 606 603 613 q 601 538 603 581 q 598 445 599 494 q 599 344 597 396 q 608 247 601 292 q 628 234 615 240 q 661 225 640 228 m 365 1172 l 401 1174 l 415 1169 q 456 1090 438 1133 q 474 1010 474 1046 q 478 990 476 1000 q 478 972 481 979 q 436 967 460 967 l 410 967 q 361 1001 389 976 q 306 1054 333 1026 q 256 1108 279 1082 q 218 1149 232 1135 q 213 1165 215 1156 q 217 1181 211 1174 l 272 1181 l 365 1172 z "},"":{"ha":743,"x_min":42,"x_max":690,"o":"m 547 1131 q 538 1083 542 1113 q 520 1025 533 1053 q 481 976 507 997 q 406 956 454 956 q 279 965 322 956 q 217 990 236 974 q 195 1029 197 1007 q 193 1078 193 1051 l 194 1117 q 205 1117 199 1117 q 215 1118 211 1118 q 244 1117 235 1118 q 264 1114 253 1115 l 279 1101 l 281 1071 l 342 1067 q 402 1076 379 1068 q 439 1094 425 1083 q 458 1117 453 1106 q 463 1136 463 1128 q 547 1131 507 1138 m 415 606 l 415 643 q 404 653 410 646 q 399 668 399 661 q 399 724 399 688 q 402 799 400 761 q 408 872 404 838 q 418 921 411 906 q 539 922 479 919 q 660 925 599 925 q 675 922 667 925 q 690 918 683 919 q 689 860 689 897 q 688 783 689 822 q 683 710 688 743 q 667 663 678 676 q 633 644 651 654 q 601 624 614 635 q 585 597 593 619 q 567 543 576 575 q 549 474 558 511 q 533 401 540 436 q 521 340 526 367 q 513 300 515 313 q 507 251 510 283 q 499 183 504 219 q 485 112 493 147 q 464 54 476 76 q 428 16 449 28 q 385 0 408 4 q 338 -3 363 -4 q 289 -3 313 -3 q 213 15 239 -3 q 175 66 186 33 q 163 143 164 99 q 161 240 161 188 l 163 317 q 171 319 167 318 q 179 321 175 321 q 223 317 210 321 q 251 311 236 314 l 264 288 l 265 228 l 283 217 q 313 217 294 217 q 335 218 332 218 q 363 250 351 235 q 369 300 381 281 q 331 339 358 319 l 267 358 q 199 442 231 392 q 161 575 168 492 q 156 595 158 581 q 149 625 153 610 q 142 653 146 640 q 138 668 139 667 q 117 697 129 688 q 92 709 106 706 q 65 713 78 713 q 42 718 51 714 q 42 806 42 757 q 46 893 43 856 q 56 910 49 896 q 64 924 63 924 l 326 924 l 332 893 q 328 696 332 793 q 319 688 325 690 q 308 681 314 686 q 297 666 301 676 q 293 635 293 656 q 301 587 293 615 q 320 527 308 558 q 347 466 332 496 q 376 414 361 436 l 393 408 q 401 466 397 436 q 408 523 406 496 q 413 572 411 550 q 415 606 415 593 z "},"":{"ha":681,"x_min":33,"x_max":622,"o":"m 435 -192 q 333 -192 386 -190 q 231 -193 279 -193 q 228 -159 228 -176 q 228 -126 228 -142 q 227 -103 228 -117 q 232 -82 226 -90 q 253 -54 249 -82 q 257 6 257 -26 q 229 7 242 7 q 210 8 217 7 q 184 22 201 19 q 147 24 167 25 q 105 19 126 22 q 67 17 83 17 q 52 19 60 17 q 39 24 44 22 q 38 147 39 83 q 46 269 36 211 l 82 297 q 94 359 89 313 q 103 460 100 406 q 108 563 107 514 q 110 636 110 613 q 106 648 110 639 q 99 661 101 657 l 40 660 q 36 669 39 664 q 33 679 33 675 q 34 728 33 694 q 37 800 35 763 q 44 871 39 838 q 56 917 49 904 q 158 921 107 914 q 261 928 208 928 q 271 924 264 928 q 281 919 278 921 q 279 858 278 892 q 282 790 281 825 q 283 724 283 756 q 276 667 282 692 q 266 641 274 650 q 258 611 258 632 q 255 563 258 604 q 248 473 251 521 q 243 384 244 425 q 244 336 242 343 q 249 317 244 331 q 256 299 253 304 q 338 290 306 289 q 389 296 369 290 q 399 349 397 308 q 399 438 400 390 q 394 528 397 486 q 392 583 392 569 l 393 618 q 383 642 393 632 q 361 658 372 651 q 359 675 360 667 q 358 692 358 683 q 358 741 358 708 q 360 808 358 774 q 365 873 361 843 q 375 914 368 903 q 474 921 424 918 q 572 924 524 924 q 595 924 583 924 q 618 922 607 924 q 620 835 618 878 q 622 749 622 793 q 622 724 622 739 q 614 700 622 708 q 567 661 581 688 q 551 602 554 635 q 551 534 549 569 q 554 469 554 499 q 553 431 554 453 q 553 389 553 410 q 558 348 554 368 q 569 314 561 328 q 598 274 590 311 q 608 189 606 236 q 608 96 610 142 q 607 29 607 50 l 593 10 q 514 6 553 11 q 433 1 475 1 l 407 1 q 408 -34 407 -18 q 408 -57 408 -50 q 411 -64 408 -58 q 415 -72 414 -69 l 432 -82 q 438 -132 438 -101 q 438 -182 438 -162 q 435 -192 438 -186 z "},"":{"ha":713,"x_min":32,"x_max":671,"o":"m 321 632 q 303 618 310 632 q 293 585 296 604 q 290 548 290 567 q 289 521 289 529 q 291 445 289 482 q 293 369 293 408 l 293 350 l 307 349 q 356 358 329 349 l 356 389 q 353 483 356 435 q 339 575 350 531 q 336 587 338 578 q 332 606 335 596 q 326 624 329 617 q 321 632 324 632 m 142 914 q 310 909 226 907 q 478 911 393 911 q 494 828 483 872 q 506 747 506 783 l 504 725 q 488 707 496 719 q 479 685 479 694 q 488 651 479 681 q 508 578 496 621 q 536 486 521 536 q 565 393 551 436 q 588 319 578 350 q 601 283 599 289 q 610 280 604 282 q 618 278 615 278 l 654 281 l 660 274 q 667 150 663 213 q 671 28 671 88 q 665 4 671 15 q 613 10 639 4 q 563 17 586 17 q 488 10 526 17 q 411 3 449 3 q 376 8 392 3 q 372 80 375 44 q 368 150 368 115 l 368 176 l 382 185 l 382 189 q 374 224 382 208 q 367 257 365 239 l 276 257 q 256 233 267 246 q 242 206 244 221 l 249 188 q 276 154 274 172 q 279 108 279 136 q 275 26 279 68 q 159 24 217 28 q 43 19 101 19 q 37 31 42 22 q 32 43 32 40 q 33 150 32 97 q 40 256 35 203 l 47 264 l 78 264 q 91 296 82 269 q 111 360 100 322 q 133 440 122 397 q 153 523 144 483 q 169 592 163 563 q 175 631 175 621 q 174 651 175 642 q 168 672 174 661 l 140 685 q 134 728 136 700 q 131 785 132 756 q 129 844 129 815 q 129 890 129 872 l 131 906 l 142 914 z "},"":{"ha":663,"x_min":28,"x_max":607,"o":"m 235 519 q 308 517 265 519 q 394 510 350 515 q 481 497 439 506 q 551 478 522 489 q 580 435 569 468 q 597 360 590 401 q 605 279 603 319 q 607 218 607 239 q 601 121 607 161 q 578 55 596 81 q 525 17 560 29 q 431 4 490 4 l 356 4 q 208 3 286 4 q 61 8 129 1 q 40 25 46 11 q 33 53 33 39 q 35 166 33 110 q 43 278 38 222 q 67 331 60 288 q 78 428 75 375 q 81 531 81 482 q 82 601 82 581 q 71 611 78 610 q 54 613 64 613 l 47 618 q 39 719 47 669 q 31 818 31 768 q 29 855 31 836 q 31 888 28 874 q 46 910 35 901 q 82 919 57 919 l 178 922 q 376 919 275 922 q 576 918 478 917 q 584 879 585 904 q 583 839 583 854 q 582 709 583 774 q 572 579 581 644 q 563 574 569 576 q 554 571 557 571 q 533 570 546 571 q 513 575 521 569 l 503 608 q 489 616 497 613 q 474 619 481 619 q 356 617 415 619 q 239 618 297 615 q 232 599 233 608 q 231 579 231 590 l 235 519 m 233 264 q 252 247 242 250 q 278 244 263 244 q 320 245 297 244 q 365 251 343 246 q 404 267 386 257 q 432 296 422 276 q 421 347 432 328 q 391 378 410 367 q 348 392 372 389 q 297 396 324 396 q 263 394 279 396 q 232 376 246 392 l 233 264 z "},"":{"ha":663,"x_min":28,"x_max":607,"o":"m 178 922 q 260 920 213 922 q 357 913 308 918 q 451 901 406 908 q 531 881 497 893 q 560 848 549 874 q 577 791 571 822 q 585 730 583 760 q 588 683 588 700 q 586 647 588 667 q 581 606 585 626 q 569 565 576 585 q 553 533 563 546 q 542 523 549 528 q 528 513 535 518 q 515 501 521 507 q 510 489 510 494 l 510 481 q 537 451 519 464 q 567 421 554 438 q 588 378 579 404 q 600 324 596 353 q 606 267 604 294 q 607 218 607 239 q 601 121 607 161 q 578 55 596 81 q 525 17 560 29 q 431 4 490 4 l 356 4 q 208 3 286 4 q 61 8 129 1 q 40 25 46 11 q 33 53 33 39 q 35 166 33 110 q 43 278 38 222 q 67 331 60 288 q 78 428 75 375 q 81 531 81 482 q 82 601 82 581 q 71 611 78 610 q 54 613 64 613 l 47 618 q 39 719 47 669 q 31 818 31 768 q 29 855 31 836 q 31 888 28 874 q 46 910 35 901 q 82 919 57 919 l 178 922 m 333 667 q 315 664 324 667 q 297 660 306 661 q 253 656 269 657 q 229 647 238 654 q 219 621 221 639 q 217 568 217 603 q 218 539 217 553 q 224 510 219 525 l 232 510 q 282 515 247 510 q 353 530 317 519 q 416 556 389 540 q 443 592 443 571 q 433 630 443 615 q 408 653 424 644 q 372 664 392 661 q 333 667 353 667 m 233 264 q 252 247 242 250 q 278 244 263 244 q 320 245 297 244 q 365 251 343 246 q 404 267 386 257 q 432 296 422 276 q 421 347 432 328 q 391 378 410 367 q 348 392 372 389 q 297 396 324 396 q 263 394 279 396 q 232 376 246 392 l 233 264 z "},"":{"ha":546,"x_min":29,"x_max":497,"o":"m 178 928 q 333 924 256 928 q 489 924 410 921 q 497 885 497 910 q 496 843 496 860 q 493 713 496 778 q 485 583 490 649 q 476 578 482 581 q 467 576 469 576 q 446 575 458 576 q 425 581 433 574 l 415 614 q 401 621 408 617 q 386 625 393 625 q 300 622 343 625 q 214 622 257 619 q 206 583 206 603 q 206 524 206 567 q 208 431 206 482 q 217 331 211 381 q 232 253 222 282 q 234 249 233 250 q 239 243 235 247 q 251 233 243 239 q 275 217 260 226 q 280 206 278 211 q 282 196 282 200 q 281 158 282 183 q 280 105 281 132 q 276 53 279 78 q 269 19 274 29 q 240 19 254 22 q 215 15 226 15 q 129 14 171 15 q 44 0 88 13 q 33 37 36 14 q 29 85 29 60 q 30 136 29 111 q 31 179 31 161 l 31 225 l 39 233 q 77 258 67 231 q 90 321 88 285 q 89 394 92 357 q 86 453 86 432 q 86 542 86 499 q 75 631 86 586 l 47 638 q 42 668 42 649 q 47 783 42 726 q 50 897 53 839 l 61 918 q 119 924 89 921 q 178 928 150 928 z "},"":{"ha":719,"x_min":53,"x_max":678,"o":"m 421 281 q 424 298 424 288 q 424 318 424 308 q 428 367 424 325 q 436 456 432 408 q 442 545 440 504 q 438 593 443 586 q 433 612 438 599 q 426 631 429 625 q 367 640 390 640 q 331 633 343 639 q 321 610 322 628 q 321 573 319 593 q 325 534 322 553 q 328 508 328 515 q 307 336 336 414 q 297 305 303 317 q 285 274 292 293 l 421 281 m 506 11 q 435 12 463 13 q 387 10 407 11 q 350 7 367 8 q 313 4 333 6 q 265 1 293 3 q 193 0 236 0 q 178 -4 186 0 q 165 -11 169 -8 l 156 -169 q 115 -175 138 -176 q 76 -174 93 -174 q 67 -172 72 -174 q 57 -167 61 -169 q 54 10 53 -74 q 56 186 56 93 q 56 226 56 201 q 64 267 56 251 q 103 269 92 269 q 126 267 114 268 q 159 290 146 271 q 180 335 172 310 q 190 386 188 360 q 193 431 193 413 q 192 471 193 450 q 190 510 190 492 q 191 565 190 533 q 175 615 192 596 l 128 636 q 113 697 117 658 q 108 775 108 735 q 110 851 108 815 q 113 906 113 888 q 126 910 118 907 q 142 913 133 913 q 202 910 168 913 q 269 906 236 907 q 331 907 303 904 q 375 921 360 910 q 412 925 388 922 q 454 928 436 928 q 542 923 499 928 q 631 919 585 918 l 643 900 q 644 779 643 840 q 636 660 646 718 l 600 632 q 588 576 593 617 q 581 488 583 535 q 576 397 578 442 q 575 331 575 353 l 594 310 q 624 313 610 313 q 669 310 638 314 q 678 271 678 296 q 678 231 678 246 q 672 37 678 136 q 654 -156 665 -62 q 644 -160 650 -157 q 635 -162 639 -162 q 589 -164 615 -162 q 543 -158 563 -165 l 533 0 q 520 8 528 4 q 506 11 513 11 z "},"":{"ha":571,"x_min":28,"x_max":496,"o":"m 488 913 q 485 871 486 900 q 483 804 485 842 q 481 727 482 767 q 478 653 479 688 q 475 597 476 619 q 472 571 474 574 q 439 567 457 567 l 415 567 l 408 572 q 408 582 408 575 q 406 596 408 589 q 401 608 404 603 q 393 613 399 613 l 326 613 q 287 608 308 613 q 247 601 265 604 q 251 567 250 586 q 264 535 253 549 q 320 535 289 540 q 378 526 351 529 q 381 515 379 521 q 383 506 383 510 q 380 440 383 472 q 383 375 376 407 q 358 369 376 371 q 317 368 339 368 q 274 368 294 368 q 244 368 254 368 q 235 351 239 361 q 231 332 231 340 q 232 300 231 317 q 242 268 233 283 l 281 268 q 324 268 301 268 q 368 271 347 268 q 383 290 378 278 q 392 313 389 301 q 404 316 397 314 q 418 318 411 318 l 483 318 q 494 285 494 303 q 494 251 494 268 q 495 199 494 235 q 494 124 496 163 q 486 53 492 85 q 469 17 481 22 q 263 15 365 25 q 56 6 161 6 q 42 6 49 6 q 28 10 35 7 q 40 314 32 161 l 47 319 l 75 319 l 85 328 q 89 550 89 438 q 90 576 89 564 q 87 597 90 588 q 75 612 83 606 q 50 619 67 618 q 41 685 40 650 q 42 753 42 721 l 43 915 q 53 919 47 917 q 61 922 58 922 q 264 919 164 922 q 467 926 364 917 l 488 913 z "},"":{"ha":1046,"x_min":42,"x_max":1011,"o":"m 411 890 q 447 899 415 896 q 517 905 478 903 q 592 908 557 907 q 640 908 628 908 q 653 874 647 899 q 665 819 660 849 q 672 763 669 790 q 675 722 675 736 q 673 685 675 699 q 646 656 671 671 q 635 622 638 642 q 633 586 633 601 q 638 561 633 572 q 646 539 643 550 q 678 565 658 542 q 716 618 697 589 q 749 675 735 647 q 763 714 763 703 q 772 808 763 763 q 792 901 781 853 l 806 918 l 836 918 q 875 918 849 918 q 930 917 901 918 q 981 911 958 915 q 1011 897 1004 907 q 1007 867 1010 890 q 1001 816 1004 843 q 996 767 999 789 q 993 743 993 744 q 951 709 982 724 q 901 681 921 694 q 880 660 894 676 q 847 618 865 643 q 808 565 828 593 q 772 510 789 536 q 745 465 756 485 q 735 439 735 446 q 744 422 735 433 q 767 396 754 410 q 792 369 779 382 q 810 351 804 357 q 828 321 817 339 q 851 285 839 303 q 874 251 863 267 q 893 228 885 235 q 906 222 897 225 q 924 215 914 218 q 943 208 933 211 q 957 203 953 204 q 965 176 961 197 q 973 128 969 154 q 978 78 976 101 q 981 49 981 56 q 977 33 981 42 q 969 18 974 25 q 912 10 940 17 q 856 3 883 3 q 834 2 847 3 q 807 1 821 1 q 781 3 793 1 q 764 8 769 4 q 754 35 758 18 q 747 72 750 53 q 743 108 744 90 q 742 136 742 125 l 742 171 q 750 185 746 178 q 754 201 754 193 q 741 241 754 218 q 709 285 728 264 q 672 326 690 307 q 642 353 653 344 l 625 329 l 622 231 q 626 218 622 225 q 631 206 629 211 q 654 191 643 200 q 665 168 665 182 q 665 129 665 153 q 664 80 665 106 q 659 32 663 54 q 647 0 656 10 q 599 1 635 0 q 524 5 563 3 q 452 10 485 7 q 413 17 419 13 q 399 51 406 26 q 388 106 393 76 q 381 162 383 135 q 378 203 378 189 q 380 240 378 226 q 406 268 382 254 q 417 303 415 283 q 418 339 418 324 q 414 363 418 351 q 406 386 410 375 q 374 360 393 383 q 335 307 354 336 q 303 250 317 278 q 290 211 290 222 q 281 117 290 163 q 261 24 272 72 l 246 7 l 217 6 q 177 6 204 6 q 122 8 150 6 q 70 14 93 10 q 42 28 47 18 q 44 58 42 33 q 50 109 47 82 q 56 158 53 136 q 60 182 58 181 q 101 216 71 201 q 151 243 132 231 q 173 265 158 247 q 206 307 188 282 q 244 360 225 332 q 281 415 264 389 q 308 460 297 440 q 318 486 318 479 q 308 508 318 493 q 285 541 299 524 q 260 574 272 558 q 243 599 247 590 q 225 623 236 608 q 202 652 214 638 q 178 679 190 667 q 158 697 167 692 q 147 703 156 700 q 128 710 138 707 q 108 717 118 714 q 94 722 99 721 q 88 749 92 728 q 80 797 83 771 q 74 845 76 822 q 71 876 71 868 q 75 892 71 883 q 82 907 79 900 q 141 915 113 908 q 197 922 169 922 q 218 923 206 922 q 244 924 231 924 q 270 922 258 924 q 289 917 282 921 q 299 889 294 906 q 306 853 303 872 q 310 817 308 835 q 311 789 311 800 l 311 754 q 303 740 307 747 q 299 724 299 732 q 312 684 299 707 q 343 639 325 661 q 381 599 361 617 q 411 572 400 581 l 428 596 l 431 693 q 427 707 431 700 q 421 719 424 714 q 399 734 410 725 q 388 757 388 743 q 388 790 388 771 q 392 827 389 808 q 399 863 394 846 q 411 890 404 879 z "},"":{"ha":607,"x_min":49,"x_max":557,"o":"m 182 510 q 232 515 197 510 q 303 530 267 519 q 366 556 339 540 q 393 592 393 571 q 383 630 393 615 q 358 653 374 644 q 322 664 342 661 q 283 667 303 667 q 250 653 265 667 q 223 619 235 639 q 202 579 211 600 q 188 544 193 558 q 170 542 185 543 q 138 541 156 542 q 105 540 121 540 q 83 540 89 540 l 71 543 q 68 706 71 625 q 65 871 65 788 q 67 893 65 882 q 78 914 68 904 q 121 924 100 918 q 165 931 142 929 q 175 916 174 924 q 176 901 176 908 l 185 896 q 238 914 208 904 q 292 924 268 924 q 388 914 344 924 q 481 881 432 904 q 510 848 499 874 q 527 791 521 822 q 535 730 533 760 q 538 683 538 700 q 535 647 538 667 q 529 606 533 626 q 519 565 525 585 q 503 533 513 546 q 477 512 494 522 q 460 489 460 501 l 460 481 q 487 451 469 464 q 517 421 504 438 q 538 378 529 404 q 550 324 546 353 q 556 267 554 294 q 557 218 557 239 q 551 121 557 161 q 528 54 546 81 q 475 15 510 28 q 381 4 440 3 l 285 6 q 215 10 247 6 q 154 26 182 14 q 102 62 126 39 q 56 121 78 85 q 53 206 57 164 q 49 292 49 249 q 50 317 49 304 q 60 342 51 331 q 124 335 89 335 q 186 325 160 336 q 206 285 196 304 q 231 249 215 267 q 249 242 238 246 q 268 238 260 238 q 334 248 306 238 q 382 296 363 258 q 371 347 382 328 q 341 378 360 367 q 298 392 322 389 q 247 396 274 396 q 213 399 229 396 q 182 417 196 401 l 182 510 z "},"":{"ha":692,"x_min":35,"x_max":661,"o":"m 661 225 q 657 122 656 179 q 660 18 658 65 l 654 7 q 626 6 639 7 q 600 4 614 4 q 562 4 586 4 q 513 4 538 4 q 465 6 488 4 q 431 11 442 7 q 426 102 429 57 q 424 193 424 147 q 431 233 424 215 l 461 251 q 465 290 465 269 q 462 447 465 369 q 457 604 458 525 l 439 613 q 403 464 418 538 q 372 316 388 390 q 338 167 356 242 q 293 18 319 93 q 182 10 236 8 q 72 6 128 13 q 61 38 64 15 q 58 86 58 60 q 58 137 57 113 q 58 175 58 161 q 58 203 58 186 q 59 238 58 219 q 62 271 60 256 q 68 296 64 286 l 110 306 q 119 340 117 321 q 123 381 122 360 q 123 422 124 401 q 122 458 122 442 q 122 511 122 481 q 122 574 122 542 q 117 635 121 606 q 104 682 113 664 l 43 688 q 39 707 40 690 q 37 749 38 724 q 35 802 36 774 q 35 855 35 831 q 35 897 35 879 q 35 918 35 915 q 44 921 39 918 q 54 924 49 924 q 180 922 117 924 q 306 918 243 921 q 310 908 306 917 q 315 897 315 900 q 315 853 315 881 q 315 795 315 825 q 313 739 315 765 q 307 700 311 713 q 278 679 288 693 q 267 649 269 665 q 267 613 265 632 q 268 575 268 593 q 269 440 268 507 q 276 306 271 372 l 290 296 q 305 450 292 371 q 338 608 318 529 q 381 765 358 688 q 424 915 404 843 q 496 917 460 915 q 569 919 532 919 q 600 919 586 919 q 629 917 614 918 q 644 795 644 860 q 646 672 643 731 q 632 653 646 663 q 611 639 618 643 q 606 622 608 632 q 603 606 603 613 q 601 538 603 581 q 598 445 599 494 q 599 344 597 396 q 608 247 601 292 q 628 234 615 240 q 661 225 640 228 z "},"":{"ha":692,"x_min":35,"x_max":661,"o":"m 547 1131 q 538 1083 542 1113 q 520 1025 533 1053 q 481 976 507 997 q 406 956 454 956 q 279 965 322 956 q 217 990 236 974 q 195 1029 197 1007 q 193 1078 193 1051 l 194 1117 q 205 1117 199 1117 q 215 1118 211 1118 q 244 1117 235 1118 q 264 1114 253 1115 l 279 1101 l 281 1071 l 342 1067 q 402 1076 379 1068 q 439 1094 425 1083 q 458 1117 453 1106 q 463 1136 463 1128 q 547 1131 507 1138 m 661 225 q 657 122 656 179 q 660 18 658 65 l 654 7 q 626 6 639 7 q 600 4 614 4 q 562 4 586 4 q 513 4 538 4 q 465 6 488 4 q 431 11 442 7 q 426 102 429 57 q 424 193 424 147 q 431 233 424 215 l 461 251 q 465 290 465 269 q 462 447 465 369 q 457 604 458 525 l 439 613 q 403 464 418 538 q 372 316 388 390 q 338 167 356 242 q 293 18 319 93 q 182 10 236 8 q 72 6 128 13 q 61 38 64 15 q 58 86 58 60 q 58 137 57 113 q 58 175 58 161 q 58 203 58 186 q 59 238 58 219 q 62 271 60 256 q 68 296 64 286 l 110 306 q 119 340 117 321 q 123 381 122 360 q 123 422 124 401 q 122 458 122 442 q 122 511 122 481 q 122 574 122 542 q 117 635 121 606 q 104 682 113 664 l 43 688 q 39 707 40 690 q 37 749 38 724 q 35 802 36 774 q 35 855 35 831 q 35 897 35 879 q 35 918 35 915 q 44 921 39 918 q 54 924 49 924 q 180 922 117 924 q 306 918 243 921 q 310 908 306 917 q 315 897 315 900 q 315 853 315 881 q 315 795 315 825 q 313 739 315 765 q 307 700 311 713 q 278 679 288 693 q 267 649 269 665 q 267 613 265 632 q 268 575 268 593 q 269 440 268 507 q 276 306 271 372 l 290 296 q 305 450 292 371 q 338 608 318 529 q 381 765 358 688 q 424 915 404 843 q 496 917 460 915 q 569 919 532 919 q 600 919 586 919 q 629 917 614 918 q 644 795 644 860 q 646 672 643 731 q 632 653 646 663 q 611 639 618 643 q 606 622 608 632 q 603 606 603 613 q 601 538 603 581 q 598 445 599 494 q 599 344 597 396 q 608 247 601 292 q 628 234 615 240 q 661 225 640 228 z "},"":{"ha":665,"x_min":31,"x_max":631,"o":"m 31 890 q 66 899 35 896 q 136 905 97 903 q 211 908 175 907 q 258 908 247 908 q 272 874 265 899 q 283 819 278 849 q 290 763 288 790 q 293 722 293 736 q 291 685 293 699 q 265 656 289 671 q 255 610 257 636 q 253 561 253 583 q 257 537 253 549 q 265 514 261 525 q 297 545 278 518 q 335 606 317 572 q 367 670 354 639 q 381 714 381 701 q 390 808 381 763 q 410 901 399 853 l 425 918 l 456 918 q 494 918 468 918 q 549 917 521 918 q 601 911 578 915 q 631 897 624 907 q 626 867 629 890 q 621 816 624 843 q 615 767 618 789 q 611 743 613 744 q 569 709 600 724 q 519 681 539 694 q 498 657 513 676 q 465 610 483 638 q 426 552 446 583 q 391 492 407 521 q 365 442 375 464 q 354 414 354 421 q 364 397 354 408 q 386 371 374 385 q 411 344 399 357 q 429 326 424 332 q 447 302 436 317 q 470 273 458 288 q 493 246 482 258 q 513 228 504 233 q 524 222 515 225 q 543 215 533 218 q 563 208 553 211 q 576 203 572 204 q 583 176 579 197 q 591 128 588 154 q 597 78 594 101 q 600 49 600 56 q 596 33 600 42 q 589 18 592 25 q 530 10 558 17 q 474 3 501 3 q 453 2 465 3 q 426 1 440 1 q 401 3 413 1 q 382 8 389 4 q 372 35 376 18 q 365 72 368 53 q 361 108 363 90 q 360 136 360 125 l 360 171 q 372 201 372 186 q 359 234 372 215 q 328 272 346 253 q 290 306 310 290 q 260 328 271 321 l 243 304 l 242 231 q 244 218 242 225 q 250 206 247 211 q 273 191 263 200 q 283 168 283 182 q 283 129 283 153 q 282 80 283 106 q 277 32 281 54 q 267 0 274 10 q 217 1 253 0 q 143 5 182 3 q 72 10 104 7 q 31 17 39 13 q 32 51 31 25 q 35 107 33 78 q 40 160 38 136 q 46 188 43 183 q 80 211 69 192 q 93 256 90 231 q 94 308 96 282 q 92 354 92 335 q 93 423 92 376 q 92 517 94 469 q 80 604 90 565 q 47 651 69 643 q 38 699 40 668 q 33 766 35 731 q 31 835 32 801 q 31 890 31 869 z "},"":{"ha":681,"x_min":29,"x_max":649,"o":"m 643 900 q 644 779 643 840 q 636 660 646 718 l 600 632 q 591 597 594 621 q 584 540 588 572 q 578 470 581 507 q 575 399 576 433 q 573 337 574 365 q 572 293 572 308 q 578 281 572 290 q 583 268 583 272 l 642 269 q 646 260 643 265 q 649 250 649 254 q 648 201 649 235 q 645 129 647 167 q 638 58 643 92 q 626 13 633 25 q 512 8 569 15 q 396 1 454 1 q 386 5 393 1 q 376 10 379 8 q 378 71 379 38 q 375 139 376 104 q 374 206 374 174 q 381 263 375 238 l 421 281 q 424 298 424 288 q 424 318 424 308 q 428 367 424 325 q 436 456 432 408 q 442 545 440 504 q 438 593 443 586 q 433 612 438 599 q 426 631 429 625 q 367 640 390 640 q 331 633 343 639 q 321 580 322 621 q 321 491 319 539 q 325 401 322 443 q 328 346 328 360 q 322 287 325 322 q 315 213 319 251 q 303 135 311 174 q 283 67 296 97 q 251 17 271 36 q 206 -3 232 -3 q 100 15 136 -3 q 48 66 64 33 q 31 143 32 99 q 29 240 29 188 l 31 317 q 38 319 33 318 q 46 321 43 321 q 90 317 78 321 q 118 311 103 314 l 131 288 l 132 228 l 151 217 q 172 235 164 219 q 184 274 179 251 q 191 318 189 296 q 193 356 193 340 q 192 410 193 383 q 190 460 190 436 q 191 498 190 476 q 191 540 192 519 q 187 581 190 561 q 175 615 183 600 l 128 636 q 113 697 117 658 q 108 775 108 735 q 110 851 108 815 q 113 906 113 888 q 126 910 118 907 q 142 913 133 913 q 202 910 168 913 q 269 906 236 907 q 331 907 303 904 q 375 921 360 910 q 412 925 388 922 q 454 928 436 928 q 542 923 499 928 q 631 919 585 918 l 643 900 z "},"":{"ha":851,"x_min":29,"x_max":793,"o":"m 38 922 q 128 917 82 918 q 219 919 175 917 q 257 823 235 871 q 293 726 279 775 q 341 540 318 631 q 399 356 364 449 l 421 347 q 457 625 443 486 q 492 904 471 764 q 507 908 499 906 q 522 910 515 910 q 647 915 586 910 q 771 925 708 919 q 778 909 774 919 q 783 894 783 899 q 783 849 783 879 q 782 786 783 819 q 778 724 781 753 q 772 686 776 696 q 744 684 758 685 q 715 681 731 683 q 706 633 706 661 q 706 545 706 603 q 708 426 706 488 q 717 311 711 365 q 736 235 724 257 l 769 222 q 779 188 775 214 q 785 129 783 161 q 790 67 788 97 q 793 24 792 38 q 783 20 788 22 q 772 18 778 18 q 652 16 711 18 q 531 6 593 14 q 525 37 528 13 q 520 88 522 61 q 517 140 518 115 q 517 174 517 165 q 517 195 517 185 q 522 215 517 206 l 568 229 q 576 282 574 242 q 580 369 579 322 q 581 461 581 417 q 582 525 582 506 l 561 535 q 540 465 550 515 q 520 358 529 415 q 504 248 511 301 q 493 167 497 194 q 390 150 443 150 l 357 151 q 290 368 325 258 q 207 579 256 478 l 185 579 q 187 501 186 554 q 192 391 188 447 q 204 288 196 335 q 228 231 213 242 l 263 235 l 268 229 q 274 133 269 181 q 279 39 279 86 q 274 17 279 28 q 176 15 224 18 q 79 13 128 13 l 51 14 q 47 96 50 54 q 43 179 43 138 q 44 200 43 190 q 47 221 44 210 l 88 231 q 93 244 90 236 q 96 256 96 253 q 97 355 96 292 q 97 485 99 418 q 92 610 96 551 q 78 697 88 669 q 53 703 65 699 q 31 717 40 707 q 31 810 33 764 q 29 903 29 856 q 32 912 29 906 q 38 922 35 918 z "},"":{"ha":681,"x_min":35,"x_max":624,"o":"m 64 919 q 164 923 114 918 q 265 928 214 928 q 273 925 268 928 q 281 921 278 922 q 297 792 290 858 q 303 663 303 726 q 300 653 303 658 q 297 643 297 647 l 268 633 q 249 575 250 610 q 246 514 249 540 l 254 497 q 312 499 283 499 q 363 508 340 500 q 399 536 385 517 q 413 593 413 556 q 408 612 413 599 q 401 631 404 625 q 384 670 389 636 q 378 745 379 704 q 377 825 376 786 q 378 879 378 864 q 382 890 378 882 q 388 900 386 897 q 490 908 438 904 q 590 913 542 913 q 605 910 597 913 q 618 906 613 907 q 619 782 618 846 q 611 660 621 718 l 575 632 q 567 597 571 621 q 559 540 563 572 q 553 470 556 507 q 550 399 551 433 q 548 337 549 365 q 547 293 547 308 q 551 281 547 290 q 558 268 556 272 l 617 269 q 621 260 618 265 q 624 250 624 254 q 623 201 624 235 q 620 129 622 167 q 613 58 618 92 q 601 13 608 25 q 499 8 550 15 q 396 1 449 1 q 386 5 393 1 q 376 10 379 8 q 378 71 379 38 q 375 139 376 104 q 374 206 374 174 q 381 263 375 238 q 391 288 383 279 q 399 318 399 297 q 383 374 399 346 l 288 364 l 265 346 l 264 311 q 274 288 264 297 q 296 271 285 278 q 298 254 297 263 q 299 238 299 246 q 299 188 299 221 q 297 121 299 156 q 292 56 296 86 q 282 15 289 26 q 183 8 233 11 q 85 6 133 6 q 62 6 74 6 q 39 7 50 6 q 37 94 39 51 q 35 181 35 136 q 35 206 35 190 q 43 229 35 221 q 90 268 76 242 q 106 327 103 294 q 106 395 108 360 q 103 460 103 431 q 103 498 103 476 q 103 540 104 519 q 99 581 103 561 q 88 615 96 600 q 59 656 67 618 q 49 740 51 693 q 49 833 47 788 q 50 900 50 879 l 64 919 l 64 919 z "},"":{"ha":618,"x_min":32,"x_max":567,"o":"m 175 467 q 175 403 175 436 q 183 344 175 371 q 213 301 192 318 q 276 283 235 283 q 402 331 368 283 q 436 465 436 379 q 434 526 436 490 q 422 592 432 561 q 391 646 411 624 q 335 668 371 668 q 260 659 290 668 q 210 627 229 650 q 183 565 192 604 q 175 467 175 526 m 181 931 q 365 922 276 928 q 547 893 453 915 q 560 798 554 846 q 567 704 567 750 q 567 608 567 668 q 566 480 567 549 q 561 338 565 411 q 549 201 557 265 q 526 88 540 138 q 492 17 513 39 q 428 7 460 11 q 364 3 396 3 q 285 2 326 3 q 204 6 244 1 q 126 22 164 10 q 58 57 89 33 q 35 249 38 151 q 32 442 32 346 q 33 543 32 479 q 40 674 33 607 q 63 799 47 742 q 107 882 78 857 q 143 908 124 897 q 181 931 163 919 z "},"":{"ha":681,"x_min":35,"x_max":624,"o":"m 264 311 q 274 288 264 297 q 296 271 285 278 q 298 254 297 263 q 299 238 299 246 q 299 188 299 221 q 297 121 299 156 q 292 56 296 86 q 282 15 289 26 q 183 8 233 11 q 85 6 133 6 q 62 6 74 6 q 39 7 50 6 q 37 94 39 51 q 35 181 35 136 q 35 206 35 190 q 43 229 35 221 q 90 268 76 242 q 106 327 103 294 q 106 395 108 360 q 103 460 103 431 q 103 498 103 476 q 103 540 104 519 q 99 581 103 561 q 88 615 96 600 q 59 656 67 618 q 49 740 51 693 q 49 833 47 788 q 50 900 50 879 l 64 919 q 164 923 114 918 q 265 928 214 928 q 301 927 281 928 q 340 925 321 926 q 377 922 360 924 q 406 921 394 921 q 439 907 417 910 q 488 906 461 904 q 542 910 514 907 q 590 913 569 913 q 605 910 597 913 q 618 906 613 907 q 619 782 618 846 q 611 660 621 718 l 575 632 q 567 597 571 621 q 559 540 563 572 q 553 470 556 507 q 550 399 551 433 q 548 337 549 365 q 547 293 547 308 q 551 281 547 290 q 558 268 556 272 l 617 269 q 621 260 618 265 q 624 250 624 254 q 623 201 624 235 q 620 129 622 167 q 613 58 618 92 q 601 13 608 25 q 499 8 550 15 q 396 1 449 1 q 386 5 393 1 q 376 10 379 8 q 378 71 379 38 q 375 139 376 104 q 374 206 374 174 q 381 263 375 238 q 391 288 383 279 q 399 318 399 297 q 402 367 399 325 q 409 456 406 408 q 414 545 413 504 q 413 593 415 586 q 408 612 413 599 q 401 631 404 625 q 319 640 351 640 q 268 633 288 639 q 258 580 260 621 q 258 491 257 539 q 263 401 260 443 q 265 346 265 360 l 264 311 z "},"":{"ha":579,"x_min":26,"x_max":529,"o":"m 42 907 q 119 906 79 904 q 200 910 160 907 q 280 915 240 913 q 358 918 319 918 q 466 893 431 918 q 515 827 501 868 q 528 733 529 786 q 528 624 528 681 q 515 474 528 524 q 470 403 503 424 q 381 378 438 382 q 239 367 325 375 q 215 332 222 351 q 208 292 208 313 q 210 271 208 281 q 215 251 211 261 l 222 244 l 256 246 l 267 239 q 270 128 267 182 q 283 18 274 74 q 249 11 276 14 q 188 6 221 8 q 126 3 156 4 q 83 3 96 3 q 60 3 69 3 q 39 11 51 4 q 51 242 47 126 q 76 247 61 247 l 89 265 q 88 314 89 282 q 87 383 88 346 q 84 462 86 421 q 79 539 82 503 q 73 603 76 575 q 64 646 69 632 q 38 665 46 651 q 28 697 31 679 q 28 733 26 714 q 29 768 29 751 q 29 839 29 803 q 42 907 29 875 m 231 497 q 237 481 231 490 q 249 468 243 472 q 341 497 313 472 q 369 586 369 522 q 347 643 369 631 q 286 656 324 656 l 242 643 q 235 639 238 642 q 229 635 232 636 l 231 497 z "},"":{"ha":596,"x_min":29,"x_max":549,"o":"m 107 894 q 219 922 161 919 q 335 924 276 924 q 383 914 356 924 q 429 896 410 904 l 438 901 q 449 931 438 917 q 492 924 472 929 q 536 914 513 918 q 549 871 549 894 q 546 706 549 788 q 543 543 543 625 l 531 540 q 485 540 518 540 q 417 541 453 540 q 351 542 382 542 q 314 544 321 543 q 290 593 303 572 q 243 614 278 614 q 190 594 210 614 q 162 544 171 574 q 150 483 153 515 q 147 426 147 450 q 165 324 147 368 q 231 243 183 279 q 256 240 242 242 q 283 238 269 238 q 302 242 290 238 q 321 249 314 246 q 346 285 336 267 q 365 325 356 304 q 433 335 394 336 q 504 342 472 335 q 514 317 513 331 q 515 292 515 304 q 510 206 515 249 q 507 121 506 164 q 456 62 483 85 q 398 26 429 39 q 331 10 367 14 q 254 6 296 6 q 85 63 142 6 q 29 229 29 119 q 29 326 29 269 q 31 446 29 382 q 37 576 32 510 q 50 703 42 643 q 72 814 58 764 q 107 894 86 864 z "},"":{"ha":664,"x_min":31,"x_max":622,"o":"m 42 921 q 291 912 167 918 q 539 914 415 906 q 562 917 547 914 q 590 921 576 921 q 613 917 603 921 q 622 899 622 913 q 621 746 622 826 q 608 593 619 665 l 597 581 q 567 576 582 578 q 536 574 551 574 q 507 580 517 574 q 490 606 497 586 q 440 615 464 613 q 390 621 417 618 q 381 590 385 614 q 375 531 378 565 q 371 458 372 497 q 369 383 369 419 q 368 318 368 347 q 368 276 368 289 q 368 247 368 267 q 376 219 368 228 l 432 219 q 441 203 439 213 q 443 188 443 194 q 443 147 443 174 q 441 93 443 121 q 435 40 439 65 q 424 6 431 15 l 314 6 q 244 7 279 6 q 175 11 210 8 q 166 28 169 18 q 163 49 163 39 q 163 115 163 79 q 168 181 164 151 l 178 185 l 218 183 q 228 226 224 196 q 235 294 232 256 q 239 378 238 333 q 241 463 240 422 q 242 538 242 504 q 242 590 242 572 q 199 594 221 588 q 158 600 178 600 q 133 588 139 600 q 121 558 126 575 q 101 563 114 560 q 73 572 88 567 q 47 582 58 576 q 31 593 35 588 q 32 758 33 674 q 42 921 31 843 z "},"":{"ha":743,"x_min":42,"x_max":690,"o":"m 415 606 l 415 643 q 404 653 410 646 q 399 668 399 661 q 399 724 399 688 q 402 799 400 761 q 408 872 404 838 q 418 921 411 906 q 539 922 479 919 q 660 925 599 925 q 675 922 667 925 q 690 918 683 919 q 689 860 689 897 q 688 783 689 822 q 683 710 688 743 q 667 663 678 676 q 633 644 651 654 q 601 624 614 635 q 585 597 593 619 q 567 543 576 575 q 549 474 558 511 q 533 401 540 436 q 521 340 526 367 q 513 300 515 313 q 507 251 510 283 q 499 183 504 219 q 485 112 493 147 q 464 54 476 76 q 428 16 449 28 q 385 0 408 4 q 338 -3 363 -4 q 289 -3 313 -3 q 213 15 239 -3 q 175 66 186 33 q 163 143 164 99 q 161 240 161 188 l 163 317 q 171 319 167 318 q 179 321 175 321 q 223 317 210 321 q 251 311 236 314 l 264 288 l 265 228 l 283 217 q 313 217 294 217 q 335 218 332 218 q 363 250 351 235 q 369 300 381 281 q 331 339 358 319 l 267 358 q 199 442 231 392 q 161 575 168 492 q 156 595 158 581 q 149 625 153 610 q 142 653 146 640 q 138 668 139 667 q 117 697 129 688 q 92 709 106 706 q 65 713 78 713 q 42 718 51 714 q 42 806 42 757 q 46 893 43 856 q 56 910 49 896 q 64 924 63 924 l 326 924 l 332 893 q 328 696 332 793 q 319 688 325 690 q 308 681 314 686 q 297 666 301 676 q 293 635 293 656 q 301 587 293 615 q 320 527 308 558 q 347 466 332 496 q 376 414 361 436 l 393 408 q 401 466 397 436 q 408 523 406 496 q 413 572 411 550 q 415 606 415 593 z "},"":{"ha":835,"x_min":40,"x_max":783,"o":"m 342 774 q 339 791 340 783 q 336 804 338 799 l 336 803 l 265 839 q 244 895 246 867 q 242 964 243 924 q 261 964 243 964 q 306 965 279 964 q 365 966 333 965 q 426 968 397 967 q 478 972 456 969 q 507 976 500 974 q 526 976 517 976 q 543 971 535 975 q 550 894 549 935 q 551 817 551 853 q 544 811 551 814 l 543 806 l 500 804 q 492 732 493 768 q 551 745 521 739 q 614 751 581 751 q 721 732 686 751 q 769 681 756 713 q 783 607 783 649 q 782 519 782 565 q 769 398 782 438 q 724 342 757 358 q 636 322 692 325 q 493 313 581 319 l 488 313 q 502 252 492 276 q 535 228 513 228 q 542 184 543 211 q 542 139 542 157 q 542 71 542 106 q 536 4 542 36 q 415 6 475 4 q 293 7 356 8 q 291 16 293 11 q 289 25 289 21 q 289 73 289 46 q 290 128 289 100 q 293 182 290 156 q 301 228 296 208 l 335 244 q 343 262 338 250 q 349 278 349 274 l 349 308 q 282 302 317 306 q 210 299 247 299 q 102 321 138 299 q 53 381 67 343 q 41 467 40 418 q 42 568 42 515 q 55 688 42 647 q 101 744 68 728 q 193 764 135 761 q 342 774 251 767 m 344 518 q 339 534 344 525 q 328 547 333 543 q 235 531 264 544 q 206 479 206 517 q 229 422 206 433 q 290 410 253 410 l 335 421 q 342 427 339 424 q 347 431 344 431 l 344 518 m 488 532 l 488 521 q 487 499 488 513 q 485 468 486 486 l 486 443 q 492 427 486 436 q 504 414 497 418 q 597 431 568 417 q 625 482 625 444 q 602 540 625 528 q 542 551 579 551 l 496 540 l 488 532 z "},"":{"ha":783,"x_min":32,"x_max":739,"o":"m 313 919 q 324 915 315 919 q 338 908 333 911 q 352 810 344 860 q 369 710 360 760 l 361 686 q 339 668 344 683 q 360 642 344 656 q 388 619 375 629 q 426 648 410 628 q 454 688 442 668 q 439 699 449 696 q 421 704 429 703 l 415 718 q 421 756 417 725 q 431 821 425 786 q 442 885 436 856 q 454 919 449 915 q 512 917 472 918 q 593 916 551 917 q 669 913 635 915 q 714 906 704 910 l 715 901 q 710 856 715 892 q 697 779 704 819 q 682 706 689 739 q 671 667 675 672 q 624 638 653 658 q 567 591 594 617 q 521 538 540 565 q 501 489 501 510 q 522 430 501 468 q 574 353 543 392 q 636 285 604 315 q 692 251 668 256 q 704 230 699 244 q 713 199 710 215 q 718 166 717 182 q 719 140 719 150 q 729 90 719 111 q 739 40 739 68 q 737 24 739 32 q 728 8 735 15 q 677 7 701 8 q 629 6 653 6 q 551 12 592 6 q 469 11 510 18 l 456 21 q 433 127 446 69 q 421 235 421 185 q 424 256 421 246 q 433 274 428 267 l 429 288 q 409 305 421 296 q 386 318 397 314 q 359 304 371 314 q 336 283 347 294 l 335 268 q 328 119 335 172 q 297 42 322 67 q 222 11 272 17 q 82 6 171 6 l 50 6 q 32 58 32 28 q 37 100 32 72 q 49 157 42 128 q 63 212 56 186 q 78 250 71 238 q 94 253 85 253 q 110 253 103 253 l 119 253 q 153 301 129 271 q 201 363 176 332 q 244 422 225 394 q 264 463 264 449 q 231 508 251 479 q 188 563 211 536 q 142 611 165 590 q 99 632 118 632 q 81 689 88 654 q 69 761 74 724 q 59 835 64 799 q 50 899 54 872 l 58 917 l 313 919 z "},"":{"ha":704,"x_min":31,"x_max":679,"o":"m 576 613 q 581 465 576 535 q 589 319 585 396 l 608 299 q 632 302 621 301 q 671 299 643 303 q 679 260 679 285 q 679 218 679 235 q 676 26 679 125 q 668 -167 672 -74 q 658 -172 664 -169 q 649 -174 653 -174 q 610 -175 632 -174 q 569 -169 588 -176 l 560 -11 q 547 -4 556 -8 q 531 0 538 0 q 490 1 514 0 q 441 3 467 1 q 388 6 415 4 q 339 8 361 7 l 340 8 l 83 11 q 81 19 83 14 q 78 28 78 24 q 78 78 78 43 q 78 152 78 114 q 80 223 78 190 q 86 267 82 256 l 126 278 q 132 294 129 285 q 135 311 135 304 l 135 429 q 135 484 135 450 q 136 553 136 518 q 133 619 136 588 q 121 668 129 651 q 92 686 108 676 q 63 707 76 696 q 40 732 50 718 q 31 763 31 746 l 35 911 l 64 914 q 163 910 114 914 q 261 910 211 907 q 274 897 267 904 q 281 882 281 889 q 278 788 279 833 q 278 693 276 742 q 251 665 258 676 q 242 642 243 654 q 242 611 240 629 q 244 564 244 593 q 244 483 244 529 q 247 394 243 436 q 263 322 251 351 q 299 292 275 292 q 361 294 336 292 q 419 308 386 297 q 441 372 439 340 q 443 440 443 404 q 442 503 443 467 q 440 576 442 539 q 433 647 438 613 q 418 706 428 682 l 378 714 q 376 738 378 714 q 372 791 374 761 q 369 847 371 821 q 368 881 368 874 q 371 906 368 892 q 499 907 436 907 q 628 913 563 907 q 631 905 628 910 q 633 896 633 900 q 633 845 633 881 q 633 772 633 810 q 631 700 633 733 q 625 657 629 667 l 585 646 q 579 629 582 639 q 576 613 576 619 z "},"":{"ha":579,"x_min":13,"x_max":567,"o":"m 308 918 q 369 915 339 918 q 431 910 400 913 q 492 906 461 907 q 551 907 522 904 q 564 839 564 875 q 564 768 564 803 q 565 733 564 751 q 565 697 567 714 q 555 665 563 679 q 529 646 547 651 q 516 574 521 626 q 508 462 511 522 q 505 347 506 401 q 504 265 504 292 l 517 247 q 542 242 531 247 q 554 11 543 126 q 532 3 540 4 q 508 3 524 3 q 467 3 497 3 q 405 6 438 4 q 344 11 372 8 q 308 18 317 14 q 326 239 326 125 l 336 246 l 369 244 l 378 251 q 383 292 383 268 q 377 332 383 313 q 354 367 371 351 q 211 378 267 375 q 123 403 156 382 q 78 474 90 424 q 65 624 65 524 q 63 645 64 633 q 59 667 63 657 q 47 683 56 676 q 21 692 39 690 q 14 735 13 708 q 15 781 15 761 q 15 847 15 813 q 19 915 14 882 q 141 913 82 915 q 263 911 200 910 q 266 902 264 907 q 268 893 268 897 q 268 847 268 874 q 267 791 268 819 q 263 736 265 763 q 256 692 260 710 l 221 674 q 213 657 218 669 q 207 642 207 644 l 213 586 q 246 497 213 522 q 343 468 279 472 q 356 481 350 472 q 361 497 361 490 l 364 635 q 347 639 356 636 q 326 643 338 642 l 306 681 l 308 918 z "},"":{"ha":996,"x_min":25,"x_max":960,"o":"m 856 303 q 859 289 857 296 q 864 278 861 282 l 904 267 q 910 223 908 256 q 913 152 913 190 q 913 78 913 114 q 913 28 913 43 q 909 19 913 24 q 906 11 906 14 q 834 -7 888 -1 q 709 -13 781 -12 q 556 -11 638 -14 q 401 -5 475 -8 q 272 2 328 -1 q 194 6 215 6 q 158 6 181 6 q 112 6 136 6 q 65 8 88 7 q 31 11 43 10 q 28 19 31 14 q 25 28 25 24 q 25 78 25 43 q 25 152 25 114 q 27 223 25 190 q 33 267 29 256 l 74 278 q 76 285 75 281 q 79 293 76 289 q 86 453 82 374 q 90 613 90 532 q 87 629 90 619 q 81 646 83 639 l 42 657 q 35 700 38 667 q 33 772 33 733 q 32 845 32 810 q 32 896 32 881 q 35 905 32 900 q 39 913 39 910 q 167 907 104 907 q 294 906 229 907 q 297 894 296 900 q 299 881 299 888 q 297 847 299 874 q 294 791 296 821 q 291 738 293 761 q 289 714 289 714 l 247 706 q 234 647 239 682 q 227 576 229 613 q 224 503 225 539 q 224 440 224 467 q 225 372 224 404 q 246 308 226 340 q 280 294 265 297 q 318 292 294 292 q 352 292 333 292 q 394 293 371 292 l 414 310 q 414 394 414 343 q 413 494 414 444 q 409 582 411 543 q 401 631 407 621 l 358 632 l 356 638 q 352 726 354 682 q 350 818 350 771 q 351 864 350 840 q 357 910 353 888 q 374 915 365 914 q 393 915 383 915 q 423 915 400 915 q 475 913 446 914 q 536 910 504 911 q 595 907 568 908 q 640 904 622 906 q 660 903 658 903 q 647 844 649 875 q 647 783 646 814 q 647 722 647 751 q 636 665 646 692 l 565 629 q 553 576 554 603 q 553 521 553 549 q 551 485 553 508 q 549 435 550 463 q 548 376 547 407 q 551 318 549 346 l 574 300 l 668 306 l 692 326 q 713 453 704 394 q 721 564 721 511 q 722 592 721 582 q 723 610 724 603 q 718 625 722 618 q 701 643 714 632 q 701 763 703 703 q 699 882 700 822 q 701 897 699 889 q 706 910 703 904 q 817 910 761 907 q 928 914 872 914 l 956 911 l 960 763 q 951 732 960 746 q 928 707 942 718 q 898 686 914 696 q 869 668 882 676 q 856 619 860 651 q 853 553 853 588 q 854 484 853 518 q 856 429 856 450 l 856 303 z "},"":{"ha":1031,"x_min":24,"x_max":1007,"o":"m 833 0 q 751 -3 811 0 q 614 -9 692 -6 q 449 -15 536 -12 q 286 -15 363 -17 q 153 -8 210 -14 q 78 11 96 -1 q 74 19 78 14 q 71 28 71 24 q 71 78 71 43 q 72 152 71 114 q 74 223 72 190 q 81 267 76 256 l 119 278 q 124 289 122 282 q 128 303 126 296 l 128 429 q 129 484 128 450 q 131 553 131 518 q 127 619 131 588 q 114 668 124 651 q 85 686 101 676 q 56 707 69 696 q 33 732 43 718 q 24 763 24 746 l 28 911 l 56 914 q 168 910 113 914 q 279 910 224 907 q 283 897 281 904 q 285 882 285 889 q 282 763 283 822 q 282 643 281 703 q 265 625 269 632 q 260 610 261 618 q 261 592 260 603 q 263 564 263 582 q 271 453 263 511 q 293 326 279 394 l 315 306 l 410 300 l 432 318 q 435 376 435 346 q 434 435 435 407 q 432 485 433 463 q 431 521 431 508 q 430 576 431 549 q 418 629 429 603 l 347 665 q 337 722 338 692 q 337 783 336 751 q 335 844 338 814 q 324 903 333 875 q 343 904 325 903 q 388 907 361 906 q 447 910 415 908 q 508 913 479 911 q 560 915 538 914 q 590 915 582 915 q 609 915 600 915 q 626 910 618 914 q 632 864 631 888 q 633 818 633 840 q 632 726 633 771 q 628 638 631 682 l 625 632 l 582 631 q 574 582 576 621 q 570 494 571 543 q 569 394 569 444 q 569 310 569 343 l 589 293 q 632 292 613 292 q 667 292 651 292 q 703 294 689 292 q 738 308 718 297 q 758 372 757 340 q 760 440 760 404 q 759 503 760 467 q 756 576 758 539 q 749 647 754 613 q 736 706 744 682 l 694 714 q 692 738 694 714 q 689 791 690 761 q 686 847 688 821 q 685 881 685 874 q 686 894 685 888 q 689 906 688 900 q 817 907 754 907 q 944 913 879 907 q 948 905 944 910 q 951 896 951 900 q 951 845 951 881 q 951 772 951 810 q 949 700 951 733 q 943 657 947 667 l 903 646 q 897 629 900 639 q 893 613 893 619 q 894 537 893 572 q 897 467 894 501 q 900 396 899 432 q 904 319 901 360 l 924 299 q 953 302 939 301 q 999 299 967 303 q 1006 260 1007 285 q 1006 218 1006 235 q 999 26 1006 125 q 982 -167 993 -74 q 973 -172 979 -169 q 964 -174 967 -174 q 918 -175 944 -174 q 872 -169 892 -176 l 863 -11 q 849 -4 857 -8 q 833 0 840 0 z "},"":{"ha":743,"x_min":18,"x_max":693,"o":"m 393 283 q 399 280 396 282 q 406 275 401 278 l 450 264 q 510 276 488 264 q 533 332 533 288 q 505 422 533 397 q 413 451 476 446 q 401 437 407 446 q 394 421 394 428 l 393 283 m 172 678 q 157 674 165 678 q 143 667 149 669 l 133 507 q 94 503 117 501 q 56 504 72 504 q 46 506 51 504 q 36 511 40 508 q 31 597 33 557 q 25 676 28 638 q 20 756 22 715 q 18 842 18 796 q 18 882 18 857 q 26 921 18 907 q 139 922 85 928 q 247 917 193 917 q 290 916 260 917 q 352 913 319 915 q 413 908 385 911 q 447 901 440 906 q 434 792 438 846 q 431 681 431 738 l 419 672 l 386 674 l 379 668 q 374 649 375 658 q 372 628 372 639 q 379 587 372 606 q 403 553 386 568 q 545 541 489 544 q 634 516 601 538 q 679 444 667 494 q 692 294 692 394 q 692 185 692 238 q 679 91 693 132 q 630 26 665 50 q 522 1 594 1 q 363 9 444 1 q 206 11 281 17 q 193 80 193 43 q 193 151 193 117 q 192 185 193 167 q 192 222 190 204 q 202 252 194 239 q 228 272 210 265 q 237 314 233 285 q 243 379 240 343 q 248 456 246 415 q 251 535 250 497 q 252 605 251 574 q 253 654 253 636 l 240 671 q 228 671 238 671 q 206 672 218 671 q 185 674 194 674 q 172 678 175 675 z "},"":{"ha":901,"x_min":26,"x_max":881,"o":"m 42 11 q 29 80 29 43 q 29 151 29 117 q 28 185 29 167 q 28 222 26 204 q 38 252 31 239 q 64 272 46 265 q 73 314 69 285 q 79 379 76 343 q 84 456 82 415 q 87 535 86 497 q 88 605 88 574 q 89 654 89 636 l 76 671 q 63 672 69 671 q 51 678 57 674 q 46 792 49 736 q 39 907 43 849 q 60 916 51 915 q 83 917 69 917 q 126 916 96 917 q 188 913 156 915 q 249 908 221 911 q 283 901 276 906 q 270 792 274 846 q 267 681 267 738 l 256 672 l 222 674 l 215 668 q 210 649 211 658 q 208 628 208 639 q 215 587 208 606 q 239 553 222 568 q 381 541 325 544 q 470 516 438 538 q 515 444 503 494 q 528 294 528 394 q 528 185 528 238 q 515 91 529 132 q 466 26 501 50 q 358 1 431 1 q 199 9 281 1 q 42 11 118 17 m 579 911 q 576 902 578 907 q 574 893 574 897 q 574 847 574 874 q 574 791 574 819 q 578 736 575 763 q 586 692 581 710 l 619 674 q 628 657 622 669 q 633 642 633 644 q 633 599 633 628 q 633 533 633 569 q 633 456 633 496 q 632 382 633 417 q 628 322 631 347 q 621 289 625 296 l 579 286 l 576 281 q 572 192 574 236 q 569 101 569 147 q 571 55 569 78 q 578 8 572 32 q 595 5 586 6 q 614 4 604 4 q 643 5 621 4 q 694 6 665 6 q 756 8 724 7 q 816 11 789 10 q 861 14 843 13 q 881 17 879 15 q 868 75 869 44 q 867 136 867 106 q 866 197 867 167 q 856 254 865 226 l 785 290 q 773 342 774 315 q 772 397 772 369 q 771 439 772 411 q 769 499 769 467 q 769 566 768 532 q 776 628 771 600 q 791 674 781 656 q 819 692 801 692 q 827 735 828 708 q 826 781 826 761 q 827 847 826 813 q 821 915 828 882 q 700 913 760 915 q 579 911 640 910 m 229 283 q 235 280 232 282 q 242 275 238 278 l 286 264 q 347 276 324 264 q 369 332 369 288 q 341 422 369 397 q 249 451 313 446 q 237 437 243 446 q 231 421 231 428 l 229 283 z "},"":{"ha":579,"x_min":26,"x_max":529,"o":"m 42 11 q 29 80 29 43 q 29 151 29 117 q 28 185 29 167 q 28 222 26 204 q 38 252 31 239 q 64 272 46 265 q 73 314 69 285 q 79 379 76 343 q 84 456 82 415 q 87 535 86 497 q 88 605 88 574 q 89 654 89 636 l 76 671 q 63 672 69 671 q 51 678 57 674 q 46 792 49 736 q 39 907 43 849 q 60 916 51 915 q 83 917 69 917 q 126 916 96 917 q 188 913 156 915 q 249 908 221 911 q 283 901 276 906 q 284 837 286 865 q 278 783 282 808 q 270 733 274 758 q 267 681 267 708 l 256 672 l 222 674 l 215 668 q 210 649 211 658 q 208 628 208 639 q 215 587 208 606 q 239 553 222 568 q 381 541 325 544 q 470 516 438 538 q 515 444 503 494 q 528 294 528 394 q 528 185 528 238 q 515 91 529 132 q 466 26 501 50 q 358 1 431 1 q 199 9 281 1 q 42 11 118 17 m 229 283 q 235 280 232 282 q 242 275 238 278 l 286 264 q 347 276 324 264 q 369 332 369 288 q 341 422 369 397 q 249 451 313 446 q 237 437 243 446 q 231 421 231 428 l 229 283 z "},"":{"ha":596,"x_min":49,"x_max":560,"o":"m 506 894 q 529 814 519 864 q 545 703 539 764 q 554 576 551 643 q 558 446 557 510 q 560 326 560 382 q 560 229 560 269 q 503 63 560 119 q 335 6 446 6 q 250 10 289 6 q 177 26 211 14 q 113 62 143 39 q 56 121 82 85 q 53 206 57 164 q 49 292 49 249 q 50 317 49 304 q 60 342 51 331 q 103 338 81 339 q 149 335 126 336 q 194 333 172 335 q 236 325 217 331 q 256 285 246 304 q 281 249 265 267 q 299 242 288 246 q 318 238 310 238 q 362 242 342 238 q 397 258 382 246 q 420 291 411 269 q 432 349 429 313 q 374 351 404 346 q 318 360 344 357 q 315 371 318 365 q 313 381 313 376 q 316 433 313 408 q 313 486 319 458 q 334 490 319 489 q 366 492 349 492 q 401 493 383 493 q 433 493 419 493 q 426 556 435 532 q 400 593 417 581 q 360 610 383 606 q 308 614 338 614 q 279 608 290 614 q 260 593 268 603 q 248 571 253 583 q 238 544 243 558 q 210 542 232 543 q 163 541 189 542 q 115 540 138 540 q 83 540 92 540 l 71 543 q 68 706 71 625 q 65 871 65 788 q 67 893 65 882 q 78 914 68 904 q 121 924 100 918 q 165 931 142 929 q 175 916 174 924 q 176 901 176 908 l 185 896 q 231 914 204 904 q 279 924 258 924 q 395 922 338 924 q 506 894 453 919 z "}}}
